<svg width="14" height="14" viewBox="0 0 14 14" fill="none" xmlns="http://www.w3.org/2000/svg">
<g id="Frame">
<path id="Vector" d="M12.6 4.06179C12.5332 3.99189 12.4527 3.93642 12.3636 3.8988C12.2746 3.86118 12.1787 3.8422 12.082 3.84304C11.8825 3.84304 11.7104 3.91596 11.5646 4.06179L7.29167 8.33471L3.00417 4.04721C2.93753 3.98013 2.85787 3.92741 2.77009 3.8923C2.6823 3.85718 2.58826 3.84042 2.49375 3.84304C2.28958 3.84304 2.11458 3.91596 1.96875 4.06179C1.82292 4.20762 1.75 4.38029 1.75 4.57921C1.75 4.77754 1.82292 4.95079 1.96875 5.09662L6.88333 9.99662C6.94167 10.055 7.00467 10.0958 7.07233 10.1209C7.21426 10.1698 7.36849 10.1698 7.51042 10.1209C7.58205 10.094 7.64682 10.0516 7.7 9.99662L12.6146 5.08204C12.7505 4.94554 12.8187 4.77812 12.8187 4.57921C12.8187 4.37971 12.7458 4.20762 12.6 4.06179Z" fill="url(#paint0_linear_1171_27696)"/>
</g>
<defs>
<linearGradient id="paint0_linear_1171_27696" x1="1.75" y1="7.00017" x2="12.8188" y2="7.00017" gradientUnits="userSpaceOnUse">
<stop stop-color="#24FE41"/>
<stop offset="1" stop-color="#FDFC47"/>
</linearGradient>
</defs>
</svg>
