<svg width="40" height="40" viewBox="0 0 40 40" fill="none" xmlns="http://www.w3.org/2000/svg">
<g id="fi_5782162">
<g id="Body_5_">
<g id="Group">
<g id="Group_2">
<g id="Vector" filter="url(#filter0_i_78_14240)">
<path d="M35.7971 19.7969C34.9534 16.3047 31.5079 10 31.3909 9.78898C29.9377 6.8593 29.0237 4.17188 29.258 1.26555C29.2814 0.9375 29.1641 0.609375 28.9536 0.374922C28.7189 0.140625 28.4145 0 28.0861 0H11.9379C11.6094 0 11.305 0.140625 11.0704 0.374922C10.8595 0.609375 10.7425 0.937578 10.766 1.26555C11.0001 4.19523 10.0862 6.88281 8.60968 9.78898C6.79914 13.3875 4.9489 16.8823 4.22687 19.7969C2.58632 26.4765 3.59398 33.4375 7.06273 39.4141C7.2739 39.7657 7.64867 40 8.07039 40H15.3362C15.8752 40 16.3205 39.6484 16.4612 39.1328C17.0237 37.0938 17.633 34.8202 18.1017 32.9688L17.141 28.3984L19.5552 30.625H20.4455L22.8596 28.3984L21.9693 32.8281L23.5394 39.1094C23.6802 39.6251 24.1488 40 24.6879 40H31.9534C32.3755 40 32.7502 39.7657 32.9614 39.4141C36.4065 33.4375 37.3907 26.4765 35.7971 19.7969Z" fill="#4B6742"/>
</g>
</g>
</g>
<g id="Group_3">
<g id="Group_4">
<path id="Vector_2" d="M25.2025 23.7109C24.64 23.4297 23.9368 23.6641 23.6324 24.2501L20.4446 30.625H21.4291L21.9684 32.8281L25.7415 25.2812C26.0231 24.7187 25.7885 24.0156 25.2025 23.7109ZM14.7964 23.7109C14.2105 24.0156 13.9759 24.7188 14.2574 25.2812L18.1009 32.9688C18.3121 32.0547 18.4994 31.2344 18.6399 30.625H19.5542L16.3665 24.2501C16.0621 23.6641 15.3589 23.4297 14.7964 23.7109ZM21.1714 15.3906C21.1714 14.7434 20.6467 14.2188 19.9995 14.2188C19.3523 14.2188 18.8276 14.7434 18.8276 15.3906C18.8276 16.0378 19.3523 16.5625 19.9995 16.5625C20.6467 16.5625 21.1714 16.0378 21.1714 15.3906Z" fill="white" fill-opacity="0.8"/>
</g>
</g>
</g>
</g>
<defs>
<filter id="filter0_i_78_14240" x="3.45898" y="0" width="33.0806" height="40" filterUnits="userSpaceOnUse" color-interpolation-filters="sRGB">
<feFlood flood-opacity="0" result="BackgroundImageFix"/>
<feBlend mode="normal" in="SourceGraphic" in2="BackgroundImageFix" result="shape"/>
<feColorMatrix in="SourceAlpha" type="matrix" values="0 0 0 0 0 0 0 0 0 0 0 0 0 0 0 0 0 0 127 0" result="hardAlpha"/>
<feOffset/>
<feGaussianBlur stdDeviation="3"/>
<feComposite in2="hardAlpha" operator="arithmetic" k2="-1" k3="1"/>
<feColorMatrix type="matrix" values="0 0 0 0 1 0 0 0 0 1 0 0 0 0 1 0 0 0 1 0"/>
<feBlend mode="normal" in2="shape" result="effect1_innerShadow_78_14240"/>
</filter>
</defs>
</svg>
