<svg width="24" height="24" viewBox="0 0 24 24" fill="none" xmlns="http://www.w3.org/2000/svg">
<g id="fi_10628420">
<path id="Vector" fill-rule="evenodd" clip-rule="evenodd" d="M9.70727 3.29289C10.0978 3.68342 10.0978 4.31658 9.70727 4.70711C8.52762 5.88676 7.36679 7.7323 7.0718 9.9315C7.23289 10.1472 7.34945 10.4105 7.38476 10.7159C7.51044 11.803 8.03609 12.8566 8.75749 13.7997C9.45998 14.7181 10.3091 15.48 11.024 16H12.9764C13.6912 15.48 14.5404 14.7181 15.2428 13.7997C15.9642 12.8566 16.4899 11.803 16.6156 10.7159C16.6509 10.4105 16.7674 10.1472 16.9285 9.9315C16.6335 7.7323 15.4727 5.88676 14.2931 4.70711C13.9025 4.31658 13.9025 3.68342 14.2931 3.29289C14.6836 2.90237 15.3167 2.90237 15.7073 3.29289C17.0598 4.64541 18.4296 6.75647 18.8612 9.33391C19.0858 9.42341 19.3005 9.57697 19.4796 9.817C20.6716 11.4145 22.1598 13.872 22.8896 16.6289C23.0398 17.1964 22.8432 17.821 22.3437 18.1884C21.3803 18.8968 19.8878 19.6742 18.1958 19.9206C16.473 20.1716 14.5214 19.8697 12.7934 18.3728C12.6618 18.2588 12.5581 18.133 12.4799 18H11.5204C11.4422 18.133 11.3385 18.2588 11.2069 18.3728C9.47889 19.8697 7.52737 20.1716 5.80452 19.9206C4.11251 19.6742 2.62007 18.8968 1.65666 18.1884C1.15713 17.821 0.960574 17.1964 1.11077 16.6289C1.84048 13.872 3.32872 11.4145 4.52073 9.817C4.69983 9.57697 4.91451 9.4234 5.13911 9.3339C5.57072 6.75647 6.94054 4.64541 8.29306 3.29289C8.68358 2.90237 9.31675 2.90237 9.70727 3.29289ZM5.51498 11.8746C4.62175 13.2093 3.68925 14.9308 3.14318 16.7865C3.90354 17.2856 4.95903 17.7764 6.09279 17.9415C7.17573 18.0993 8.31219 17.9614 9.37656 17.2574C8.64939 16.6748 7.85643 15.9136 7.16894 15.0148C6.49292 14.1311 5.89321 13.0802 5.58174 11.9085C5.55901 11.898 5.53675 11.8867 5.51498 11.8746ZM18.4186 11.9085C18.4413 11.898 18.4636 11.8867 18.4853 11.8746C19.3786 13.2093 20.3111 14.9308 20.8571 16.7865C20.0968 17.2856 19.0413 17.7764 17.9075 17.9415C16.8246 18.0993 15.6881 17.9614 14.6238 17.2574C15.3509 16.6748 16.1439 15.9136 16.8314 15.0148C17.5074 14.131 18.1071 13.0802 18.4186 11.9085Z" fill="#6B6B6B"/>
</g>
</svg>
