<svg width="21" height="20" viewBox="0 0 21 20" fill="none" xmlns="http://www.w3.org/2000/svg">
<g id="fi_2050922">
<path id="Vector" d="M17.3784 1.01251C16.4722 1.10785 15.3818 1.71114 14.0451 2.85681C11.6268 4.92955 8.77416 8.50839 6.93693 11.0834C5.59541 10.8742 4.1815 11.4479 3.34435 12.4943C1.80774 14.4151 3.0941 16.1291 1.64469 17.6574C1.39229 17.9235 1.48233 18.3607 1.81977 18.5052C4.191 19.5204 7.22212 18.8876 8.64405 17.3883C9.51305 16.4721 9.98588 15.1193 9.74836 13.8459C12.2895 11.8961 15.8005 8.89043 17.7888 6.39683C18.8897 5.016 19.4484 3.90524 19.4968 3.00109C19.562 1.78303 18.6167 0.882361 17.3784 1.01251ZM7.87882 16.6625C6.91686 17.6768 4.78856 18.2675 2.89473 17.7624C3.95365 16.0734 3.0434 14.5589 4.1679 13.1532C5.09063 11.9998 6.94649 11.6769 8.02493 12.7554C9.28492 14.0155 8.69801 15.7987 7.87882 16.6625ZM7.98675 11.4298C8.2453 11.0724 8.65076 10.5205 9.15713 9.85976L10.8876 11.5903C10.2503 12.1143 9.71813 12.5346 9.3731 12.803C9.06224 12.2447 8.58115 11.7445 7.98675 11.4298ZM18.4437 2.9447C18.3252 5.15968 13.3866 9.4845 11.7007 10.9118L9.80974 9.02079C11.197 7.26438 15.2682 2.29498 17.4888 2.06147C18.0812 1.99907 18.4742 2.37288 18.4437 2.9447Z" fill="white"/>
</g>
</svg>
