<svg xmlns="http://www.w3.org/2000/svg" width="24" height="25" viewBox="0 0 24 25" fill="none">
  <path d="M22 5.5C22 7.15685 20.6569 8.5 19 8.5C17.3431 8.5 16 7.15685 16 5.5C16 3.84315 17.3431 2.5 19 2.5C20.6569 2.5 22 3.84315 22 5.5Z" fill="url(#paint0_linear_474_28743)"/>
  <path fill-rule="evenodd" clip-rule="evenodd" d="M15.612 2.53826C14.59 2.5 13.3988 2.5 12 2.5C7.28595 2.5 4.92893 2.5 3.46447 3.96447C2 5.42893 2 7.78595 2 12.5C2 17.214 2 19.5711 3.46447 21.0355C4.92893 22.5 7.28595 22.5 12 22.5C16.714 22.5 19.0711 22.5 20.5355 21.0355C22 19.5711 22 17.214 22 12.5C22 11.1012 22 9.91 21.9617 8.88802C21.1703 9.58042 20.1342 10 19 10C16.5147 10 14.5 7.98528 14.5 5.5C14.5 4.36584 14.9196 3.32967 15.612 2.53826ZM17.4801 9.92383C17.7983 10.189 17.8413 10.6619 17.5762 10.9801L15.7473 13.1748C15.4189 13.569 15.1228 13.9244 14.8462 14.1742C14.5452 14.4459 14.1662 14.688 13.6667 14.688C13.1672 14.688 12.7881 14.4459 12.4872 14.1742C12.2106 13.9244 11.9145 13.569 11.586 13.1748L11.2936 12.8239C10.9228 12.3789 10.6951 12.1085 10.5075 11.9391C10.4205 11.8606 10.3689 11.8292 10.3442 11.8173C10.3392 11.8148 10.3356 11.8134 10.3333 11.8125L10.3292 11.8142L10.3225 11.8173C10.2977 11.8292 10.2461 11.8606 10.1591 11.9391C9.97155 12.1085 9.74385 12.3789 9.37306 12.8239L7.57617 14.9801C7.31099 15.2983 6.83807 15.3413 6.51986 15.0762C6.20165 14.811 6.15866 14.3381 6.42383 14.0199L8.25267 11.8253C8.58113 11.431 8.87725 11.0756 9.15384 10.8258C9.45478 10.5541 9.83384 10.312 10.3333 10.312C10.8328 10.312 11.2119 10.5541 11.5128 10.8258C11.7894 11.0756 12.0855 11.431 12.414 11.8252L12.7064 12.1761C13.0772 12.6211 13.3049 12.8915 13.4925 13.0609C13.5795 13.1394 13.6311 13.1708 13.6558 13.1827L13.659 13.1842C13.6624 13.1858 13.6667 13.1875 13.6667 13.1875C13.6689 13.1866 13.6725 13.1852 13.6775 13.1827C13.7023 13.1708 13.7539 13.1394 13.8409 13.0609C14.0284 12.8915 14.2562 12.6211 14.6269 12.1761L16.4238 10.0199C16.689 9.70165 17.1619 9.65866 17.4801 9.92383Z" fill="url(#paint1_linear_474_28743)"/>
  <defs>
    <linearGradient id="paint0_linear_474_28743" x1="16" y1="5.5" x2="22" y2="5.5" gradientUnits="userSpaceOnUse">
      <stop stop-color="#24FE41"/>
      <stop offset="1" stop-color="#FDFC47"/>
    </linearGradient>
    <linearGradient id="paint1_linear_474_28743" x1="2" y1="12.5" x2="22" y2="12.5" gradientUnits="userSpaceOnUse">
      <stop stop-color="#24FE41"/>
      <stop offset="1" stop-color="#FDFC47"/>
    </linearGradient>
  </defs>
</svg>