<svg width="16" height="17" viewBox="0 0 16 17" fill="none" xmlns="http://www.w3.org/2000/svg">
<g id="Bold / Essentional, UI / Check Circle">
<path id="Vector" fill-rule="evenodd" clip-rule="evenodd" d="M14.6663 8.50016C14.6663 12.1821 11.6816 15.1668 7.99967 15.1668C4.31778 15.1668 1.33301 12.1821 1.33301 8.50016C1.33301 4.81826 4.31778 1.8335 7.99967 1.8335C11.6816 1.8335 14.6663 4.81826 14.6663 8.50016ZM10.6866 6.47994C10.8818 6.6752 10.8818 6.99179 10.6866 7.18705L7.35323 10.5204C7.15797 10.7156 6.84138 10.7156 6.64612 10.5204L5.31279 9.18705C5.11753 8.99179 5.11753 8.6752 5.31279 8.47994C5.50805 8.28468 5.82463 8.28468 6.01989 8.47994L6.99967 9.45972L8.48956 7.96983L9.97945 6.47994C10.1747 6.28468 10.4913 6.28468 10.6866 6.47994Z" fill="#1F1F1F"/>
</g>
</svg>
