<svg width="13" height="12" viewBox="0 0 13 12" fill="none" xmlns="http://www.w3.org/2000/svg">
<g id="fi_992700" clip-path="url(#clip0_1102_14950)">
<g id="Group">
<g id="Group_2">
<path id="Vector" d="M8.63782 7.05895L6.96469 5.80411V3.24797C6.96469 2.99095 6.75694 2.7832 6.49992 2.7832C6.24291 2.7832 6.03516 2.99095 6.03516 3.24797V6.03652C6.03516 6.18291 6.10395 6.32095 6.22106 6.40833L8.08008 7.8026C8.16373 7.86534 8.26134 7.89556 8.35847 7.89556C8.50022 7.89556 8.63965 7.83188 8.73075 7.70918C8.88509 7.5042 8.84325 7.2128 8.63782 7.05895Z" fill="#9292A6"/>
</g>
</g>
<g id="Group_3">
<g id="Group_4">
<path id="Vector_2" d="M6.5 0C3.1914 0 0.5 2.6914 0.5 6C0.5 9.3086 3.1914 12 6.5 12C9.8086 12 12.5 9.3086 12.5 6C12.5 2.6914 9.8086 0 6.5 0ZM6.5 11.0705C3.70449 11.0705 1.42951 8.79551 1.42951 6C1.42951 3.20449 3.70449 0.929508 6.5 0.929508C9.29598 0.929508 11.5705 3.20449 11.5705 6C11.5705 8.79551 9.29551 11.0705 6.5 11.0705Z" fill="#9292A6"/>
</g>
</g>
</g>
<defs>
<clipPath id="clip0_1102_14950">
<rect width="12" height="12" fill="white" transform="translate(0.5)"/>
</clipPath>
</defs>
</svg>
