<svg width="24" height="24" viewBox="0 0 24 24" fill="none" xmlns="http://www.w3.org/2000/svg">
<g id="Bold / Essentional, UI / Copy">
<g id="Vector">
<path d="M15.24 2H11.3458C9.58159 1.99999 8.18418 1.99997 7.09054 2.1476C5.96501 2.29953 5.05402 2.61964 4.33559 3.34096C3.61717 4.06227 3.29833 4.97692 3.14701 6.10697C2.99997 7.205 2.99999 8.60802 3 10.3793V16.2169C3 17.725 3.91995 19.0174 5.22717 19.5592C5.15989 18.6498 5.15994 17.3737 5.16 16.312L5.16 11.3976L5.16 11.3024C5.15993 10.0207 5.15986 8.91644 5.27828 8.03211C5.40519 7.08438 5.69139 6.17592 6.4253 5.43906C7.15921 4.70219 8.06404 4.41485 9.00798 4.28743C9.88877 4.16854 10.9887 4.1686 12.2652 4.16867L12.36 4.16868H15.24L15.3348 4.16867C16.6113 4.1686 17.7088 4.16854 18.5896 4.28743C18.0627 2.94779 16.7616 2 15.24 2Z" fill="url(#paint0_linear_474_28730)"/>
</g>
<g id="Vector_2">
<path d="M6.60156 11.3964C6.60156 8.67022 6.60156 7.30712 7.4451 6.4602C8.28863 5.61328 9.64627 5.61328 12.3616 5.61328H15.2416C17.9569 5.61328 19.3145 5.61328 20.158 6.4602C21.0016 7.30712 21.0016 8.67022 21.0016 11.3964V16.2157C21.0016 18.9419 21.0016 20.305 20.158 21.1519C19.3145 21.9988 17.9569 21.9988 15.2416 21.9988H12.3616C9.64627 21.9988 8.28863 21.9988 7.4451 21.1519C6.60156 20.305 6.60156 18.9419 6.60156 16.2157V11.3964Z" fill="url(#paint1_linear_474_28730)"/>
</g>
</g>
<defs>
<linearGradient id="paint0_linear_474_28730" x1="3" y1="10.8089" x2="18.5896" y2="10.8089" gradientUnits="userSpaceOnUse">
<stop stop-color="#24FE41"/>
<stop offset="1" stop-color="#FDFC47"/>
</linearGradient>
<linearGradient id="paint1_linear_474_28730" x1="6.60156" y1="13.8061" x2="21.0016" y2="13.8061" gradientUnits="userSpaceOnUse">
<stop stop-color="#24FE41"/>
<stop offset="1" stop-color="#FDFC47"/>
</linearGradient>
</defs>
</svg>
