<svg width="15" height="14" viewBox="0 0 15 14" fill="none" xmlns="http://www.w3.org/2000/svg">
<g id="Frame" clip-path="url(#clip0_1102_14696)">
<path id="Vector" fill-rule="evenodd" clip-rule="evenodd" d="M7.7885 6.05877e-07L7.82222 3.55057e-06H10.39L10.4237 6.05877e-07C10.8849 -1.29319e-05 11.283 -2.46086e-05 11.6107 0.0267519C11.9565 0.0550152 12.3007 0.117416 12.6317 0.286112C13.1256 0.537779 13.5273 0.939356 13.7789 1.43328C13.9476 1.76436 14.01 2.10843 14.0383 2.45436C14.065 2.78211 14.065 3.18003 14.065 3.64129V3.675V7.2643V7.29801C14.065 7.75927 14.065 8.1572 14.0383 8.48495C14.01 8.83085 13.9476 9.17499 13.7789 9.506C13.5273 9.99994 13.1256 10.4016 12.6317 10.6532C12.3007 10.8219 11.9565 10.8843 11.6107 10.9126C11.3892 10.9307 11.1357 10.9365 10.8522 10.9384C10.8546 10.7578 10.8545 10.5708 10.8545 10.3817V10.3259V9.18829C11.111 9.18645 11.3062 9.18164 11.4681 9.16834C11.7059 9.14891 11.794 9.11601 11.8373 9.09396C12.0019 9.01005 12.1357 8.87617 12.2197 8.71154C12.2417 8.66827 12.2746 8.58015 12.294 8.34244C12.3143 8.09452 12.315 7.76878 12.315 7.2643V3.675C12.315 3.17052 12.3143 2.84478 12.294 2.59686C12.2746 2.35916 12.2417 2.27103 12.2197 2.22776C12.1357 2.06312 12.0019 1.92926 11.8373 1.84537C11.794 1.82332 11.7059 1.79036 11.4681 1.77094C11.2202 1.75068 10.8945 1.75 10.39 1.75H7.82222C7.31774 1.75 6.99199 1.75068 6.74408 1.77094C6.50637 1.79036 6.41824 1.82332 6.37498 1.84537C6.2243 1.92215 6.0994 2.04077 6.015 2.18655H4.20399C4.24161 1.93134 4.30825 1.67874 4.43333 1.43328C4.68499 0.939356 5.08657 0.537779 5.58049 0.286112C5.91158 0.117416 6.25564 0.0550152 6.60157 0.0267518C6.9293 -2.46102e-05 7.32728 -1.29319e-05 7.7885 6.05877e-07ZM3.7375 3.06154H3.70378C3.24252 3.06153 2.84461 3.06151 2.51686 3.08829C2.17093 3.11656 1.82686 3.17895 1.49578 3.34765C1.00186 3.59932 0.600278 4.00089 0.34861 4.49481C0.179916 4.8259 0.117514 5.16996 0.0892505 5.5159C0.0624729 5.84364 0.0624858 6.24154 0.0625007 6.70278V6.73655V10.3259V10.3596C0.0624858 10.8209 0.0624729 11.2187 0.0892505 11.5465C0.117514 11.8924 0.179916 12.2365 0.34861 12.5675C0.600278 13.0615 1.00186 13.4631 1.49578 13.7148C1.82686 13.8834 2.17093 13.9458 2.51685 13.9741C2.84461 14.0009 3.24253 14.0009 3.70379 14.0009H3.7375H6.30529H6.339C6.80026 14.0009 7.19818 14.0009 7.52594 13.9741C7.87187 13.9458 8.21593 13.8834 8.54702 13.7148C9.04096 13.4631 9.4425 13.0615 9.69415 12.5675C9.86285 12.2365 9.92532 11.8924 9.95359 11.5465C9.98036 11.2187 9.98027 10.8209 9.98027 10.3596V10.3259V6.73654V6.70283C9.98027 6.24158 9.98036 5.84364 9.95359 5.5159C9.92532 5.16996 9.86285 4.8259 9.69415 4.49481C9.4425 4.00089 9.04096 3.59932 8.54702 3.34765C8.21593 3.17895 7.87187 3.11656 7.52594 3.08829C7.19819 3.06151 6.80028 3.06153 6.33902 3.06154H6.30529H3.7375ZM2.29026 4.90691C2.33353 4.88487 2.42166 4.8519 2.65936 4.83248C2.90728 4.81222 3.23302 4.81154 3.7375 4.81154H6.30529C6.80978 4.81154 7.13552 4.81222 7.38344 4.83248C7.62114 4.8519 7.70927 4.88487 7.75253 4.90691C7.91718 4.9908 8.05104 5.12466 8.13492 5.2893C8.15697 5.33256 8.18994 5.4207 8.20935 5.6584C8.22962 5.90632 8.23029 6.23206 8.23029 6.73654V10.3259C8.23029 10.8303 8.22962 11.1561 8.20935 11.404C8.18994 11.6417 8.15697 11.7298 8.13492 11.773C8.05104 11.9377 7.91718 12.0716 7.75253 12.1555C7.70927 12.1776 7.62114 12.2105 7.38344 12.2299C7.13552 12.2502 6.80978 12.2509 6.30529 12.2509H3.7375C3.23302 12.2509 2.90728 12.2502 2.65936 12.2299C2.42166 12.2105 2.33353 12.1776 2.29026 12.1555C2.12562 12.0716 1.99176 11.9377 1.90787 11.773C1.88582 11.7298 1.85286 11.6417 1.83344 11.404C1.81318 11.1561 1.8125 10.8303 1.8125 10.3259V6.73655C1.8125 6.23206 1.81318 5.90632 1.83344 5.6584C1.85286 5.4207 1.88582 5.33256 1.90787 5.2893C1.99176 5.12466 2.12562 4.9908 2.29026 4.90691Z" fill="white"/>
</g>
<defs>
<clipPath id="clip0_1102_14696">
<rect width="14.875" height="14" fill="white" transform="translate(0.0625)"/>
</clipPath>
</defs>
</svg>
