<svg xmlns="http://www.w3.org/2000/svg" width="14" height="15" viewBox="0 0 14 15" fill="none">
  <path d="M6.97952 13.4608C6.82676 13.4608 6.682 13.3926 6.58461 13.2748L0.992851 6.5099C0.962659 6.47964 0.936147 6.44537 0.91414 6.40766C0.822418 6.24999 0.818487 6.05545 0.908628 5.89685L2.58567 2.94666C2.67674 2.78647 2.84676 2.6875 3.03103 2.6875H10.9277C11.1118 2.6875 11.2815 2.78623 11.3728 2.94617L13.0413 5.87367C13.0466 5.88235 13.0518 5.89126 13.0567 5.90035C13.1219 6.02201 13.1344 6.16259 13.0955 6.29085C13.0713 6.37241 13.0276 6.44595 12.9701 6.50572L7.37444 13.2749C7.27705 13.3926 7.13227 13.4608 6.97952 13.4608ZM1.97647 6.09163L6.97952 12.1443L11.9848 6.08929L10.63 3.71214H3.32914L1.97647 6.09163Z" fill="#404040"/>
  <path d="M12.2992 6.51878H1.65966C1.37673 6.51878 1.14734 6.28939 1.14734 6.00646C1.14734 5.72353 1.37673 5.49414 1.65966 5.49414H12.2992C12.5822 5.49414 12.8115 5.72353 12.8115 6.00646C12.8115 6.28938 12.5822 6.51878 12.2992 6.51878Z" fill="#404040"/>
  <path d="M6.73503 12.9065C6.51407 12.9065 6.31027 12.7625 6.24405 12.5399L4.40893 6.3654C4.32836 6.09422 4.48278 5.80897 4.75413 5.72842C5.02613 5.6477 5.31065 5.80254 5.39122 6.07354L7.22635 12.2481C7.3069 12.5192 7.15247 12.8045 6.88112 12.8851C6.83242 12.8996 6.78325 12.9065 6.73503 12.9065Z" fill="#404040"/>
  <path d="M4.83338 6.21849C4.77485 6.21849 4.7153 6.2084 4.65726 6.18712C4.39161 6.08982 4.25504 5.79555 4.35226 5.52987L5.23247 3.12537C5.32986 2.85962 5.62454 2.72328 5.88972 2.82034C6.1554 2.91766 6.29197 3.21193 6.19475 3.47759L5.31454 5.88211C5.23847 6.08965 5.04219 6.21849 4.83338 6.21849Z" fill="#404040"/>
  <path d="M7.22444 12.9065C7.17607 12.9065 7.12705 12.8996 7.07836 12.8851C6.80702 12.8045 6.65257 12.5192 6.73315 12.2481L8.56828 6.07353C8.64902 5.80227 8.93436 5.64777 9.20537 5.72841C9.47669 5.80896 9.63113 6.09421 9.55057 6.36539L7.71542 12.5399C7.6492 12.7625 7.44542 12.9065 7.22444 12.9065Z" fill="#404040"/>
  <path d="M9.12475 6.21848C8.91594 6.21848 8.71966 6.08973 8.6436 5.88212L7.76339 3.4776C7.66617 3.21193 7.80274 2.91767 8.06842 2.82035C8.3334 2.72329 8.62828 2.85954 8.72567 3.12538L9.60588 5.52988C9.7031 5.79556 9.56653 6.08981 9.30085 6.18713C9.24284 6.20839 9.18329 6.21848 9.12475 6.21848Z" fill="#404040"/>
</svg>