<svg xmlns="http://www.w3.org/2000/svg" width="16" height="16" viewBox="0 0 16 16" fill="none">
  <path fill-rule="evenodd" clip-rule="evenodd" d="M8 16C12.4183 16 16 12.4183 16 8C16 3.58172 12.4183 0 8 0C3.58172 0 0 3.58172 0 8C0 12.4183 3.58172 16 8 16ZM8.6 3.2C8.6 2.86863 8.33137 2.6 8 2.6C7.66863 2.6 7.4 2.86863 7.4 3.2V3.45339C6.09565 3.68694 5 4.66689 5 6C5 7.53372 6.45022 8.6 8 8.6C9.10119 8.6 9.8 9.32458 9.8 10C9.8 10.6754 9.10119 11.4 8 11.4C6.89881 11.4 6.2 10.6754 6.2 10C6.2 9.66863 5.93137 9.4 5.6 9.4C5.26863 9.4 5 9.66863 5 10C5 11.3331 6.09565 12.3131 7.4 12.5466V12.8C7.4 13.1314 7.66863 13.4 8 13.4C8.33137 13.4 8.6 13.1314 8.6 12.8V12.5466C9.90435 12.3131 11 11.3331 11 10C11 8.46628 9.54978 7.4 8 7.4C6.89881 7.4 6.2 6.67542 6.2 6C6.2 5.32458 6.89881 4.6 8 4.6C9.10119 4.6 9.8 5.32458 9.8 6C9.8 6.33137 10.0686 6.6 10.4 6.6C10.7314 6.6 11 6.33137 11 6C11 4.66689 9.90435 3.68694 8.6 3.45339V3.2Z" fill="#A5A5A5"/>
</svg>