<svg xmlns="http://www.w3.org/2000/svg" width="32" height="33" viewBox="0 0 32 33" fill="none">
  <path d="M15.9479 30.1246C15.5987 30.1246 15.2678 29.9687 15.0452 29.6996L2.26407 14.2369C2.19506 14.1678 2.13446 14.0894 2.08416 14.0032C1.87451 13.6428 1.86553 13.1982 2.07156 12.8357L5.9048 6.09237C6.11295 5.72621 6.50158 5.5 6.92277 5.5H24.9722C25.393 5.5 25.7811 5.72567 25.9896 6.09125L29.8034 12.7827C29.8156 12.8025 29.8274 12.8229 29.8385 12.8437C29.9875 13.1217 30.0162 13.4431 29.9273 13.7362C29.872 13.9226 29.7721 14.0908 29.6406 14.2274L16.8506 29.6998C16.628 29.9687 16.297 30.1246 15.9479 30.1246ZM4.51234 13.2809L15.9479 27.1157L27.3886 13.2755L24.2918 7.84203H7.60416L4.51234 13.2809Z" fill="#404040"/>
  <path d="M28.1071 14.2561H3.7882C3.1415 14.2561 2.61719 13.7318 2.61719 13.0851C2.61719 12.4384 3.1415 11.9141 3.7882 11.9141H28.1071C28.754 11.9141 29.2781 12.4384 29.2781 13.0851C29.2781 13.7317 28.7539 14.2561 28.1071 14.2561Z" fill="#404040"/>
  <path d="M15.3891 28.8583C14.884 28.8583 14.4182 28.5291 14.2668 28.0204L10.0722 13.9072C9.88809 13.2873 10.2411 12.6353 10.8613 12.4512C11.483 12.2667 12.1333 12.6207 12.3175 13.2401L16.5121 27.3533C16.6962 27.9731 16.3432 28.6252 15.723 28.8093C15.6117 28.8425 15.4993 28.8583 15.3891 28.8583Z" fill="#404040"/>
  <path d="M11.0424 13.5731C10.9087 13.5731 10.7725 13.55 10.6399 13.5014C10.0327 13.279 9.7205 12.6064 9.94272 11.9991L11.9546 6.50307C12.1772 5.89564 12.8508 5.58401 13.4569 5.80588C14.0642 6.02832 14.3763 6.70092 14.1541 7.30815L12.1422 12.8042C11.9683 13.2786 11.5197 13.5731 11.0424 13.5731Z" fill="#404040"/>
  <path d="M16.5077 28.8582C16.3971 28.8582 16.2851 28.8424 16.1738 28.8092C15.5536 28.6251 15.2006 27.9731 15.3847 27.3533L19.5793 13.2401C19.7639 12.62 20.4161 12.2669 21.0355 12.4512C21.6557 12.6353 22.0087 13.2873 21.8246 13.9072L17.6299 28.0204C17.4786 28.5291 17.0128 28.8582 16.5077 28.8582Z" fill="#404040"/>
  <path d="M20.8513 13.573C20.374 13.573 19.9253 13.2788 19.7515 12.8042L17.7396 7.30818C17.5174 6.70094 17.8295 6.02834 18.4368 5.8059C19.0425 5.58403 19.7165 5.89547 19.9391 6.50309L21.951 11.9991C22.1732 12.6064 21.8611 13.2789 21.2538 13.5014C21.1212 13.55 20.9851 13.573 20.8513 13.573Z" fill="#404040"/>
</svg>