<svg xmlns="http://www.w3.org/2000/svg" width="16" height="16" viewBox="0 0 16 16" fill="none">
  <path d="M8.01309 15.9975L0 6.40179L2.68918 5.03906L4.05882 6.40179L7.40062 9.04705L8.01309 15.9975Z" fill="#BDBDBD"/>
  <path d="M16.0255 6.40255L8.01245 15.9982L9.03349 9.22078L11.9667 6.40255L13.6553 5.16797L16.0255 6.40255Z" fill="#9B9DA2"/>
  <path d="M4.05882 0.839844L5.29778 3.00369L4.05882 6.40206H0L4.05882 0.839844Z" fill="#F3F3F3"/>
  <path d="M16.0261 6.40206H11.9673L10.8345 3.05694L11.9673 0.839844L16.0261 6.40206Z" fill="#E7E7E7"/>
  <path d="M4.05933 6.40206L6.43399 7.98133L8.0136 6.40206L9.47737 4.76936L8.0136 0.839844L5.13859 2.7464L4.05933 6.40206Z" fill="#F3F3F3"/>
  <path d="M8.01245 0.839844V6.40206L9.47622 7.71514L11.9667 6.40206L11.2064 3.04805L8.01245 0.839844Z" fill="#E7E7E7"/>
  <path d="M11.9667 0.839844V6.40206L8.01245 0.839844H11.9667Z" fill="#BDBDBD"/>
  <path d="M8.0136 0.839844L4.05933 6.40206V0.839844H8.0136Z" fill="#E7E7E7"/>
  <path d="M4.05933 6.40234L8.0136 15.998L9.62821 9.63106L8.0136 6.40234H4.05933Z" fill="#E7E7E7"/>
  <path d="M8.01245 6.40234V15.998L11.9667 6.40234H8.01245Z" fill="#BDBDBD"/>
</svg>