<svg width="22" height="22" viewBox="0 0 22 22" fill="none" xmlns="http://www.w3.org/2000/svg">
<g id="Frame 36846">
<g id="Group">
<path id="Vector" d="M11.3199 19.6988L2.49707 9.13354L5.45798 7.63312L6.96602 9.13354L10.6455 12.0461L11.3199 19.6988Z" fill="#FF9600"/>
<path id="Vector_2" d="M20.1421 9.13313L11.3193 19.6984L12.4436 12.2361L15.6732 9.13313L17.5324 7.7738L20.1421 9.13313Z" fill="#FF7300"/>
<path id="Vector_3" d="M6.96602 3.00916L8.33018 5.39165L6.96602 9.13341H2.49707L6.96602 3.00916Z" fill="#FFE566"/>
<path id="Vector_4" d="M20.143 9.13329H15.6741L14.4268 5.45015L15.6741 3.00903L20.143 9.13329Z" fill="#FFBF2A"/>
<g id="Group_2">
<path id="Vector_5" d="M6.96582 9.13341L9.58043 10.8723L11.3197 9.13341L12.9313 7.33573L11.3197 3.00916L8.15414 5.10836L6.96582 9.13341Z" fill="#FFE566"/>
<path id="Vector_6" d="M11.3193 3.00903V9.13329L12.931 10.5791L15.6732 9.13329L14.836 5.44037L11.3193 3.00903Z" fill="#FFBF2A"/>
</g>
<path id="Vector_7" d="M15.6729 3.00909V9.13335L11.3191 3.00909H15.6729Z" fill="#FF9600"/>
<path id="Vector_8" d="M11.3236 3.00909L6.96973 9.13335V3.00909H11.3236Z" fill="#FFBF2A"/>
<g id="Group_3">
<path id="Vector_9" d="M6.96582 9.13416L11.3197 19.6994L13.0974 12.6891L11.3197 9.13416H6.96582Z" fill="#FFBF2A"/>
<path id="Vector_10" d="M11.3193 9.13428V19.6996L15.6732 9.13428H11.3193Z" fill="#FF9600"/>
</g>
</g>
</g>
</svg>
