<svg width="24" height="25" viewBox="0 0 24 25" fill="none" xmlns="http://www.w3.org/2000/svg">
<g id="fi_5968756" clip-path="url(#clip0_164_66256)">
<g id="Group">
<path id="Vector" d="M20.3169 4.8697C18.7872 4.16784 17.1469 3.65072 15.4318 3.35451C15.4005 3.3488 15.3693 3.36309 15.3532 3.39164C15.1423 3.76687 14.9086 4.25634 14.7449 4.64109C12.9003 4.3649 11.065 4.3649 9.25818 4.64109C9.09449 4.24781 8.85234 3.76687 8.64042 3.39164C8.62434 3.36403 8.59312 3.34973 8.5619 3.35451C6.84777 3.64973 5.20743 4.16686 3.67677 4.8697C3.66351 4.87542 3.65216 4.88494 3.64462 4.89731C0.533243 9.54567 -0.319132 14.0798 0.0989928 18.5577C0.100868 18.5796 0.113196 18.6005 0.130212 18.6139C2.18301 20.1214 4.17154 21.0366 6.12309 21.6433C6.15431 21.6528 6.1874 21.6414 6.20727 21.6157C6.6689 20.9852 7.08041 20.3205 7.43324 19.6215C7.45406 19.5805 7.43418 19.5319 7.39162 19.5157C6.73888 19.2682 6.11737 18.9662 5.51948 18.6234C5.47218 18.5958 5.46838 18.5282 5.51193 18.4958C5.63774 18.4015 5.7636 18.3034 5.88374 18.2044C5.90549 18.1863 5.93577 18.1825 5.96132 18.1939C9.88907 19.9872 14.1413 19.9872 18.0227 18.1939C18.0483 18.1815 18.0786 18.1853 18.1012 18.2034C18.2214 18.3024 18.3472 18.4015 18.474 18.4957C18.5175 18.5281 18.5146 18.5958 18.4674 18.6234C17.8695 18.9729 17.248 19.2681 16.5943 19.5148C16.5517 19.5309 16.5328 19.5805 16.5537 19.6214C16.9141 20.3195 17.3256 20.9842 17.7787 21.6147C17.7976 21.6413 17.8317 21.6528 17.8629 21.6432C19.8239 21.0366 21.8124 20.1214 23.8652 18.6138C23.8832 18.6005 23.8946 18.5805 23.8964 18.5586C24.3969 13.3817 23.0583 8.88473 20.348 4.89825C20.3414 4.88494 20.3301 4.87542 20.3169 4.8697ZM8.01988 15.8311C6.83737 15.8311 5.86298 14.7455 5.86298 13.4122C5.86298 12.0789 6.81843 10.9932 8.01988 10.9932C9.23071 10.9932 10.1957 12.0884 10.1767 13.4122C10.1767 14.7455 9.22124 15.8311 8.01988 15.8311ZM15.9946 15.8311C14.8121 15.8311 13.8377 14.7455 13.8377 13.4122C13.8377 12.0789 14.7932 10.9932 15.9946 10.9932C17.2055 10.9932 18.1704 12.0884 18.1515 13.4122C18.1515 14.7455 17.2055 15.8311 15.9946 15.8311Z" fill="white"/>
</g>
</g>
<defs>
<clipPath id="clip0_164_66256">
<rect width="24" height="24" fill="white" transform="translate(0 0.5)"/>
</clipPath>
</defs>
</svg>
