<svg xmlns="http://www.w3.org/2000/svg" width="20" height="20" viewBox="0 0 20 20" fill="none">
  <rect width="20" height="20" rx="10" fill="#A5A5A5"/>
  <path d="M10.559 9.20411V6.37766C11.1636 6.47965 11.7338 6.72776 12.2212 7.10033C12.3183 7.16697 12.4323 7.20312 12.5504 7.20471C12.9286 7.20471 13.2369 6.90038 13.2409 6.52219C13.2417 6.36 13.1783 6.20422 13.0643 6.08859C12.3601 5.48556 11.4768 5.12985 10.551 5.07685V4.12934C10.551 3.85873 10.3318 3.63952 10.0612 3.63952C10.0556 3.63873 10.0499 3.63873 10.0443 3.63873C9.76968 3.6347 9.54325 3.85393 9.53922 4.12934V5.04473C7.73254 5.1732 6.50401 6.28934 6.50401 7.77482C6.50401 9.59755 8.05374 10.1034 9.53922 10.5049V13.7168C8.75551 13.6116 8.0168 13.2864 7.41135 12.7773C7.29733 12.6866 7.15599 12.636 7.00985 12.6328C6.63969 12.6585 6.35464 12.9684 6.35943 13.3394C6.35864 13.5016 6.42207 13.6574 6.53608 13.773C7.36556 14.5198 8.43191 14.9494 9.54722 14.9855V15.8688C9.54722 15.8744 9.54802 15.88 9.54802 15.8856C9.56086 16.1603 9.79453 16.3722 10.0691 16.3586C10.3398 16.3586 10.559 16.1394 10.559 15.8688V14.9695C12.7511 14.8249 13.6343 13.492 13.6343 12.0788C13.6344 10.1837 12.0445 9.6056 10.559 9.20411ZM9.54727 8.94716C8.67203 8.69021 7.98952 8.42524 7.98952 7.67847C7.98952 6.93171 8.60781 6.39371 9.54727 6.32147V8.94716ZM10.559 13.7329V10.8101C11.4664 11.067 12.173 11.4123 12.1649 12.2554C12.1649 12.8657 11.7474 13.5883 10.559 13.7329Z" fill="#404040"/>
</svg>