<svg width="20" height="20" viewBox="0 0 20 20" fill="none" xmlns="http://www.w3.org/2000/svg">
<g clip-path="url(#clip0_1777_60560)">
<path d="M12.5002 10.8332C12.0394 10.8332 11.667 11.2065 11.667 11.6664V14.9998C11.667 15.459 11.2936 15.8331 10.8335 15.8331H8.33356V3.33325C8.33356 2.62159 7.88023 1.98576 7.19862 1.7491L6.95189 1.66655H10.8335C11.2936 1.66655 11.667 2.04069 11.667 2.49997V4.99995C11.667 5.45984 12.0394 5.83322 12.5002 5.83322C12.961 5.83322 13.3335 5.45984 13.3335 4.99995V2.49997C13.3335 1.12166 12.2118 0 10.8335 0H1.87535C1.84361 0 1.81706 0.0141905 1.78624 0.0183103C1.74611 0.0149535 1.70781 0 1.66707 0C0.747886 0 0.000366211 0.747368 0.000366211 1.66655V16.6664C0.000366211 17.3781 0.4537 18.0139 1.1353 18.2505L6.15036 19.9223C6.32034 19.9748 6.4894 19.9998 6.66701 19.9998C7.58619 19.9998 8.33356 19.2523 8.33356 18.3331V17.4998H10.8335C12.2118 17.4998 13.3335 16.3782 13.3335 14.9998V11.6664C13.3335 11.2065 12.961 10.8332 12.5002 10.8332Z" fill="white"/>
<path d="M19.756 7.74414L16.4226 4.41089C16.1844 4.17255 15.826 4.10084 15.5144 4.22993C15.2036 4.35917 15.0002 4.66327 15.0002 5.00003V7.5H11.6669C11.2069 7.5 10.8335 7.87323 10.8335 8.33328C10.8335 8.79333 11.2069 9.16655 11.6669 9.16655H15.0002V11.6665C15.0002 12.0033 15.2036 12.3074 15.5144 12.4366C15.826 12.5657 16.1844 12.494 16.4226 12.2558L19.756 8.92241C20.0818 8.59664 20.0818 8.06991 19.756 7.74414Z" fill="white"/>
</g>
<defs>
<clipPath id="clip0_1777_60560">
<rect width="20" height="20" fill="white"/>
</clipPath>
</defs>
</svg>
