<svg width="20" height="20" viewBox="0 0 20 20" fill="none" xmlns="http://www.w3.org/2000/svg">
<g id="Linear / Arrows Action / Exit">
<path id="Vector" d="M7.5 3.75H6.66667C4.70248 3.75 3.72039 3.75 3.11019 4.36019C2.5 4.97039 2.5 5.95248 2.5 7.91667V12.0833C2.5 14.0475 2.5 15.0296 3.11019 15.6398C3.72039 16.25 4.70248 16.25 6.66667 16.25H7.5" stroke="#A5A5A5" stroke-width="1.25"/>
<path id="Vector_2" d="M7.5 5.39635C7.5 3.48484 7.5 2.52909 8.08938 2.0066C8.67875 1.4841 9.57961 1.64123 11.3813 1.95548L13.322 2.29396C15.3174 2.64199 16.3151 2.81601 16.9075 3.5479C17.5 4.27978 17.5 5.33828 17.5 7.45527V12.5434C17.5 14.6604 17.5 15.7189 16.9075 16.4508C16.3151 17.1827 15.3174 17.3567 13.322 17.7047L11.3813 18.0432C9.57961 18.3575 8.67875 18.5146 8.08938 17.9921C7.5 17.4696 7.5 16.5139 7.5 14.6023V5.39635Z" stroke="#A5A5A5" stroke-width="1.25"/>
<path id="Vector_3" d="M10 9.16602V10.8327" stroke="#A5A5A5" stroke-width="1.25" stroke-linecap="round"/>
</g>
</svg>
