<svg width="21" height="21" viewBox="0 0 21 21" fill="none" xmlns="http://www.w3.org/2000/svg">
<g id="Linear / Text Formatting / Eraser">
<path id="Vector" d="M5.08755 10.008L5.52949 10.4499L5.08755 10.008ZM3 12.9602H2.375H3ZM8.0398 18V18.625V18ZM10.008 5.08755L9.56602 4.64561L10.008 5.08755ZM11.5342 15.3703C11.7783 15.6144 12.174 15.6144 12.4181 15.3703C12.6621 15.1262 12.6621 14.7305 12.4181 14.4864L11.5342 15.3703ZM6.51358 8.58194C6.2695 8.33786 5.87377 8.33786 5.62969 8.58194C5.38561 8.82601 5.38561 9.22174 5.62969 9.46582L6.51358 8.58194ZM15.4705 10.5501L10.5501 15.4705L11.434 16.3544L16.3544 11.434L15.4705 10.5501ZM5.52949 10.4499L10.4499 5.52949L9.56602 4.64561L4.64561 9.56602L5.52949 10.4499ZM5.52949 15.4705C4.82115 14.7622 4.33529 14.2744 4.01878 13.8596C3.71327 13.4592 3.625 13.201 3.625 12.9602H2.375C2.375 13.5841 2.63466 14.1062 3.025 14.6178C3.40434 15.115 3.96225 15.671 4.64561 16.3544L5.52949 15.4705ZM4.64561 9.56602C3.96225 10.2494 3.40434 10.8054 3.025 11.3026C2.63466 11.8142 2.375 12.3363 2.375 12.9602H3.625C3.625 12.7195 3.71327 12.4612 4.01878 12.0608C4.33529 11.646 4.82115 11.1582 5.52949 10.4499L4.64561 9.56602ZM10.5501 15.4705C9.84175 16.1789 9.35402 16.6647 8.93918 16.9812C8.53876 17.2867 8.28054 17.375 8.0398 17.375V18.625C8.66374 18.625 9.1858 18.3653 9.6974 17.975C10.1946 17.5957 10.7506 17.0377 11.434 16.3544L10.5501 15.4705ZM4.64561 16.3544C5.32897 17.0377 5.88501 17.5957 6.38219 17.975C6.8938 18.3653 7.41585 18.625 8.0398 18.625V17.375C7.79905 17.375 7.54083 17.2867 7.14042 16.9812C6.72558 16.6647 6.23784 16.1789 5.52949 15.4705L4.64561 16.3544ZM15.4705 5.52949C16.1789 6.23784 16.6647 6.72558 16.9812 7.14042C17.2867 7.54083 17.375 7.79905 17.375 8.0398H18.625C18.625 7.41585 18.3653 6.8938 17.975 6.38219C17.5957 5.88501 17.0377 5.32897 16.3544 4.64561L15.4705 5.52949ZM16.3544 11.434C17.0377 10.7506 17.5957 10.1946 17.975 9.6974C18.3653 9.1858 18.625 8.66374 18.625 8.0398H17.375C17.375 8.28054 17.2867 8.53876 16.9812 8.93918C16.6647 9.35402 16.1789 9.84175 15.4705 10.5501L16.3544 11.434ZM16.3544 4.64561C15.671 3.96225 15.115 3.40434 14.6178 3.025C14.1062 2.63466 13.5841 2.375 12.9602 2.375V3.625C13.201 3.625 13.4592 3.71327 13.8596 4.01878C14.2744 4.33529 14.7622 4.82115 15.4705 5.52949L16.3544 4.64561ZM10.4499 5.52949C11.1582 4.82115 11.646 4.33529 12.0608 4.01878C12.4612 3.71327 12.7195 3.625 12.9602 3.625V2.375C12.3363 2.375 11.8142 2.63466 11.3026 3.025C10.8054 3.40434 10.2494 3.96225 9.56602 4.64561L10.4499 5.52949ZM12.4181 14.4864L6.51358 8.58194L5.62969 9.46582L11.5342 15.3703L12.4181 14.4864Z" fill="white"/>
<path id="Vector_2" d="M8 18H18" stroke="white" strokeWidth="1.25" stroke-linecap="round"/>
</g>
</svg>
