<svg width="24" height="25" viewBox="0 0 24 25" fill="none" xmlns="http://www.w3.org/2000/svg">
<g id="fi_3128304">
<g id="_x30_1._Facebook">
<path id="Icon_11_" d="M9.70369 13.7404C9.62833 13.7404 8.04745 13.7409 7.31833 13.7401C6.94297 13.7399 6.80905 13.605 6.80905 13.2273C6.80857 12.2569 6.80833 11.2866 6.80905 10.3163C6.80929 9.94334 6.95089 9.80102 7.32145 9.80078C8.05057 9.8003 9.62281 9.80054 9.70369 9.80054C9.70369 9.73406 9.70345 8.33318 9.70369 7.68806C9.70417 6.7343 9.87433 5.82134 10.3589 4.98542C10.855 4.12982 11.5769 3.54374 12.5021 3.20486C13.0946 2.98766 13.7098 2.90102 14.3386 2.90054C15.1253 2.90006 15.912 2.90078 16.699 2.90222C17.0371 2.9027 17.1871 3.05222 17.1878 3.39278C17.1893 4.3055 17.1893 5.21822 17.1878 6.1307C17.1874 6.47486 17.0436 6.6131 16.6978 6.61694C16.0529 6.6239 15.4075 6.61958 14.7634 6.6455C14.1127 6.6455 13.7705 6.96326 13.7705 7.6367C13.7549 8.34902 13.764 9.06206 13.764 9.8003C13.825 9.8003 15.6766 9.80006 16.542 9.8003C16.9351 9.8003 17.0695 9.93542 17.0695 10.3307C17.0695 11.2957 17.0693 12.261 17.0686 13.2261C17.0683 13.6156 16.9421 13.7399 16.5466 13.7401C15.6811 13.7406 13.8367 13.7404 13.7561 13.7404V21.5512C13.7561 21.9676 13.625 22.1003 13.2142 22.1003C12.2124 22.1003 11.2104 22.1005 10.2086 22.1003C9.84553 22.1003 9.70393 21.9592 9.70393 21.5961C9.70369 19.0523 9.70369 13.8297 9.70369 13.7404Z" fill="#3D6AD6"/>
</g>
</g>
</svg>
