<svg width="45" height="45" viewBox="0 0 45 45" fill="none" xmlns="http://www.w3.org/2000/svg">
<g id="fi_3670144" clip-path="url(#clip0_637_104)">
<g id="Layer 2">
<g id="Color">
<g id="01.Facebook">
<path id="Background" d="M22.5 45C34.9264 45 45 34.9264 45 22.5C45 10.0736 34.9264 0 22.5 0C10.0736 0 0 10.0736 0 22.5C0 34.9264 10.0736 45 22.5 45Z" fill="#1D1D1D"/>
<path id="Icon" d="M19.4712 24.372H16.8356C16.4219 24.372 16.2734 24.2222 16.2734 23.8096C16.2734 22.746 16.2734 21.6833 16.2734 20.6215C16.2734 20.2115 16.4299 20.0564 16.8382 20.0564H19.4712V17.7567C19.4399 16.7237 19.69 15.7014 20.195 14.7973C20.7201 13.8845 21.5614 13.1915 22.5628 12.8471C23.2127 12.6127 23.8997 12.4952 24.5912 12.5002H27.1977C27.5715 12.5002 27.728 12.6631 27.728 13.0258V16.0247C27.728 16.4005 27.5689 16.5503 27.1977 16.5503C26.4844 16.5503 25.7712 16.5503 25.0606 16.5792C24.35 16.6081 23.9628 16.9288 23.9628 17.6647C23.9469 18.4532 23.9628 19.2259 23.9628 20.0301H27.0253C27.4602 20.0301 27.6087 20.1773 27.6087 20.611C27.6087 21.6623 27.6087 22.7189 27.6087 23.7807C27.6087 24.2091 27.4708 24.3431 27.0333 24.3457H23.9469V32.8981C23.9469 33.3554 23.8037 33.5 23.3477 33.5H20.028C19.6276 33.5 19.4712 33.3449 19.4712 32.9481V24.372Z" fill="#4A6EA9"/>
</g>
</g>
</g>
</g>
<defs>
<clipPath id="clip0_637_104">
<rect width="45" height="45" fill="white"/>
</clipPath>
</defs>
</svg>
