<svg width="24" height="25" viewBox="0 0 24 25" fill="none" xmlns="http://www.w3.org/2000/svg">
<g id="fi_281764" clip-path="url(#clip0_164_66249)">
<path id="Vector" d="M5.31891 15.0027L4.4835 18.1213L1.43011 18.1859C0.517594 16.4934 0 14.557 0 12.4992C0 10.5093 0.483938 8.63277 1.34175 6.98047H1.34241L4.06078 7.47884L5.25159 10.1809C5.00236 10.9075 4.86652 11.6875 4.86652 12.4992C4.86661 13.38 5.02617 14.224 5.31891 15.0027Z" fill="#FBBB00"/>
<path id="Vector_2" d="M23.7903 10.2578C23.9281 10.9837 24 11.7334 24 12.4996C24 13.3587 23.9097 14.1967 23.7376 15.0051C23.1534 17.7558 21.627 20.1578 19.5125 21.8576L19.5119 21.8569L16.088 21.6822L15.6034 18.6572C17.0064 17.8343 18.1029 16.5466 18.6805 15.0051H12.2638V10.2578H18.7741H23.7903Z" fill="#518EF8"/>
<path id="Vector_3" d="M19.5114 21.8577L19.5121 21.8584C17.4556 23.5113 14.8433 24.5004 11.9996 24.5004C7.42969 24.5004 3.45652 21.9461 1.42969 18.1872L5.31848 15.0039C6.33187 17.7085 8.94089 19.6338 11.9996 19.6338C13.3143 19.6338 14.546 19.2784 15.6029 18.658L19.5114 21.8577Z" fill="#28B446"/>
<path id="Vector_4" d="M19.6595 3.26262L15.772 6.44525C14.6782 5.76153 13.3852 5.36656 12 5.36656C8.87203 5.36656 6.21422 7.38017 5.2516 10.1818L1.34236 6.98131H1.34171C3.33886 3.13077 7.36214 0.5 12 0.5C14.9116 0.5 17.5813 1.53716 19.6595 3.26262Z" fill="#F14336"/>
</g>
<defs>
<clipPath id="clip0_164_66249">
<rect width="24" height="24" fill="white" transform="translate(0 0.5)"/>
</clipPath>
</defs>
</svg>
