<svg width="20" height="20" viewBox="0 0 20 20" fill="none" xmlns="http://www.w3.org/2000/svg">
<g id="fi_15948640">
<path id="Vector" fill-rule="evenodd" clip-rule="evenodd" d="M3.74156 4.80645C3.17667 5.05697 2.8125 5.61686 2.8125 6.2348V9.13141C2.8125 13.2895 5.65505 16.9086 9.69467 17.8939C9.89528 17.943 10.1047 17.943 10.3053 17.8939C14.345 16.9086 17.1875 13.2895 17.1875 9.13141V6.2348C17.1875 5.61686 16.8233 5.05697 16.2584 4.80645L10.6334 2.31189C10.2301 2.13302 9.76991 2.13302 9.36656 2.31189L3.74156 4.80645ZM11.5625 8.74972C11.5625 9.32806 11.2483 9.83302 10.7812 10.1032V11.8747C10.7812 12.3062 10.4315 12.656 10 12.656C9.56853 12.656 9.21875 12.3062 9.21875 11.8747V10.1032C8.75172 9.83302 8.4375 9.32806 8.4375 8.74972C8.4375 7.88678 9.13706 7.18722 10 7.18722C10.8629 7.18722 11.5625 7.88678 11.5625 8.74972Z" fill="url(#paint0_linear_947_12297)"/>
</g>
<defs>
<linearGradient id="paint0_linear_947_12297" x1="17.1875" y1="1.19317" x2="1.41308" y2="16.4874" gradientUnits="userSpaceOnUse">
<stop stop-color="#4E9F0D"/>
<stop offset="1" stop-color="#0BBC87"/>
</linearGradient>
</defs>
</svg>
