<svg width="22" height="16" viewBox="0 0 22 16" fill="none" xmlns="http://www.w3.org/2000/svg">
<g id="11 hanger">
<path id="Vector" d="M19.8545 10.3956L12.125 7.4226V6.9981C12.1212 6.93563 12.1344 6.87328 12.1634 6.81778C12.1923 6.76228 12.2358 6.71571 12.2892 6.6831C13.0035 6.3897 13.5952 5.85982 13.9653 5.1822C14.3355 4.50458 14.4616 3.72035 14.3225 2.96085C14.2172 2.37895 13.9609 1.83492 13.5792 1.38326C13.1975 0.931603 12.7038 0.588163 12.1476 0.387341C11.5914 0.18652 10.9921 0.135365 10.4099 0.239002C9.82774 0.342639 9.28299 0.597429 8.83025 0.977854C8.03375 1.6476 6.97625 3.5406 8.02475 4.42785C8.24141 4.60614 8.5164 4.6979 8.7967 4.68543C9.07701 4.67297 9.34277 4.55717 9.54275 4.36035C10.0183 3.88485 9.74525 3.1521 10.2778 2.7051C10.4022 2.60106 10.5476 2.52514 10.7041 2.48255C10.8605 2.43997 11.0244 2.43171 11.1844 2.45836C11.3443 2.48501 11.4967 2.54594 11.6309 2.63696C11.7651 2.72798 11.8781 2.84694 11.962 2.9857C12.046 3.12445 12.0989 3.27972 12.1173 3.44085C12.1356 3.60199 12.1189 3.76519 12.0683 3.91926C12.0176 4.07333 11.9343 4.21464 11.824 4.33349C11.7136 4.45234 11.5789 4.54594 11.429 4.60785C10.9622 4.80735 10.5653 5.14109 10.2886 5.56669C10.0119 5.99228 9.86791 6.49052 9.875 6.9981V7.4226L2.1455 10.3956C1.66243 10.5838 1.24715 10.9129 0.953681 11.3403C0.660212 11.7677 0.502132 12.2734 0.5 12.7919V13.2419C0.500794 13.9225 0.771526 14.575 1.25281 15.0563C1.73409 15.5376 2.38662 15.8083 3.06725 15.8091H18.9328C19.6131 15.8083 20.2654 15.5378 20.7467 15.0568C21.2279 14.5759 21.4988 13.9237 21.5 13.2434V12.7934C21.4982 12.2747 21.3402 11.7686 21.0467 11.3409C20.7533 10.9132 20.3378 10.5839 19.8545 10.3956ZM19.25 13.2434C19.25 13.3275 19.2166 13.4082 19.1571 13.4677C19.0976 13.5272 19.0169 13.5606 18.9328 13.5606H3.06725C2.98311 13.5606 2.90242 13.5272 2.84292 13.4677C2.78342 13.4082 2.75 13.3275 2.75 13.2434V12.7934C2.75017 12.7293 2.76965 12.6667 2.80591 12.6139C2.84217 12.561 2.89352 12.5203 2.95325 12.4971L10.886 9.4461C10.9584 9.4184 11.0386 9.4184 11.111 9.4461L19.0438 12.4971C19.1035 12.5203 19.1548 12.561 19.1911 12.6139C19.2273 12.6667 19.2468 12.7293 19.247 12.7934L19.25 13.2434Z" fill="#0F0F0F"/>
</g>
</svg>
