<svg width="25" height="24" viewBox="0 0 25 24" fill="none" xmlns="http://www.w3.org/2000/svg">
<g id="fi_4460328">
<g id="11 hanger">
<path id="Vector" d="M21.3545 14.3963L13.625 11.4233V10.9988C13.6212 10.9364 13.6344 10.874 13.6634 10.8185C13.6923 10.763 13.7358 10.7164 13.7892 10.6838C14.5035 10.3904 15.0952 9.86055 15.4653 9.18293C15.8355 8.50531 15.9616 7.72109 15.8225 6.96159C15.7172 6.37968 15.4609 5.83566 15.0792 5.384C14.6975 4.93234 14.2038 4.5889 13.6476 4.38807C13.0914 4.18725 12.4921 4.1361 11.9099 4.23973C11.3277 4.34337 10.783 4.59816 10.3302 4.97859C9.53375 5.64834 8.47625 7.54134 9.52475 8.42859C9.74141 8.60687 10.0164 8.69863 10.2967 8.68616C10.577 8.6737 10.8428 8.5579 11.0428 8.36109C11.5183 7.88559 11.2452 7.15284 11.7778 6.70584C11.9022 6.60179 12.0476 6.52587 12.2041 6.48329C12.3605 6.4407 12.5244 6.43245 12.6844 6.4591C12.8443 6.48575 12.9967 6.54667 13.1309 6.63769C13.2651 6.72871 13.3781 6.84767 13.462 6.98643C13.546 7.12518 13.5989 7.28045 13.6173 7.44159C13.6356 7.60272 13.6189 7.76592 13.5683 7.91999C13.5176 8.07406 13.4343 8.21537 13.324 8.33422C13.2136 8.45308 13.0789 8.54667 12.929 8.60859C12.4622 8.80808 12.0653 9.14182 11.7886 9.56742C11.5119 9.99301 11.3679 10.4913 11.375 10.9988V11.4233L3.6455 14.3963C3.16243 14.5845 2.74715 14.9137 2.45368 15.341C2.16021 15.7684 2.00213 16.2742 2 16.7926V17.2426C2.00079 17.9232 2.27153 18.5757 2.75281 19.057C3.23409 19.5383 3.88662 19.809 4.56725 19.8098H20.4328C21.1131 19.809 21.7654 19.5385 22.2467 19.0576C22.7279 18.5766 22.9988 17.9245 23 17.2441V16.7941C22.9982 16.2754 22.8402 15.7693 22.5467 15.3416C22.2533 14.914 21.8378 14.5846 21.3545 14.3963ZM20.75 17.2441C20.75 17.3282 20.7166 17.4089 20.6571 17.4684C20.5976 17.5279 20.5169 17.5613 20.4328 17.5613H4.56725C4.48311 17.5613 4.40242 17.5279 4.34292 17.4684C4.28342 17.4089 4.25 17.3282 4.25 17.2441V16.7941C4.25017 16.73 4.26965 16.6674 4.30591 16.6146C4.34217 16.5617 4.39352 16.5211 4.45325 16.4978L12.386 13.4468C12.4584 13.4191 12.5386 13.4191 12.611 13.4468L20.5438 16.4978C20.6035 16.5211 20.6548 16.5617 20.6911 16.6146C20.7273 16.6674 20.7468 16.73 20.747 16.7941L20.75 17.2441Z" fill="#6B6B6B"/>
</g>
</g>
</svg>
