<svg width="24" height="24" viewBox="0 0 24 24" fill="none" xmlns="http://www.w3.org/2000/svg">
<path d="M7.00244 3.99727L5.00244 5.59727C3.89986 6.47933 3.34857 6.92037 2.95174 7.46779C2.6002 7.95275 2.33865 8.49693 2.17957 9.07439C2 9.72623 2 10.4322 2 11.8442V13.9992C2 16.7995 2 18.1996 2.54497 19.2692C3.02433 20.21 3.78924 20.9749 4.73005 21.4542C5.79961 21.9992 7.19974 21.9992 10 21.9992H14C16.8003 21.9992 18.2004 21.9992 19.27 21.4542C20.2108 20.9749 20.9757 20.21 21.455 19.2692C22 18.1996 22 16.7995 22 13.9992V11.8442C22 10.4322 22 9.72623 21.8204 9.07439C21.6613 8.49693 21.3998 7.95275 21.0483 7.46779C20.6514 6.92037 20.1001 6.47933 18.9976 5.59727L16.9976 3.99727C15.214 2.5704 14.3222 1.85696 13.3332 1.58335C12.4608 1.34201 11.5392 1.34201 10.6668 1.58335C9.67783 1.85696 8.78603 2.5704 7.00244 3.99727Z" stroke="#A5A5A5" stroke-width="1.5" stroke-linecap="round" stroke-linejoin="round"/>
<path d="M15 22V15C15 14.0681 15 13.6022 14.8478 13.2346C14.6448 12.7446 14.2554 12.3552 13.7654 12.1522C13.3978 12 12.9319 12 12 12C11.0681 12 10.6022 12 10.2346 12.1522C9.74458 12.3552 9.35523 12.7446 9.15224 13.2346C9 13.6022 9 14.0681 9 15V22" stroke="#A5A5A5" stroke-width="1.5" stroke-linecap="round" stroke-linejoin="round"/>
</svg>
