<svg width="20" height="20" viewBox="0 0 20 20" fill="none" xmlns="http://www.w3.org/2000/svg">
<g id="Linear / Time / Hourglass">
<path id="Vector" d="M9.9974 10.0013L7.53265 12.4421C5.09724 14.8538 3.87953 16.0597 4.22044 17.1001C4.24974 17.1895 4.28613 17.2765 4.32927 17.3602C4.83111 18.3346 6.55321 18.3346 9.9974 18.3346C13.4416 18.3346 15.1637 18.3346 15.6655 17.3602C15.7087 17.2765 15.745 17.1895 15.7744 17.1001C16.1153 16.0597 14.8976 14.8538 12.4621 12.4421L9.9974 10.0013ZM9.9974 10.0013L12.4621 7.56052C14.8976 5.1488 16.1153 3.94294 15.7744 2.90254C15.745 2.81311 15.7087 2.72611 15.6655 2.64235C15.1637 1.66797 13.4416 1.66797 9.9974 1.66797C6.55321 1.66797 4.83111 1.66797 4.32927 2.64235C4.28613 2.72611 4.24974 2.81311 4.22044 2.90254C3.87953 3.94294 5.09724 5.1488 7.53265 7.56053L9.9974 10.0013Z" stroke="white" strokeWidth="1.66667"/>
</g>
</svg>
