<svg width="21" height="20" viewBox="0 0 21 20" fill="none" xmlns="http://www.w3.org/2000/svg">
<g id="fi_8191607">
<path id="image-upload" d="M18.6252 9.16577V14.1658C18.6741 14.588 18.627 15.0158 18.4872 15.4172C18.3475 15.8186 18.1188 16.1833 17.8182 16.4838C17.5177 16.7844 17.1531 17.0131 16.7516 17.1528C16.3502 17.2925 15.9224 17.3397 15.5002 17.2908H5.50019C5.07798 17.3397 4.65016 17.2925 4.24875 17.1528C3.84733 17.0131 3.48271 16.7844 3.18216 16.4838C2.88161 16.1833 2.65291 15.8186 2.51317 15.4172C2.37342 15.0158 2.32626 14.588 2.37519 14.1658V5.83244C2.32626 5.41022 2.37342 4.98241 2.51317 4.58099C2.65291 4.17958 2.88161 3.81496 3.18216 3.51441C3.48271 3.21386 3.84733 2.98516 4.24875 2.84541C4.65016 2.70567 5.07798 2.6585 5.50019 2.70744H12.1669C12.3326 2.70744 12.4916 2.77329 12.6088 2.8905C12.726 3.00771 12.7919 3.16668 12.7919 3.33244C12.7919 3.4982 12.726 3.65717 12.6088 3.77438C12.4916 3.89159 12.3326 3.95744 12.1669 3.95744H5.50019C4.18603 3.95744 3.62519 4.51827 3.62519 5.83244V13.5408L5.74186 11.4241C5.8992 11.268 6.11187 11.1804 6.33353 11.1804C6.55518 11.1804 6.76785 11.268 6.92519 11.4241L7.70853 12.2074C7.78641 12.2838 7.89113 12.3265 8.00019 12.3265C8.10926 12.3265 8.21397 12.2838 8.29186 12.2074L12.4085 8.09077C12.5659 7.93465 12.7785 7.84704 13.0002 7.84704C13.2218 7.84704 13.4345 7.93465 13.5919 8.09077L17.3752 11.8741V9.16577C17.3752 9.00001 17.441 8.84104 17.5583 8.72383C17.6755 8.60662 17.8344 8.54077 18.0002 8.54077C18.166 8.54077 18.3249 8.60662 18.4421 8.72383C18.5593 8.84104 18.6252 9.00001 18.6252 9.16577ZM7.16103 6.45744C6.88435 6.45821 6.61929 6.56876 6.42406 6.76481C6.22883 6.96086 6.11939 7.22638 6.11978 7.50306C6.12016 7.77974 6.23034 8.04495 6.42612 8.24046C6.6219 8.43596 6.88727 8.54577 7.16394 8.54577C7.44062 8.54577 7.70599 8.43596 7.90176 8.24046C8.09754 8.04495 8.20772 7.77974 8.20811 7.50306C8.2085 7.22638 8.09906 6.96086 7.90383 6.76481C7.7086 6.56876 7.44354 6.45821 7.16686 6.45744H7.16103ZM15.9419 4.19077L16.1252 4.00827V5.83244C16.1252 5.9982 16.191 6.15717 16.3083 6.27438C16.4255 6.39159 16.5844 6.45744 16.7502 6.45744C16.916 6.45744 17.0749 6.39159 17.1921 6.27438C17.3093 6.15717 17.3752 5.9982 17.3752 5.83244V4.00827L17.5585 4.19077C17.677 4.30117 17.8337 4.36128 17.9956 4.35842C18.1575 4.35556 18.312 4.28997 18.4265 4.17546C18.5411 4.06095 18.6066 3.90646 18.6095 3.74454C18.6124 3.58262 18.5523 3.42592 18.4419 3.30744L17.1919 2.05744C17.0746 1.9406 16.9158 1.875 16.7502 1.875C16.5846 1.875 16.4258 1.9406 16.3085 2.05744L15.0585 3.30744C14.9481 3.42592 14.888 3.58262 14.8909 3.74454C14.8937 3.90646 14.9593 4.06095 15.0738 4.17546C15.1884 4.28997 15.3428 4.35556 15.5048 4.35842C15.6667 4.36128 15.8234 4.30117 15.9419 4.19077Z" fill="white"/>
</g>
</svg>
