<svg width="20" height="20" viewBox="0 0 20 20" fill="none" xmlns="http://www.w3.org/2000/svg">
<g id="icon">
<g id="Group">
<path id="Vector" fill-rule="evenodd" clip-rule="evenodd" d="M10.0001 3.33268C6.31818 3.33268 3.33341 6.31745 3.33341 9.99932C3.33341 13.6812 6.31818 16.666 10.0001 16.666C13.682 16.666 16.6667 13.6812 16.6667 9.99932C16.6667 6.31745 13.682 3.33268 10.0001 3.33268ZM1.66675 9.99932C1.66675 5.39697 5.39771 1.66602 10.0001 1.66602C14.6024 1.66602 18.3334 5.39697 18.3334 9.99932C18.3334 14.6017 14.6024 18.3326 10.0001 18.3326C5.39771 18.3326 1.66675 14.6017 1.66675 9.99932Z" fill="#A5A5A5"/>
<path id="Vector_2" fill-rule="evenodd" clip-rule="evenodd" d="M8.75 13.332C8.75 12.6417 9.30967 12.082 10 12.082H10.0083C10.6987 12.082 11.2583 12.6417 11.2583 13.332V13.3404C11.2583 14.0307 10.6987 14.5904 10.0083 14.5904H10C9.30967 14.5904 8.75 14.0307 8.75 13.3404V13.332Z" fill="#A5A5A5"/>
<path id="Vector_3" fill-rule="evenodd" clip-rule="evenodd" d="M10.0001 10.832C9.53983 10.832 9.16675 10.4589 9.16675 9.9987V6.66536C9.16675 6.20513 9.53983 5.83203 10.0001 5.83203C10.4603 5.83203 10.8334 6.20513 10.8334 6.66536V9.9987C10.8334 10.4589 10.4603 10.832 10.0001 10.832Z" fill="#A5A5A5"/>
</g>
</g>
</svg>
