<svg width="45" height="45" viewBox="0 0 45 45" fill="none" xmlns="http://www.w3.org/2000/svg">
<g id="Layer 2">
<g id="Color">
<g id="10.Linkedin">
<path id="Background" d="M22.5 45C34.9264 45 45 34.9264 45 22.5C45 10.0736 34.9264 0 22.5 0C10.0736 0 0 10.0736 0 22.5C0 34.9264 10.0736 45 22.5 45Z" fill="#1D1D1D"/>
<g id="Icon">
<path id="Vector" d="M33.5244 32.4998V24.798C33.5244 21.0286 32.7132 18.1279 28.3085 18.1279C26.1901 18.1279 24.77 19.2882 24.1899 20.3907H24.1295V18.4797H19.9531V32.4998H24.3001V25.5567C24.3001 23.7192 24.6466 21.9604 26.9251 21.9604C29.2036 21.9604 29.1879 24.0604 29.1879 25.6748V32.4998H33.5244Z" fill="#4875B4"/>
<path id="Vector_2" d="M12.8711 18.48H17.2233V32.5001H12.8711V18.48Z" fill="#4875B4"/>
<path id="Vector_3" d="M15.0436 11.5C14.5416 11.4979 14.0503 11.6451 13.6321 11.9227C13.2138 12.2004 12.8875 12.5961 12.6946 13.0595C12.5016 13.523 12.4507 14.0333 12.5484 14.5257C12.646 15.0181 12.8877 15.4705 13.2429 15.8252C13.598 16.18 14.0506 16.4213 14.5431 16.5184C15.0356 16.6155 15.5459 16.5641 16.0092 16.3707C16.4724 16.1772 16.8677 15.8505 17.145 15.432C17.4222 15.0135 17.5688 14.522 17.5662 14.02C17.5662 13.6889 17.5009 13.361 17.3741 13.0551C17.2473 12.7491 17.0615 12.4712 16.8272 12.2372C16.5929 12.0031 16.3148 11.8176 16.0088 11.6911C15.7027 11.5646 15.3747 11.4997 15.0436 11.5Z" fill="#4875B4"/>
</g>
</g>
</g>
</g>
</svg>
