<svg width="28" height="28" viewBox="0 0 28 28" fill="none" xmlns="http://www.w3.org/2000/svg">
<g id="fi_717392" clip-path="url(#clip0_160_40984)">
<g id="Group">
<g id="Group_2">
<path id="Vector" d="M20.9975 0H6.99788C3.14831 0 -0.00195312 3.15026 -0.00195312 6.99983V21.0002C-0.00195312 24.8487 3.14831 28 6.99788 28H20.9975C24.8471 28 27.9974 24.8487 27.9974 21.0002V6.99983C27.9974 3.15026 24.8471 0 20.9975 0ZM25.664 21.0002C25.664 23.5726 23.5714 25.6666 20.9975 25.6666H6.99788C4.4251 25.6666 2.33144 23.5726 2.33144 21.0002V6.99983C2.33144 4.42671 4.4251 2.33339 6.99788 2.33339H20.9975C23.5714 2.33339 25.664 4.42671 25.664 6.99983V21.0002Z" fill="#A5A5A5"/>
</g>
</g>
<g id="Group_3">
<g id="Group_4">
<path id="Vector_2" d="M21.5839 8.16593C22.5504 8.16593 23.3339 7.38245 23.3339 6.41597C23.3339 5.4495 22.5504 4.66602 21.5839 4.66602C20.6175 4.66602 19.834 5.4495 19.834 6.41597C19.834 7.38245 20.6175 8.16593 21.5839 8.16593Z" fill="#A5A5A5"/>
</g>
</g>
<g id="Group_5">
<g id="Group_6">
<path id="Vector_3" d="M13.9979 7C10.1312 7 6.99805 10.1334 6.99805 13.9998C6.99805 17.8648 10.1312 21.0003 13.9979 21.0003C17.8635 21.0003 20.9977 17.8648 20.9977 13.9998C20.9977 10.1334 17.8635 7 13.9979 7ZM13.9979 18.667C11.4209 18.667 9.33144 16.5775 9.33144 13.9998C9.33144 11.4221 11.4209 9.33339 13.9979 9.33339C16.5749 9.33339 18.6643 11.4221 18.6643 13.9998C18.6643 16.5775 16.5749 18.667 13.9979 18.667Z" fill="#A5A5A5"/>
</g>
</g>
</g>
<defs>
<clipPath id="clip0_160_40984">
<rect width="28" height="28" fill="white"/>
</clipPath>
</defs>
</svg>
