<svg width="45" height="45" viewBox="0 0 45 45" fill="none" xmlns="http://www.w3.org/2000/svg">
<g id="fi_3955024" clip-path="url(#clip0_637_114)">
<g id="Layer 2">
<g id="Circle">
<g id="03.Instagram">
<path id="Background" d="M45 22.5C45 10.0736 34.9264 0 22.5 0C10.0736 0 0 10.0736 0 22.5C0 34.9264 10.0736 45 22.5 45C34.9264 45 45 34.9264 45 22.5Z" fill="#1D1D1D"/>
<g id="Group">
<g id="Icon">
<path id="Vector" d="M27.225 11.5H17.775C16.2434 11.5 14.7745 12.1084 13.6915 13.1915C12.6084 14.2745 12 15.7434 12 17.275V26.725C12 28.2566 12.6084 29.7255 13.6915 30.8085C14.7745 31.8916 16.2434 32.5 17.775 32.5H27.225C28.7566 32.5 30.2255 31.8916 31.3085 30.8085C32.3916 29.7255 33 28.2566 33 26.725V17.275C33 15.7434 32.3916 14.2745 31.3085 13.1915C30.2255 12.1084 28.7566 11.5 27.225 11.5ZM31.1625 25.8955C31.1625 27.1598 30.6603 28.3723 29.7663 29.2663C28.8723 30.1603 27.6598 30.6625 26.3955 30.6625H18.6045C17.3402 30.6625 16.1277 30.1603 15.2337 29.2663C14.3397 28.3723 13.8375 27.1598 13.8375 25.8955V18.1045C13.8375 16.8402 14.3397 15.6277 15.2337 14.7337C16.1277 13.8397 17.3402 13.3375 18.6045 13.3375H26.3955C27.6598 13.3375 28.8723 13.8397 29.7663 14.7337C30.6603 15.6277 31.1625 16.8402 31.1625 18.1045V25.8955Z" fill="white"/>
<path id="Vector_2" d="M26.3282 18.2096L26.2783 18.1597L26.2363 18.1177C25.2438 17.1286 23.8995 16.5736 22.4983 16.5742C21.7907 16.579 21.091 16.7232 20.4392 16.9985C19.7873 17.2738 19.1961 17.6749 18.6993 18.1788C18.2025 18.6826 17.8098 19.2795 17.5438 19.9351C17.2777 20.5908 17.1434 21.2925 17.1486 22.0001C17.1475 23.4361 17.7136 24.8144 18.7236 25.8352C19.2183 26.336 19.8078 26.7331 20.4577 27.0036C21.1076 27.274 21.8049 27.4122 22.5088 27.4102C23.5647 27.3881 24.5913 27.0592 25.4635 26.4636C26.3356 25.868 27.0156 25.0315 27.4205 24.0561C27.8254 23.0807 27.9378 22.0086 27.7438 20.9704C27.5498 19.9323 27.058 18.973 26.3282 18.2096ZM22.4983 25.5596C21.7923 25.5695 21.0993 25.3692 20.5074 24.9841C19.9155 24.599 19.4515 24.0466 19.1744 23.3972C18.8974 22.7477 18.8197 22.0305 18.9514 21.3367C19.083 20.643 19.4181 20.0041 19.9138 19.5013C20.4096 18.9985 21.0437 18.6545 21.7355 18.5131C22.4273 18.3716 23.1455 18.4392 23.7988 18.707C24.4522 18.9749 25.0111 19.4311 25.4044 20.0175C25.7978 20.6038 26.0079 21.294 26.008 22.0001C26.0114 22.4643 25.9234 22.9247 25.7488 23.3548C25.5743 23.785 25.3167 24.1765 24.9908 24.5071C24.6648 24.8377 24.2769 25.1008 23.8493 25.2814C23.4216 25.462 22.9625 25.5565 22.4983 25.5596Z" fill="white"/>
<path id="Vector_3" d="M29.4378 16.3253C29.4392 16.4938 29.4074 16.6608 29.3441 16.8169C29.2808 16.9731 29.1874 17.1152 29.0691 17.2351C28.9509 17.3551 28.8101 17.4506 28.6549 17.516C28.4997 17.5815 28.3332 17.6158 28.1647 17.6168C27.9977 17.6167 27.8323 17.5835 27.6782 17.5191C27.5241 17.4546 27.3843 17.3603 27.267 17.2414C27.0891 17.061 26.9682 16.8323 26.9191 16.5838C26.87 16.3353 26.8949 16.0778 26.9908 15.8433C27.0866 15.6088 27.2492 15.4076 27.4584 15.2646C27.6675 15.1217 27.914 15.0432 28.1673 15.0391C28.4638 15.039 28.7509 15.1431 28.9785 15.3331L29.0047 15.3593C29.047 15.3938 29.0857 15.4325 29.1202 15.4748L29.1491 15.5063C29.337 15.7378 29.439 16.0272 29.4378 16.3253Z" fill="white"/>
</g>
</g>
</g>
</g>
</g>
</g>
<defs>
<clipPath id="clip0_637_114">
<rect width="45" height="45" fill="white"/>
</clipPath>
</defs>
</svg>
