<svg xmlns="http://www.w3.org/2000/svg" width="25" height="24" viewBox="0 0 25 24" fill="none">
  <circle cx="12.5" cy="6" r="4" fill="url(#paint0_linear_474_28736)"/>
  <path fill-rule="evenodd" clip-rule="evenodd" d="M17 22C15.3501 22 14.5251 22 14.0126 21.4874C13.5 20.9749 13.5 20.1499 13.5 18.5C13.5 16.8501 13.5 16.0251 14.0126 15.5126C14.5251 15 15.3501 15 17 15C18.6499 15 19.4749 15 19.9874 15.5126C20.5 16.0251 20.5 16.8501 20.5 18.5C20.5 20.1499 20.5 20.9749 19.9874 21.4874C19.4749 22 18.6499 22 17 22ZM17.5833 16.9444C17.5833 16.6223 17.3222 16.3611 17 16.3611C16.6778 16.3611 16.4167 16.6223 16.4167 16.9444V17.9167H15.4444C15.1223 17.9167 14.8611 18.1778 14.8611 18.5C14.8611 18.8222 15.1223 19.0833 15.4444 19.0833H16.4167V20.0556C16.4167 20.3777 16.6778 20.6389 17 20.6389C17.3222 20.6389 17.5833 20.3777 17.5833 20.0556V19.0833H18.5556C18.8777 19.0833 19.1389 18.8222 19.1389 18.5C19.1389 18.1778 18.8777 17.9167 18.5556 17.9167H17.5833V16.9444Z" fill="url(#paint1_linear_474_28736)"/>
  <path d="M16.1782 13.5028C15.7051 13.5085 15.2642 13.5258 14.8799 13.5774C14.237 13.6639 13.5334 13.8705 12.9519 14.4519C12.3705 15.0333 12.1639 15.737 12.0775 16.3799C11.9998 16.9576 11.9999 17.6635 12 18.414V18.586C11.9999 19.3365 11.9998 20.0424 12.0775 20.6201C12.1381 21.0712 12.2579 21.5522 12.5249 22C12.5166 22 12.5083 22 12.5 22C4.5 22 4.5 19.9853 4.5 17.5C4.5 15.0147 8.08172 13 12.5 13C13.8262 13 15.077 13.1815 16.1782 13.5028Z" fill="url(#paint2_linear_474_28736)"/>
  <defs>
    <linearGradient id="paint0_linear_474_28736" x1="8.5" y1="6" x2="16.5" y2="6" gradientUnits="userSpaceOnUse">
      <stop stop-color="#24FE41"/>
      <stop offset="1" stop-color="#FDFC47"/>
    </linearGradient>
    <linearGradient id="paint1_linear_474_28736" x1="13.5" y1="18.5" x2="20.5" y2="18.5" gradientUnits="userSpaceOnUse">
      <stop stop-color="#24FE41"/>
      <stop offset="1" stop-color="#FDFC47"/>
    </linearGradient>
    <linearGradient id="paint2_linear_474_28736" x1="4.5" y1="17.5" x2="16.1782" y2="17.5" gradientUnits="userSpaceOnUse">
      <stop stop-color="#24FE41"/>
      <stop offset="1" stop-color="#FDFC47"/>
    </linearGradient>
  </defs>
</svg>