<svg width="24" height="24" viewBox="0 0 24 24" fill="none" xmlns="http://www.w3.org/2000/svg">
<g id="fi_8021237">
<g id="Group">
<path id="Vector" d="M23.1226 9.74278L17.5377 5.1412C17.0359 4.72772 16.401 4.5 15.75 4.5C15.1365 4.5 14.5532 4.69425 14.0633 5.06175L12.5615 6.18839C12.3988 6.3105 12.2046 6.375 12 6.375C11.7954 6.375 11.6013 6.3105 11.4385 6.18839L9.9367 5.06175C9.44681 4.69425 8.86359 4.5 8.25 4.5C7.599 4.5 6.96413 4.72767 6.46233 5.14116L0.877406 9.74278C0.517594 10.0393 0.320766 10.125 0 10.125V12C0.898219 12 1.39542 12.7109 2.268 14.0731C2.97802 15.1815 3.8617 16.5611 5.34778 17.6411C7.06889 18.8919 9.24487 19.5 12 19.5C14.7551 19.5 16.9311 18.8919 18.6522 17.6411C20.1383 16.561 21.022 15.1815 21.732 14.0731C22.6046 12.7109 23.1018 12 24 12V10.125C23.6792 10.125 23.4824 10.0393 23.1226 9.74278ZM7.65464 6.58823C7.77267 6.49097 7.9718 6.375 8.25 6.375C8.45461 6.375 8.64877 6.4395 8.81152 6.56161L10.3133 7.68825C10.8032 8.05575 11.3865 8.25 12 8.25C12.6135 8.25 13.1968 8.05575 13.6867 7.68825L15.1885 6.56161C15.3512 6.4395 15.5454 6.375 15.75 6.375C16.0282 6.375 16.2273 6.49097 16.3454 6.58823L20.6379 10.125H17.625C16.7264 10.125 15.7645 10.5824 14.7462 11.0667C13.7814 11.5255 12.7837 12 12 12C11.2163 12 10.2186 11.5255 9.25378 11.0667C8.23547 10.5824 7.27364 10.125 6.375 10.125H3.36211L7.65464 6.58823ZM20.1532 13.0618C18.783 15.2007 17.2301 17.625 12 17.625C6.76992 17.625 5.217 15.2007 3.84684 13.0618C3.61702 12.703 3.38522 12.3412 3.1365 12H6.375C6.8505 12 7.66289 12.3863 8.44852 12.76C9.5475 13.2826 10.7931 13.875 12 13.875C13.2069 13.875 14.4525 13.2826 15.5515 12.76C16.3371 12.3863 17.1495 12 17.625 12H20.8635C20.6148 12.3412 20.383 12.703 20.1532 13.0618Z" fill="#6B6B6B"/>
</g>
</g>
</svg>
