<svg width="22" height="22" viewBox="0 0 22 22" fill="none" xmlns="http://www.w3.org/2000/svg">
<g id="Group">
<path id="Vector" d="M11.3747 0.524023C10.8283 0.524023 10.3854 0.966967 10.3854 1.51336C10.3854 2.05975 10.8283 2.50269 11.3747 2.50269C16.0674 2.50269 19.8716 6.30688 19.8716 10.9996C19.8716 15.6923 16.0674 19.4965 11.3747 19.4965C10.8283 19.4965 10.3854 19.9394 10.3854 20.4858C10.3854 21.0322 10.8283 21.4751 11.3747 21.4751C17.1602 21.4751 21.8502 16.7851 21.8502 10.9996C21.8502 5.21409 17.1602 0.524023 11.3747 0.524023Z" fill="black" stroke="black" strokeWidth="0.2"/>
<path id="Vector_2" d="M10.8893 6.7425L10.8186 6.81321L10.8893 6.7425C10.5029 6.35615 9.87662 6.35615 9.49025 6.7425C9.10389 7.12885 9.10389 7.75527 9.49025 8.14163L11.3586 10.0101H1.88933C1.34294 10.0101 0.9 10.453 0.9 10.9994C0.9 11.5458 1.34294 11.9887 1.88933 11.9887H11.3586L9.49025 13.8572C9.10389 14.2436 9.10389 14.8699 9.49025 15.2563C9.87662 15.6426 10.5029 15.6426 10.8893 15.2563L14.4466 11.6989C14.833 11.3126 14.833 10.6862 14.4466 10.2999L10.8893 6.7425Z" fill="black" stroke="black" strokeWidth="0.2"/>
</g>
</svg>
