<svg width="28" height="32" viewBox="0 0 28 32" fill="none" xmlns="http://www.w3.org/2000/svg">
<g id="image 671" clip-path="url(#clip0_1597_9773)">
<g id="Clip path group">
<mask id="mask0_1597_9773" style="mask-type:luminance" maskUnits="userSpaceOnUse" x="0" y="0" width="28" height="35">
<g id="cl_3">
<path id="Vector" d="M27.1199 0H0.879883V34.24H27.1199V0Z" fill="white"/>
</g>
</mask>
<g mask="url(#mask0_1597_9773)">
<g id="Group">
<path id="Vector_2" d="M7.94192 23.4473C7.98302 23.5579 7.92851 23.8605 7.93722 24.0004C7.95924 24.354 8.16681 24.736 8.32668 25.0479C8.60658 25.594 8.9977 26.0532 9.39205 26.5199C9.54061 26.6958 9.72543 26.881 9.84449 27.0763C9.89 27.151 9.9036 27.2578 9.93012 27.3424C9.98302 27.5112 10.0817 27.6746 10.1581 27.8344C10.4014 28.343 10.6482 28.9512 11.0362 29.3702C11.1709 29.5156 11.3188 29.5822 11.4835 29.6848C11.5439 29.7225 11.5895 29.7721 11.6537 29.8058C11.6564 29.8326 11.6588 29.8593 11.6611 29.8861C11.7456 30.8746 11.6029 31.6097 11.1943 32.5157C11.111 32.7004 11.0236 32.9522 10.892 33.1073C10.873 33.118 10.8537 33.1275 10.8327 33.134C10.6718 33.1835 9.4817 33.1775 9.3553 33.1064C9.33412 33.1169 9.31273 33.1298 9.28988 33.1363C9.14156 33.179 5.99193 33.154 5.67597 33.1385C5.62214 33.1359 5.58892 33.1246 5.54199 33.0982C5.62015 32.2628 5.69364 31.4269 5.76244 30.5907C5.82757 29.8134 5.87488 29.0444 6.04884 28.2811C6.30437 27.1601 6.75309 26.1131 7.19045 25.0546C7.37747 24.6021 7.63706 23.8156 7.94192 23.4473Z" fill="black"/>
<path id="Subtract" fill-rule="evenodd" clip-rule="evenodd" d="M11.9306 2.14423C12.5393 2.10632 13.2482 2.2843 13.7892 2.57166C13.9608 2.66281 14.1198 2.77255 14.2791 2.88248L14.2791 2.88251C14.3249 2.91413 14.3708 2.94576 14.4169 2.97698C14.5648 3.07696 14.73 3.16019 14.8955 3.24354C15.1275 3.3604 15.36 3.4775 15.5455 3.6413C15.7198 3.79512 15.8564 3.97785 15.9943 4.16232L16.036 4.21806C16.059 4.24861 16.0822 4.2791 16.1054 4.30966L16.1054 4.30967L16.1054 4.30967L16.1054 4.30968C16.2256 4.4676 16.3469 4.62707 16.4387 4.80223C16.5856 5.08269 16.6792 5.3891 16.7727 5.69532L16.7727 5.69533L16.7727 5.69534L16.7727 5.69534L16.7727 5.69535L16.7727 5.69536L16.7727 5.69537L16.7727 5.69538C16.8487 5.94431 16.9247 6.19311 17.0293 6.42773C17.1876 6.78294 17.3927 7.12787 17.5957 7.4694L17.5957 7.46942L17.5957 7.46944C17.6879 7.62456 17.7797 7.77897 17.8665 7.93333C17.933 8.0516 17.9971 8.17486 18.0616 8.29902C18.1993 8.56398 18.3391 8.83302 18.5094 9.06635C18.7365 9.37739 19.1131 9.69949 19.4319 9.91586C19.4863 9.95276 19.5436 9.98785 19.6013 10.0231L19.6013 10.0231L19.6013 10.0231L19.6013 10.0231L19.6013 10.0231L19.6013 10.0231L19.6013 10.0232L19.6014 10.0232C19.7122 10.091 19.8241 10.1594 19.9181 10.2428C20.0473 10.3574 20.0129 10.4574 19.9746 10.5687C19.9533 10.6308 19.9307 10.6963 19.9346 10.77C19.9845 10.8818 20.1825 10.9583 20.3652 11.0288C20.4722 11.0701 20.5739 11.1094 20.6377 11.1526C21.1433 11.4949 21.4583 12.4382 21.5677 13.0181L21.5786 13.0247C21.6328 13.0576 21.6924 13.0937 21.7244 13.1494C21.7629 13.2164 21.7625 13.3415 21.7622 13.455V13.455C21.762 13.5159 21.7618 13.5733 21.7676 13.6168C21.7807 13.7147 21.8103 13.8141 21.8385 13.9088L21.8385 13.9089L21.8386 13.9089L21.8386 13.9089L21.8396 13.9123L21.8658 13.9246C21.939 13.9587 22.0282 14.0002 22.0582 14.0751C22.0931 14.1624 22.0363 14.279 21.9918 14.3704C21.9828 14.3889 21.9743 14.4063 21.9672 14.4223C22.2101 15.5574 22.1758 16.7587 22.1266 17.9102C22.1233 17.9863 22.1202 18.0625 22.1172 18.1388C22.1016 18.5265 22.0859 18.916 22.046 19.3013C22.0242 19.5117 21.9915 19.7222 21.9588 19.9328C21.9172 20.2005 21.8756 20.4682 21.8564 20.7361C21.8422 20.9342 21.8479 21.1346 21.8536 21.3347V21.3347V21.3347V21.3347V21.3347V21.3348V21.3348V21.3348C21.8574 21.4667 21.8612 21.5985 21.8592 21.7294C21.8498 22.3637 21.7446 23.0553 21.5715 23.6662C21.3983 24.2771 21.1886 24.8764 20.979 25.4757L20.979 25.4758C20.8043 25.9753 20.6295 26.4749 20.4759 26.9812C20.4532 27.0561 20.4277 27.1336 20.4018 27.2126C20.3256 27.4444 20.2452 27.6889 20.2183 27.9158C20.1908 28.1469 20.3638 28.4431 20.5377 28.7406C20.7276 29.0656 20.9185 29.3923 20.8501 29.6376C20.8112 29.7774 20.6735 29.9072 20.5435 30.0298C20.4714 30.0978 20.4017 30.1635 20.3525 30.2274C20.2747 30.3287 20.2272 30.443 20.1785 30.5601C20.1668 30.5883 20.1556 30.6181 20.1441 30.6485C20.0924 30.7853 20.0359 30.9349 19.9109 31.0094C19.8373 31.0532 19.8048 31.1031 19.7683 31.1591L19.7683 31.1591L19.7682 31.1592L19.7682 31.1592L19.7682 31.1593C19.7495 31.1879 19.7299 31.2181 19.7032 31.2498C19.6546 31.3076 19.5856 31.3457 19.5091 31.3484C19.3837 31.3527 19.2923 31.2786 19.2089 31.1947C19.2249 31.2735 19.2412 31.3521 19.2574 31.4308L19.2575 31.4312L19.2576 31.4317L19.2577 31.4322L19.2578 31.4327L19.2579 31.4332C19.3139 31.7046 19.3699 31.9755 19.417 32.2492C19.4317 32.3344 19.4445 32.4215 19.4574 32.509C19.4878 32.7154 19.5186 32.9247 19.5751 33.1195L19.5697 33.1231C19.5604 33.129 19.5558 33.132 19.5424 33.1383C19.4555 33.1797 13.8734 33.1963 13.7035 33.1382C13.6434 33.0798 13.5912 32.9509 13.5498 32.8484C13.5375 32.8181 13.5262 32.79 13.5158 32.7668C13.3106 32.3058 13.129 31.8288 13.003 31.3398C12.9608 31.1758 12.9253 31.0104 12.8899 30.8449L12.8899 30.8449C12.8496 30.6568 12.8093 30.4687 12.759 30.2826L12.7499 30.2825C12.7329 30.2823 12.7251 30.2822 12.7028 30.2748C12.5702 30.2308 12.4419 30.1082 12.3791 29.9874C12.5237 30.0439 12.7131 30.0497 12.8675 30.048C12.9689 30.047 13.0696 30.0345 13.1668 30.0049C13.4507 29.9184 14.3954 29.5288 14.581 29.3356L14.5828 29.3338C14.6172 29.2979 14.6507 29.2631 14.6931 29.2362C14.7971 29.1703 14.912 29.1147 15.0261 29.0595C15.0946 29.0263 15.1629 28.9932 15.2285 28.9581C15.6118 28.755 15.9884 28.54 16.358 28.313C16.8784 27.9924 17.3852 27.6503 17.8919 27.3083L17.892 27.3082L17.892 27.3082L17.8921 27.3082L17.8921 27.3081L17.8922 27.3081L17.8922 27.3081L17.8923 27.308L17.8923 27.308C18.1237 27.1518 18.355 26.9957 18.5875 26.8417C18.5677 27.2732 18.5463 27.7125 18.4974 28.1417C19.12 26.7953 19.2171 25.5868 19.3237 24.2607C19.3538 23.8863 19.3846 23.5025 19.4283 23.1035C19.46 22.8138 19.5239 22.5329 19.588 22.2515C19.6235 22.0953 19.6591 21.939 19.6892 21.7809C19.8157 21.1181 19.7402 20.476 19.6257 19.8186C19.5448 20.0269 19.4719 20.2382 19.399 20.4495C19.3194 20.6804 19.2397 20.9114 19.1495 21.1386C19.0753 21.3256 18.9942 21.5138 18.9126 21.7034C18.7024 22.1918 18.4883 22.6891 18.3774 23.1955C18.3144 23.4831 18.3126 23.7691 18.3345 24.061C18.3607 24.41 18.4161 24.7229 18.4708 25.0312C18.5491 25.4737 18.6259 25.9069 18.6123 26.4241C18.354 26.5947 18.1031 26.7628 17.856 26.9283L17.8559 26.9283L17.8559 26.9283C16.7828 27.647 15.7824 28.3171 14.5688 28.934C14.1682 28.763 13.7472 28.6369 13.3268 28.511L13.3268 28.511L13.3267 28.5109C13.0625 28.4318 12.7985 28.3527 12.54 28.2626C11.8477 28.0213 10.5497 27.2377 10.022 26.7437C9.65883 26.4039 9.31444 25.9426 9.01541 25.5421C8.7224 25.1495 8.29453 24.4183 8.2525 23.9337C8.23813 23.7685 8.26733 23.5935 8.29539 23.4254C8.30289 23.3805 8.31031 23.336 8.3168 23.2923L8.3671 22.9874C8.64203 22.6899 8.93087 22.4041 9.21957 22.1184C9.39743 21.9424 9.57523 21.7665 9.7497 21.5879C9.79374 21.5428 9.83908 21.4974 9.88494 21.4515C10.1109 21.2253 10.3491 20.9869 10.5022 20.7157C10.6215 20.5047 10.6667 20.2906 10.7051 20.0548C10.6656 20.0317 10.6264 20.0081 10.5875 19.9839C10.3527 19.8381 10.2796 19.7231 10.217 19.4537C10.2625 19.3135 10.3165 19.1895 10.3868 19.0598L10.3738 19.0464L10.3738 19.0464L10.3738 19.0464C10.3064 18.9772 10.2222 18.8906 10.204 18.7964C10.1748 18.6455 10.2869 18.5037 10.382 18.3834C10.3986 18.3624 10.4147 18.3421 10.4295 18.3224C10.3657 18.2752 10.2818 18.2276 10.1943 18.178C10.0334 18.0867 9.86054 17.9886 9.77882 17.8738C9.73987 17.819 9.72504 17.7578 9.73806 17.6917C9.77417 17.5083 10.0148 17.3077 10.1657 17.2107C10.1975 17.2446 10.212 17.2797 10.2105 17.3265C10.2065 17.4473 10.0365 17.591 9.91152 17.6966C9.87681 17.7259 9.84556 17.7523 9.82232 17.7745C9.94033 17.8645 10.0722 17.934 10.2035 18.0032L10.2714 18.0391L10.0017 17.9787C10.0337 17.997 10.0691 18.0162 10.1061 18.0363C10.2636 18.1218 10.4511 18.2236 10.5439 18.3494L10.5249 18.3667C10.4658 18.4203 10.4025 18.4777 10.3551 18.5406C10.2973 18.6171 10.2493 18.7149 10.2672 18.8134C10.2857 18.9157 10.3656 18.9769 10.4432 19.0364L10.461 19.05C10.4894 19.0153 10.5218 18.9572 10.5554 18.8968C10.6052 18.8072 10.6578 18.7126 10.7042 18.6821C10.713 18.6764 10.8083 18.706 10.8795 18.7281C10.915 18.7391 10.9445 18.7483 10.9543 18.7503C11.2054 18.8017 12.1403 18.4952 12.7796 18.2856C12.9982 18.2139 13.1823 18.1536 13.2927 18.1227C13.3752 18.0997 13.4631 18.0846 13.5512 18.0695L13.5512 18.0695L13.5512 18.0695L13.5512 18.0695L13.5512 18.0695L13.5512 18.0695L13.5512 18.0695L13.5513 18.0695L13.5513 18.0695L13.5513 18.0695C13.6717 18.0489 13.7924 18.0282 13.9003 17.9869C13.9539 17.9665 14.0049 17.9327 14.0533 17.9007L14.0724 17.8881C14.4894 17.877 14.907 17.8739 15.3247 17.8708H15.3247H15.3248H15.3249H15.3249H15.325H15.325H15.3251H15.3251C15.6905 17.8681 16.0558 17.8654 16.4208 17.8574L16.5996 17.97C16.9289 17.9451 17.2629 18.0108 17.596 18.0763C17.8143 18.1192 18.0321 18.162 18.2482 18.1793C18.5298 18.2019 18.8112 18.1947 19.0926 18.1874C19.3104 18.1819 19.5282 18.1763 19.7463 18.1845L19.7518 18.214C19.7647 18.2858 19.7776 18.357 19.841 18.4019L19.8785 18.3855C19.9321 18.2468 19.9208 18.1815 19.8777 18.0451C20.1265 17.455 20.2148 16.8761 20.1536 16.2392C20.0905 15.5824 19.8381 14.9601 19.5328 14.379C19.3499 14.0309 19.0594 13.6322 18.7924 13.2657L18.7924 13.2656L18.7923 13.2656L18.7923 13.2656C18.689 13.1238 18.5892 12.9868 18.5005 12.8594C18.3953 12.7083 18.2883 12.5479 18.1795 12.3847L18.1794 12.3847C17.9148 11.9879 17.639 11.5745 17.3508 11.2379C17.2058 11.0686 17.0373 10.9305 16.8658 10.7899L16.8347 10.7644C16.9878 11.0997 17.153 11.4299 17.3181 11.7598L17.3181 11.7598L17.3183 11.7601C17.3732 11.8699 17.4282 11.9796 17.4826 12.0895C17.508 12.1408 17.534 12.1921 17.56 12.2436C17.6793 12.4795 17.8004 12.7189 17.8769 12.9699C18.1341 13.8145 17.7244 14.5749 17.3293 15.3082L17.3293 15.3082L17.3293 15.3082L17.3293 15.3082L17.3293 15.3082L17.3293 15.3082L17.3293 15.3083L17.3293 15.3083C17.2305 15.4915 17.1327 15.6731 17.0465 15.8538C16.9184 16.1223 16.5235 17.2921 16.4793 17.5769L16.4771 17.5923L16.4761 17.6C15.6383 17.6251 14.8003 17.6412 13.9621 17.6485C13.8631 17.3985 13.7715 17.1429 13.6797 16.8867L13.6797 16.8867C13.4978 16.3791 13.3151 15.869 13.072 15.3953C12.9775 15.2113 12.8608 15.0432 12.7442 14.8753C12.6437 14.7307 12.5434 14.5863 12.4575 14.4319C11.9222 13.4697 12.3119 12.1693 12.6173 11.1502C12.6381 11.081 12.6584 11.0132 12.678 10.9469C12.612 11.0554 12.5448 11.1636 12.4776 11.2718L12.4775 11.2719L12.4775 11.2719L12.4774 11.272L12.4774 11.2721L12.4774 11.2721L12.4773 11.2722L12.4773 11.2722C12.2858 11.5806 12.0939 11.8897 11.9259 12.2104C11.8466 12.3617 11.7832 12.5211 11.7197 12.6805C11.674 12.7953 11.6283 12.91 11.5768 13.0218C11.5327 13.1172 11.4879 13.2139 11.4426 13.3116C10.9535 14.3666 10.4074 15.5447 10.136 16.6426C10.1281 16.6112 10.1191 16.5628 10.1085 16.5064L10.1085 16.5064C10.0749 16.3268 10.026 16.0657 9.95263 16.0113L9.90057 16.0361C9.8599 16.0911 9.84782 16.1263 9.84512 16.1947L9.84028 16.3202L9.807 16.282C9.81495 16.2424 9.80701 16.2019 9.79924 16.1622C9.79748 16.1532 9.79574 16.1443 9.79418 16.1354C9.83739 16.0655 9.87766 15.9996 9.90585 15.9218C9.89244 15.853 9.88745 15.8478 9.84116 15.8003L9.7983 15.8105C9.76306 15.8477 9.71284 16.0035 9.6582 16.173L9.6582 16.173C9.60502 16.338 9.54766 16.5159 9.49589 16.61C9.37096 16.8368 9.15732 16.9823 8.90698 17.0535L9.02085 16.9676C9.3556 16.7188 9.52495 16.4043 9.58426 15.9955C9.35878 16.1666 9.14538 16.2994 8.88187 16.4057C8.94142 16.3612 9.01576 16.3149 9.09391 16.2662L9.09394 16.2662C9.27459 16.1537 9.4756 16.0285 9.56136 15.8835C9.58421 15.8449 9.58671 15.8339 9.57721 15.7927C9.54398 15.7871 9.54232 15.7902 9.53404 15.8057C9.53111 15.8112 9.52734 15.8182 9.52104 15.827C9.32698 16.097 8.94089 16.2744 8.63749 16.4137L8.60834 16.4271C8.72413 16.2986 8.86108 16.221 9.00025 16.1421C9.08967 16.0914 9.18001 16.0402 9.26624 15.9746C9.38378 15.8852 9.49232 15.7647 9.50714 15.612C9.51629 15.5176 9.48869 15.4223 9.42904 15.3492C9.3736 15.3487 9.34641 15.3724 9.31077 15.4034C9.30152 15.4115 9.29171 15.42 9.28068 15.4288C9.2942 15.3761 9.33449 15.3309 9.37202 15.2888C9.38082 15.2789 9.38947 15.2692 9.39758 15.2596C9.32544 15.1605 9.24038 15.0641 9.15454 14.9668C8.98238 14.7717 8.80706 14.573 8.72641 14.3415L8.71643 14.3125L8.69069 14.3178C8.60677 14.5149 8.70106 14.6543 8.78401 14.777C8.83903 14.8584 8.88907 14.9324 8.87874 15.011C8.76013 14.892 8.64949 14.6297 8.59043 14.4731C8.65282 14.2095 8.80456 13.9237 8.991 13.7294C7.70112 12.1122 5.67411 7.54906 5.65048 5.47191C5.64676 5.14587 5.76361 4.89675 5.99389 4.66689C6.78577 3.87643 8.22314 3.39476 9.29394 3.17147C9.42991 3.14312 9.56728 3.1254 9.70471 3.10768L9.70472 3.10768C9.78619 3.09717 9.86768 3.08666 9.94891 3.07393C10.0239 3.0622 10.093 3.0429 10.1614 3.02379C10.2656 2.99466 10.3682 2.966 10.4874 2.96538L10.4915 2.95729C10.5166 2.90758 10.5421 2.85692 10.5738 2.81113C10.757 2.54652 11.6106 2.2004 11.9306 2.14423ZM9.78858 9.08464C9.79256 9.12134 9.79751 9.16008 9.80264 9.20008C9.82628 9.38477 9.85339 9.59653 9.80379 9.76017C9.78872 9.73815 9.77453 9.7169 9.76176 9.69357C9.67691 9.53878 9.73754 9.24596 9.78858 9.08464ZM18.7322 10.1675C18.727 10.1638 18.7216 10.1604 18.7162 10.1571L18.7091 10.1526C18.7098 10.289 18.7153 10.408 18.814 10.5146C18.8496 10.553 18.8975 10.5911 18.9407 10.6202L18.9401 10.617C18.9091 10.4654 18.8676 10.2622 18.7322 10.1675ZM19.219 10.3221C19.2333 10.3289 19.2486 10.3357 19.2644 10.3428C19.3475 10.3802 19.4455 10.4243 19.4975 10.489C19.5637 10.5716 19.5557 10.6693 19.5477 10.7672L19.5455 10.7944L19.5366 10.7932C19.4954 10.788 19.4524 10.7825 19.415 10.7641C19.3238 10.7194 19.2688 10.5101 19.235 10.3813L19.235 10.3813L19.2349 10.3812L19.2349 10.3812C19.229 10.3586 19.2237 10.3385 19.219 10.3221ZM18.6863 9.52859C18.9382 9.65381 19.3322 10.121 19.475 10.3562C19.1635 10.2414 18.8387 9.82248 18.6863 9.52859ZM19.5057 10.0615L19.514 10.0629L19.514 10.0629C19.5258 10.0649 19.5363 10.0666 19.5482 10.07C19.6857 10.1099 19.8516 10.21 19.9172 10.3382C19.9776 10.4561 19.9441 10.5508 19.9032 10.6663C19.8487 10.6676 19.7497 10.5996 19.6769 10.5495L19.6769 10.5495L19.6769 10.5495C19.6552 10.5345 19.6357 10.5212 19.6205 10.5118C19.6257 10.3869 19.6288 10.2886 19.5618 10.1768L19.5586 10.1714C19.5424 10.1445 19.5278 10.1201 19.5164 10.0903L19.5092 10.0711L19.5057 10.0615ZM10.7239 19.8311C10.7759 19.5394 10.85 19.1243 10.7658 18.8773C10.7593 18.8881 10.7494 18.9029 10.738 18.9202C10.6931 18.9878 10.6237 19.0924 10.6335 19.1368C10.6367 19.1516 10.6474 19.1716 10.6561 19.1878C10.659 19.1931 10.6616 19.198 10.6637 19.2022L10.6578 19.2326C10.584 19.239 10.5443 19.2452 10.4957 19.3084C10.4339 19.3884 10.36 19.5796 10.3712 19.6802C10.3764 19.7266 10.4043 19.7551 10.4348 19.7862L10.439 19.7904L10.5151 19.8325C10.5782 19.8675 10.6415 19.9026 10.7054 19.936C10.711 19.9034 10.7172 19.8683 10.7239 19.8311ZM9.23595 14.114C9.44511 14.2252 9.62212 14.5346 9.75487 14.7666C9.7757 14.803 9.79544 14.8375 9.81405 14.869L9.69891 15.0725L9.68452 15.0799C9.64541 15.0999 9.62977 15.108 9.57785 15.1043C9.4312 14.9822 9.33196 14.835 9.25929 14.6594C9.17743 14.4615 9.1513 14.3158 9.23595 14.114ZM9.0766 5.35032C9.07586 5.34961 9.07513 5.34889 9.07444 5.34814C8.739 5.68866 8.43478 6.07492 8.15763 6.46362C8.26646 6.72751 8.41382 6.97717 8.56107 7.22663C8.66578 7.40404 8.77044 7.58135 8.86114 7.76361L9.15307 8.31573C9.15601 8.30664 9.15899 8.29752 9.16198 8.28836C9.18743 8.21049 9.21374 8.12995 9.22075 8.04883C9.23576 7.8748 9.21145 7.68462 9.18832 7.50362C9.18145 7.44984 9.17468 7.39688 9.16907 7.34539C9.16589 7.31613 9.16269 7.2869 9.1595 7.25769C9.11719 6.87118 9.07532 6.48858 9.07537 6.0986C9.07537 6.06457 9.07913 5.99807 9.08366 5.91813C9.09552 5.70881 9.1126 5.40735 9.08095 5.35535C9.0798 5.35345 9.0782 5.35188 9.0766 5.35032Z" fill="black"/>
</g>
</g>
</g>
</g>
<defs>
<clipPath id="clip0_1597_9773">
<rect width="26.24" height="34.24" fill="white" transform="translate(0.879883)"/>
</clipPath>
</defs>
</svg>
