<svg width="206" height="60" viewBox="0 0 206 60" fill="none" xmlns="http://www.w3.org/2000/svg">
<g id="Frame 36829">
<g id="Deep nude">
<path d="M2.8306 41.8947C2.4707 41.8947 2.20807 41.812 2.04272 41.6466C1.87736 41.4813 1.79468 41.2186 1.79468 40.8587V24.7654C1.79468 24.4055 1.87736 24.1478 2.04272 23.9921C2.20807 23.8268 2.4707 23.7441 2.8306 23.7441H8.63762C10.4177 23.7441 11.9253 24.0943 13.1607 24.7946C14.4057 25.4852 15.3444 26.5066 15.9766 27.8586C16.6186 29.2107 16.9396 30.8594 16.9396 32.8048C16.9396 34.7599 16.6186 36.4135 15.9766 37.7656C15.3444 39.1176 14.4057 40.1438 13.1607 40.8441C11.9253 41.5445 10.4177 41.8947 8.63762 41.8947H2.8306ZM8.63762 38.4951C10.0188 38.4951 11.0645 38.0136 11.7746 37.0506C12.4846 36.0779 12.8397 34.6626 12.8397 32.8048C12.8397 30.9567 12.4846 29.5511 11.7746 28.5881C11.0645 27.6154 10.0188 27.1291 8.63762 27.1291H5.82165V38.4951H8.63762Z" fill="#F2F2F2"/>
<path d="M20.2668 41.8947C19.9069 41.8947 19.6443 41.812 19.4789 41.6466C19.3136 41.4813 19.2309 41.2186 19.2309 40.8587V24.7654C19.2309 24.4055 19.3136 24.1478 19.4789 23.9921C19.6443 23.8268 19.9069 23.7441 20.2668 23.7441H29.7652C30.0376 23.7441 30.2321 23.8462 30.3488 24.0505C30.4753 24.2548 30.5385 24.5855 30.5385 25.0426V25.8305C30.5385 26.2877 30.4753 26.6184 30.3488 26.8227C30.2321 27.027 30.0376 27.1291 29.7652 27.1291H23.2287V30.8934H29.0649C29.3372 30.8934 29.5318 30.9956 29.6485 31.1998C29.775 31.4041 29.8382 31.7348 29.8382 32.192V32.9945C29.8382 33.4516 29.775 33.7824 29.6485 33.9866C29.5318 34.1909 29.3372 34.293 29.0649 34.293H23.2287V38.4951H29.7798C30.0522 38.4951 30.2467 38.5972 30.3634 38.8015C30.4899 39.0057 30.5531 39.3316 30.5531 39.779V40.5961C30.5531 41.0533 30.4899 41.384 30.3634 41.5883C30.2467 41.7925 30.0522 41.8947 29.7798 41.8947H20.2668Z" fill="#F2F2F2"/>
<path d="M33.8511 41.8947C33.4912 41.8947 33.2286 41.812 33.0633 41.6466C32.8979 41.4813 32.8152 41.2186 32.8152 40.8587V24.7654C32.8152 24.4055 32.8979 24.1478 33.0633 23.9921C33.2286 23.8268 33.4912 23.7441 33.8511 23.7441H43.3496C43.6219 23.7441 43.8164 23.8462 43.9332 24.0505C44.0596 24.2548 44.1228 24.5855 44.1228 25.0426V25.8305C44.1228 26.2877 44.0596 26.6184 43.9332 26.8227C43.8164 27.027 43.6219 27.1291 43.3496 27.1291H36.813V30.8934H42.6492C42.9216 30.8934 43.1161 30.9956 43.2328 31.1998C43.3593 31.4041 43.4225 31.7348 43.4225 32.192V32.9945C43.4225 33.4516 43.3593 33.7824 43.2328 33.9866C43.1161 34.1909 42.9216 34.293 42.6492 34.293H36.813V38.4951H43.3641C43.6365 38.4951 43.831 38.5972 43.9478 38.8015C44.0742 39.0057 44.1374 39.3316 44.1374 39.779V40.5961C44.1374 41.0533 44.0742 41.384 43.9478 41.5883C43.831 41.7925 43.6365 41.8947 43.3641 41.8947H33.8511Z" fill="#F2F2F2"/>
<path d="M47.9607 41.9384C46.9199 41.9384 46.3995 41.6661 46.3995 41.1214V24.7654C46.3995 24.4055 46.4822 24.1478 46.6476 23.9921C46.8129 23.8268 47.0756 23.7441 47.4355 23.7441H52.8923C54.507 23.7441 55.9369 24.138 57.1819 24.9259C58.427 25.7138 59.0495 27.2118 59.0495 29.4198C59.0495 30.9372 58.6896 32.119 57.9698 32.9653C57.25 33.8018 56.4378 34.366 55.5332 34.6578C54.6383 34.9496 53.8407 35.0955 53.1404 35.0955H50.3973V41.1214C50.3973 41.6661 49.8769 41.9384 48.8362 41.9384H47.9607ZM52.7026 31.6667C53.3252 31.6667 53.8553 31.5014 54.293 31.1707C54.7404 30.8399 54.9642 30.2563 54.9642 29.4198C54.9642 28.5735 54.7404 27.9802 54.293 27.6398C53.8456 27.2993 53.3154 27.1291 52.7026 27.1291H50.3973V31.6667H52.7026Z" fill="#F2F2F2"/>
<path d="M67.805 41.9384C66.7642 41.9384 66.2438 41.6661 66.2438 41.1214V24.5174C66.2438 24.2353 66.3702 24.0262 66.6231 23.89C66.876 23.7441 67.27 23.6711 67.805 23.6711H68.9138C69.3321 23.6711 69.6774 23.7198 69.9498 23.817C70.2221 23.9143 70.4458 24.104 70.6209 24.3861L76.7489 33.8261L77.4493 34.8766V24.5174C77.4493 24.2353 77.5757 24.0262 77.8286 23.89C78.0815 23.7441 78.4755 23.6711 79.0105 23.6711H79.7546C80.2895 23.6711 80.6786 23.7441 80.9218 23.89C81.1747 24.0262 81.3012 24.2353 81.3012 24.5174V41.1214C81.3012 41.6661 80.7856 41.9384 79.7546 41.9384H78.7624C78.3344 41.9384 77.9891 41.8947 77.7265 41.8071C77.4639 41.7098 77.245 41.525 77.0699 41.2527L70.6501 31.4333L70.0957 30.6162V41.1214C70.0957 41.6661 69.5801 41.9384 68.5491 41.9384H67.805Z" fill="#F2F2F2"/>
<path d="M91.7339 42.1135C90.1582 42.1135 88.8061 41.8655 87.6778 41.3694C86.5592 40.8733 85.7032 40.1584 85.1099 39.2246C84.5165 38.2811 84.2198 37.1479 84.2198 35.825V24.5174C84.2198 24.2353 84.3463 24.0262 84.5992 23.89C84.8521 23.7441 85.246 23.6711 85.781 23.6711H86.6564C87.1914 23.6711 87.5805 23.7441 87.8237 23.89C88.0766 24.0262 88.203 24.2353 88.203 24.5174V35.5624C88.203 36.1655 88.3489 36.7053 88.6408 37.1819C88.9423 37.6586 89.3606 38.033 89.8955 38.3054C90.4305 38.568 91.0433 38.6993 91.7339 38.6993C92.4246 38.6993 93.0374 38.568 93.5723 38.3054C94.1171 38.033 94.5402 37.6586 94.8417 37.1819C95.1432 36.7053 95.294 36.1655 95.294 35.5624V24.5174C95.294 24.2353 95.4156 24.0262 95.6588 23.89C95.9117 23.7441 96.3056 23.6711 96.8406 23.6711H97.7015C98.2364 23.6711 98.6255 23.7441 98.8687 23.89C99.1216 24.0262 99.248 24.2353 99.248 24.5174V35.825C99.248 37.1479 98.9514 38.2811 98.358 39.2246C97.7647 40.1584 96.9038 40.8733 95.7755 41.3694C94.6569 41.8655 93.3097 42.1135 91.7339 42.1135Z" fill="#F2F2F2"/>
<path d="M103.203 41.8947C102.843 41.8947 102.58 41.812 102.415 41.6466C102.249 41.4813 102.167 41.2186 102.167 40.8587V24.7654C102.167 24.4055 102.249 24.1478 102.415 23.9921C102.58 23.8268 102.843 23.7441 103.203 23.7441H109.01C110.79 23.7441 112.297 24.0943 113.533 24.7946C114.778 25.4852 115.716 26.5066 116.349 27.8586C116.991 29.2107 117.312 30.8594 117.312 32.8048C117.312 34.7599 116.991 36.4135 116.349 37.7656C115.716 39.1176 114.778 40.1438 113.533 40.8441C112.297 41.5445 110.79 41.8947 109.01 41.8947H103.203ZM109.01 38.4951C110.391 38.4951 111.437 38.0136 112.147 37.0506C112.857 36.0779 113.212 34.6626 113.212 32.8048C113.212 30.9567 112.857 29.5511 112.147 28.5881C111.437 27.6154 110.391 27.1291 109.01 27.1291H106.194V38.4951H109.01Z" fill="#F2F2F2"/>
<path d="M120.639 41.8947C120.279 41.8947 120.016 41.812 119.851 41.6466C119.686 41.4813 119.603 41.2186 119.603 40.8587V24.7654C119.603 24.4055 119.686 24.1478 119.851 23.9921C120.016 23.8268 120.279 23.7441 120.639 23.7441H130.137C130.41 23.7441 130.604 23.8462 130.721 24.0505C130.847 24.2548 130.911 24.5855 130.911 25.0426V25.8305C130.911 26.2877 130.847 26.6184 130.721 26.8227C130.604 27.027 130.41 27.1291 130.137 27.1291H123.601V30.8934H129.437C129.709 30.8934 129.904 30.9956 130.021 31.1998C130.147 31.4041 130.21 31.7348 130.21 32.192V32.9945C130.21 33.4516 130.147 33.7824 130.021 33.9866C129.904 34.1909 129.709 34.293 129.437 34.293H123.601V38.4951H130.152C130.424 38.4951 130.619 38.5972 130.735 38.8015C130.862 39.0057 130.925 39.3316 130.925 39.779V40.5961C130.925 41.0533 130.862 41.384 130.735 41.5883C130.619 41.7925 130.424 41.8947 130.152 41.8947H120.639Z" fill="#F2F2F2"/>
</g>
<g id="Art">
<mask id="path-2-outside-1_604_312" maskUnits="userSpaceOnUse" x="102.168" y="12.9617" width="104" height="45" fill="black">
<rect fill="white" x="102.168" y="12.9617" width="104" height="45"/>
<path d="M136.534 23.725C136.299 23.725 136.064 23.6747 135.83 23.574C135.628 23.4398 135.461 23.3056 135.326 23.1714C134.991 22.8023 134.739 22.383 134.571 21.9132C134.404 21.41 134.32 20.9235 134.32 20.4538C134.32 19.5144 134.538 18.7259 134.974 18.0884C135.947 16.8135 137.155 15.8741 138.598 15.2702C140.074 14.6662 141.919 14.3643 144.133 14.3643C144.402 14.3643 144.67 14.3643 144.939 14.3643C145.241 14.3643 145.526 14.3811 145.794 14.4146C148.311 14.5488 150.777 14.8004 153.192 15.1695C155.608 15.5386 158.175 15.7231 160.892 15.7231C162.368 15.7231 163.694 15.656 164.868 15.5218C166.076 15.354 166.864 15.0689 167.233 14.6662H167.334C167.737 14.6662 167.938 14.8843 167.938 15.3205C167.904 15.958 167.535 16.3773 166.831 16.5786C166.16 16.7464 165.438 16.8303 164.667 16.8303C164.13 16.8303 163.61 16.8135 163.106 16.7799C162.603 16.7464 162.201 16.7128 161.899 16.6793C159.953 16.5115 157.705 16.2767 155.155 15.9747C152.639 15.6392 150.156 15.4715 147.707 15.4715C145.358 15.4715 143.194 15.7231 141.215 16.2264C139.269 16.7296 137.759 17.7194 136.685 19.1956C136.383 19.6318 136.165 20.0512 136.031 20.4538C135.897 20.8564 135.83 21.2422 135.83 21.6113C135.83 22.081 135.93 22.5004 136.132 22.8694C136.266 23.0037 136.417 23.1546 136.584 23.3224C136.752 23.4566 136.903 23.5237 137.037 23.5237C136.903 23.6579 136.735 23.725 136.534 23.725ZM113.434 51.3542C113.166 51.3542 112.881 51.3374 112.579 51.3039C112.277 51.3039 111.992 51.2871 111.723 51.2536C110.247 51.0522 108.855 50.6496 107.546 50.0457C106.238 49.4418 105.181 48.603 104.376 47.5294C103.57 46.4558 103.168 45.1305 103.168 43.5536C103.168 43.0168 103.218 42.4464 103.319 41.8425C103.554 40.7689 103.939 39.8127 104.476 38.9739C104.979 38.1351 105.516 37.4809 106.087 37.0112C106.657 36.5415 107.11 36.3066 107.445 36.3066C107.58 36.3066 107.714 36.3737 107.848 36.5079C107.11 36.9776 106.523 37.8667 106.087 39.1752C105.617 40.4501 105.382 41.7251 105.382 43C105.382 43.7046 105.449 44.3085 105.583 44.8118C105.986 46.3551 106.892 47.6804 108.301 48.7876C109.71 49.9283 111.539 50.4987 113.787 50.4987C116.303 50.4987 118.92 49.8109 121.638 48.4353C124.355 47.0597 127.073 45.2983 129.79 43.151C131.971 41.4399 134.169 39.4436 136.383 37.1622C138.631 34.8471 140.929 32.4147 143.278 29.8648H130.696L131.25 29.1603H143.882C143.949 29.0931 144.016 29.0428 144.083 29.0093C144.15 28.9422 144.201 28.8751 144.234 28.808C145.341 27.6337 146.583 26.3084 147.958 24.8322C149.334 23.3559 150.877 21.9468 152.588 20.6048C154.333 19.2292 156.229 18.1723 158.275 17.4342C159.483 17.0316 160.238 16.8303 160.54 16.8303C160.808 16.8303 160.942 16.8974 160.942 17.0316C160.942 17.1322 160.909 17.2664 160.842 17.4342C160.137 17.4342 159.315 17.6355 158.376 18.0381C157.47 18.4072 156.581 18.8769 155.709 19.4473C154.836 19.9841 154.081 20.5209 153.444 21.0577C152.504 21.8965 151.599 22.7856 150.726 23.725C149.887 24.6309 149.065 25.5703 148.26 26.5433L146.096 29.1603H150.626C151.766 27.7847 152.924 26.4594 154.098 25.1845C155.272 23.876 156.43 22.6681 157.571 21.561C158.309 20.8228 159.114 20.1183 159.986 19.4473C160.859 18.7762 161.714 18.2226 162.553 17.7865C163.392 17.3168 164.13 17.0819 164.767 17.0819C164.331 17.4174 163.66 18.0381 162.754 18.944C161.848 19.8163 161.01 20.6719 160.238 21.5106C159.198 22.6178 158.007 23.9599 156.665 25.5367C155.323 27.1136 153.997 28.7409 152.689 30.4184C151.38 32.096 150.206 33.6729 149.166 35.1491C148.126 36.5918 147.371 37.7661 146.901 38.6719C146.667 39.0746 146.465 39.4939 146.297 39.9301C146.13 40.3663 146.046 40.7689 146.046 41.1379C146.046 41.7754 146.331 42.0941 146.901 42.0941C147.304 42.0941 147.908 41.8928 148.713 41.4902C149.552 41.0205 150.34 40.4166 151.078 39.6785C151.817 38.9068 152.588 38.0513 153.394 37.1118C153.494 37.1118 153.544 37.1622 153.544 37.2628C153.544 37.397 153.477 37.5815 153.343 37.8164C153.243 38.0513 153.175 38.2358 153.142 38.37C151.8 39.9133 150.542 41.0708 149.367 41.8425C148.193 42.6142 146.985 43 145.744 43C144.972 43 144.419 42.8323 144.083 42.4968C143.748 42.1277 143.58 41.6748 143.58 41.1379C143.58 40.5676 143.697 39.9469 143.932 39.2759C144.201 38.6048 144.536 37.9338 144.939 37.2628C145.576 36.1221 146.331 34.931 147.203 33.6896C148.109 32.4147 149.065 31.1398 150.072 29.8648H145.492C143.177 32.616 140.728 35.3001 138.145 37.917C135.595 40.5005 132.676 42.9329 129.388 45.2144C126.804 47.0261 124.137 48.5024 121.386 49.6431C118.668 50.7838 116.018 51.3542 113.434 51.3542Z"/>
<path d="M146.678 43C146.611 43 146.577 42.9832 146.577 42.9497C146.577 42.9497 146.627 42.9161 146.728 42.849C146.829 42.7819 146.98 42.6981 147.181 42.5974C148.355 42.027 149.429 41.2889 150.402 40.383C151.341 39.4436 152.247 38.4539 153.119 37.4138C153.723 36.6421 154.478 35.6691 155.384 34.4949C156.324 33.287 157.297 32.0121 158.303 30.67C159.343 29.2945 160.333 27.986 161.272 26.7446C162.212 25.5032 163.017 24.4463 163.688 23.574C164.527 22.5675 165.382 21.6281 166.255 20.7557C167.161 19.8499 168.033 19.1285 168.872 18.5917C169.71 18.0213 170.432 17.7362 171.036 17.7362C171.472 17.7362 171.807 17.8704 172.042 18.1388C172.277 18.3736 172.394 18.642 172.394 18.944C172.394 19.4473 172.143 19.8331 171.64 20.1015C170.465 20.1015 169.325 20.437 168.217 21.108C167.11 21.7455 166.053 22.5843 165.047 23.6243C164.04 24.6309 163.118 25.671 162.279 26.7446C162.95 26.8788 163.638 26.9794 164.342 27.0465C165.08 27.0801 165.768 27.0969 166.406 27.0969C166.942 27.0969 167.429 27.0801 167.865 27.0465C168.335 27.013 168.687 26.9627 168.922 26.8956C169.224 26.8956 169.375 26.9627 169.375 27.0969C169.408 27.1975 169.392 27.2814 169.325 27.3485C169.19 27.4827 168.905 27.7847 168.469 28.2544C168.066 28.7241 167.597 29.2441 167.06 29.8145C166.557 30.3513 166.087 30.8714 165.651 31.3746C165.215 31.8443 164.896 32.1966 164.695 32.4315C163.654 33.6729 162.614 35.0317 161.574 36.5079C160.568 37.9842 159.863 39.3094 159.461 40.4837C159.326 40.7857 159.259 41.0708 159.259 41.3392C159.259 41.809 159.477 42.0438 159.914 42.0438C160.383 42.0438 160.92 41.8257 161.524 41.3896C162.161 40.9534 162.765 40.4501 163.336 39.8798C163.94 39.2759 164.46 38.7223 164.896 38.219C165.366 37.6822 165.668 37.3299 165.802 37.1622C165.902 37.1622 165.953 37.2125 165.953 37.3131C165.953 37.4473 165.886 37.6319 165.751 37.8667C165.651 38.068 165.584 38.2358 165.55 38.37C165.047 38.9739 164.443 39.6449 163.738 40.383C163.034 41.0876 162.279 41.7083 161.474 42.2451C160.702 42.7484 159.93 43 159.159 43C158.32 43 157.716 42.7987 157.347 42.3961C157.011 41.9599 156.844 41.4231 156.844 40.7857C156.844 40.4166 156.894 40.0308 156.995 39.6281C157.196 38.6216 157.699 37.5648 158.504 36.4576C159.31 35.3504 160.266 34.2432 161.373 33.136C162.48 32.0289 163.604 31.0223 164.745 30.1165C165.919 29.2106 166.959 28.4557 167.865 27.8518C167.697 27.8853 167.462 27.9189 167.161 27.9524C166.859 27.9524 166.523 27.9524 166.154 27.9524C165.382 27.9524 164.544 27.9189 163.638 27.8518C162.765 27.7511 162.128 27.6169 161.725 27.4492C161.625 27.5498 161.507 27.7008 161.373 27.9021C160.668 28.8415 159.846 29.9319 158.907 31.1733C158.001 32.4147 157.045 33.6896 156.038 34.9981C155.032 36.3066 154.059 37.5144 153.119 38.6216C152.65 39.1584 152.079 39.7791 151.408 40.4837C150.737 41.1547 149.999 41.7419 149.194 42.2451C148.389 42.7484 147.55 43 146.678 43Z"/>
<path d="M172.046 57.1921C168.489 57.1921 165.939 56.3365 164.396 54.6254C162.819 52.9143 162.131 50.7335 162.333 48.083C162.534 45.6338 163.138 43.2517 164.144 40.9366C165.151 38.5881 166.426 36.3402 167.969 34.1929C169.513 32.0121 171.207 29.9319 173.052 27.9524C174.898 25.9729 176.726 24.1276 178.538 22.4165C178.102 22.383 177.615 22.3662 177.078 22.3662C176.575 22.3326 176.055 22.3159 175.518 22.3159C174.378 22.3159 173.237 22.3997 172.096 22.5675C170.989 22.7352 170.15 23.1043 169.58 23.6747C169.278 23.6747 169.127 23.5237 169.127 23.2217C169.127 22.5843 169.664 22.1481 170.737 21.9132C171.844 21.6448 173.22 21.5106 174.864 21.5106C175.535 21.5106 176.24 21.5274 176.978 21.561C177.716 21.5945 178.471 21.6448 179.242 21.7119C179.746 21.2422 180.249 20.8228 180.752 20.4538C181.255 20.0847 181.708 19.7828 182.111 19.5479C183.118 18.944 183.973 18.491 184.678 18.1891C185.382 17.8871 186.003 17.7362 186.54 17.7362C185.802 18.1723 184.946 18.7427 183.973 19.4473C183.034 20.1518 182.061 20.9906 181.054 21.9636C182.732 22.0978 184.493 22.2655 186.338 22.4668C188.184 22.6346 190.012 22.7185 191.824 22.7185C193.233 22.7185 194.642 22.6178 196.051 22.4165C197.494 22.1817 198.803 21.8294 199.977 21.3597C201.185 20.8899 202.141 20.2692 202.846 19.4976C203.55 18.7259 203.902 17.7865 203.902 16.6793C203.902 16.0083 203.751 15.4211 203.449 14.9179C203.147 14.4146 202.812 14.163 202.443 14.163C202.577 14.0288 202.762 13.9617 202.996 13.9617C203.768 13.9617 204.372 14.314 204.808 15.0185C205.278 15.7231 205.513 16.4109 205.513 17.0819C205.513 18.3904 205.161 19.464 204.456 20.3028C203.785 21.1416 202.879 21.7958 201.738 22.2655C200.631 22.7352 199.423 23.0708 198.115 23.2721C196.806 23.4734 195.531 23.574 194.29 23.574C191.874 23.574 189.526 23.4398 187.244 23.1714C184.996 22.903 182.715 22.6849 180.4 22.5172C178.588 24.2618 176.726 26.2413 174.814 28.4557C172.901 30.67 171.207 33.0018 169.731 35.4511C168.993 36.6253 168.254 38.0177 167.516 39.6281C166.778 41.2386 166.158 42.8994 165.654 44.6105C165.151 46.3216 164.899 47.9488 164.899 49.4921C164.899 50.8006 165.134 51.9749 165.604 53.015C166.107 54.0886 166.912 54.9274 168.02 55.5313C169.16 56.1688 170.687 56.4875 172.599 56.4875C174.21 56.4875 175.871 56.0513 177.582 55.179C179.326 54.3402 181.004 53.0989 182.614 51.4549C184.258 49.8109 185.701 47.8146 186.942 45.466C187.211 44.9292 187.513 44.2246 187.848 43.3523C188.217 42.5135 188.536 41.6244 188.804 40.685C189.073 39.712 189.207 38.8062 189.207 37.9674C189.207 37.0951 188.989 36.3569 188.553 35.753C188.15 35.1491 187.395 34.8471 186.288 34.8471C184.98 34.8471 183.772 35.233 182.665 36.0046C181.557 36.7763 180.568 37.7325 179.695 38.8733C178.857 40.014 178.118 41.1547 177.481 42.2955C176.877 43.4362 176.424 44.3924 176.122 45.1641C175.82 45.9357 175.686 46.3216 175.72 46.3216C175.686 46.3216 175.636 46.1874 175.569 45.919C175.535 45.6505 175.518 45.3989 175.518 45.1641C175.518 44.9963 175.535 44.8789 175.569 44.8118C175.636 44.4763 175.82 43.8891 176.122 43.0503C176.458 42.2451 176.911 41.3392 177.481 40.3327C178.051 39.3262 178.756 38.3532 179.595 37.4138C180.467 36.4408 181.457 35.6524 182.564 35.0484C183.705 34.411 184.98 34.0922 186.389 34.0922C187.999 34.0922 189.106 34.5955 189.71 35.602C190.348 36.575 190.667 37.699 190.667 38.9739C190.667 40.1146 190.482 41.3057 190.113 42.5471C189.777 43.7885 189.375 44.8118 188.905 45.617C186.791 49.5425 184.225 52.4446 181.205 54.3235C178.219 56.2359 175.166 57.1921 172.046 57.1921Z"/>
</mask>
<path d="M136.534 23.725C136.299 23.725 136.064 23.6747 135.83 23.574C135.628 23.4398 135.461 23.3056 135.326 23.1714C134.991 22.8023 134.739 22.383 134.571 21.9132C134.404 21.41 134.32 20.9235 134.32 20.4538C134.32 19.5144 134.538 18.7259 134.974 18.0884C135.947 16.8135 137.155 15.8741 138.598 15.2702C140.074 14.6662 141.919 14.3643 144.133 14.3643C144.402 14.3643 144.67 14.3643 144.939 14.3643C145.241 14.3643 145.526 14.3811 145.794 14.4146C148.311 14.5488 150.777 14.8004 153.192 15.1695C155.608 15.5386 158.175 15.7231 160.892 15.7231C162.368 15.7231 163.694 15.656 164.868 15.5218C166.076 15.354 166.864 15.0689 167.233 14.6662H167.334C167.737 14.6662 167.938 14.8843 167.938 15.3205C167.904 15.958 167.535 16.3773 166.831 16.5786C166.16 16.7464 165.438 16.8303 164.667 16.8303C164.13 16.8303 163.61 16.8135 163.106 16.7799C162.603 16.7464 162.201 16.7128 161.899 16.6793C159.953 16.5115 157.705 16.2767 155.155 15.9747C152.639 15.6392 150.156 15.4715 147.707 15.4715C145.358 15.4715 143.194 15.7231 141.215 16.2264C139.269 16.7296 137.759 17.7194 136.685 19.1956C136.383 19.6318 136.165 20.0512 136.031 20.4538C135.897 20.8564 135.83 21.2422 135.83 21.6113C135.83 22.081 135.93 22.5004 136.132 22.8694C136.266 23.0037 136.417 23.1546 136.584 23.3224C136.752 23.4566 136.903 23.5237 137.037 23.5237C136.903 23.6579 136.735 23.725 136.534 23.725ZM113.434 51.3542C113.166 51.3542 112.881 51.3374 112.579 51.3039C112.277 51.3039 111.992 51.2871 111.723 51.2536C110.247 51.0522 108.855 50.6496 107.546 50.0457C106.238 49.4418 105.181 48.603 104.376 47.5294C103.57 46.4558 103.168 45.1305 103.168 43.5536C103.168 43.0168 103.218 42.4464 103.319 41.8425C103.554 40.7689 103.939 39.8127 104.476 38.9739C104.979 38.1351 105.516 37.4809 106.087 37.0112C106.657 36.5415 107.11 36.3066 107.445 36.3066C107.58 36.3066 107.714 36.3737 107.848 36.5079C107.11 36.9776 106.523 37.8667 106.087 39.1752C105.617 40.4501 105.382 41.7251 105.382 43C105.382 43.7046 105.449 44.3085 105.583 44.8118C105.986 46.3551 106.892 47.6804 108.301 48.7876C109.71 49.9283 111.539 50.4987 113.787 50.4987C116.303 50.4987 118.92 49.8109 121.638 48.4353C124.355 47.0597 127.073 45.2983 129.79 43.151C131.971 41.4399 134.169 39.4436 136.383 37.1622C138.631 34.8471 140.929 32.4147 143.278 29.8648H130.696L131.25 29.1603H143.882C143.949 29.0931 144.016 29.0428 144.083 29.0093C144.15 28.9422 144.201 28.8751 144.234 28.808C145.341 27.6337 146.583 26.3084 147.958 24.8322C149.334 23.3559 150.877 21.9468 152.588 20.6048C154.333 19.2292 156.229 18.1723 158.275 17.4342C159.483 17.0316 160.238 16.8303 160.54 16.8303C160.808 16.8303 160.942 16.8974 160.942 17.0316C160.942 17.1322 160.909 17.2664 160.842 17.4342C160.137 17.4342 159.315 17.6355 158.376 18.0381C157.47 18.4072 156.581 18.8769 155.709 19.4473C154.836 19.9841 154.081 20.5209 153.444 21.0577C152.504 21.8965 151.599 22.7856 150.726 23.725C149.887 24.6309 149.065 25.5703 148.26 26.5433L146.096 29.1603H150.626C151.766 27.7847 152.924 26.4594 154.098 25.1845C155.272 23.876 156.43 22.6681 157.571 21.561C158.309 20.8228 159.114 20.1183 159.986 19.4473C160.859 18.7762 161.714 18.2226 162.553 17.7865C163.392 17.3168 164.13 17.0819 164.767 17.0819C164.331 17.4174 163.66 18.0381 162.754 18.944C161.848 19.8163 161.01 20.6719 160.238 21.5106C159.198 22.6178 158.007 23.9599 156.665 25.5367C155.323 27.1136 153.997 28.7409 152.689 30.4184C151.38 32.096 150.206 33.6729 149.166 35.1491C148.126 36.5918 147.371 37.7661 146.901 38.6719C146.667 39.0746 146.465 39.4939 146.297 39.9301C146.13 40.3663 146.046 40.7689 146.046 41.1379C146.046 41.7754 146.331 42.0941 146.901 42.0941C147.304 42.0941 147.908 41.8928 148.713 41.4902C149.552 41.0205 150.34 40.4166 151.078 39.6785C151.817 38.9068 152.588 38.0513 153.394 37.1118C153.494 37.1118 153.544 37.1622 153.544 37.2628C153.544 37.397 153.477 37.5815 153.343 37.8164C153.243 38.0513 153.175 38.2358 153.142 38.37C151.8 39.9133 150.542 41.0708 149.367 41.8425C148.193 42.6142 146.985 43 145.744 43C144.972 43 144.419 42.8323 144.083 42.4968C143.748 42.1277 143.58 41.6748 143.58 41.1379C143.58 40.5676 143.697 39.9469 143.932 39.2759C144.201 38.6048 144.536 37.9338 144.939 37.2628C145.576 36.1221 146.331 34.931 147.203 33.6896C148.109 32.4147 149.065 31.1398 150.072 29.8648H145.492C143.177 32.616 140.728 35.3001 138.145 37.917C135.595 40.5005 132.676 42.9329 129.388 45.2144C126.804 47.0261 124.137 48.5024 121.386 49.6431C118.668 50.7838 116.018 51.3542 113.434 51.3542Z" fill="url(#paint0_linear_604_312)"/>
<path d="M146.678 43C146.611 43 146.577 42.9832 146.577 42.9497C146.577 42.9497 146.627 42.9161 146.728 42.849C146.829 42.7819 146.98 42.6981 147.181 42.5974C148.355 42.027 149.429 41.2889 150.402 40.383C151.341 39.4436 152.247 38.4539 153.119 37.4138C153.723 36.6421 154.478 35.6691 155.384 34.4949C156.324 33.287 157.297 32.0121 158.303 30.67C159.343 29.2945 160.333 27.986 161.272 26.7446C162.212 25.5032 163.017 24.4463 163.688 23.574C164.527 22.5675 165.382 21.6281 166.255 20.7557C167.161 19.8499 168.033 19.1285 168.872 18.5917C169.71 18.0213 170.432 17.7362 171.036 17.7362C171.472 17.7362 171.807 17.8704 172.042 18.1388C172.277 18.3736 172.394 18.642 172.394 18.944C172.394 19.4473 172.143 19.8331 171.64 20.1015C170.465 20.1015 169.325 20.437 168.217 21.108C167.11 21.7455 166.053 22.5843 165.047 23.6243C164.04 24.6309 163.118 25.671 162.279 26.7446C162.95 26.8788 163.638 26.9794 164.342 27.0465C165.08 27.0801 165.768 27.0969 166.406 27.0969C166.942 27.0969 167.429 27.0801 167.865 27.0465C168.335 27.013 168.687 26.9627 168.922 26.8956C169.224 26.8956 169.375 26.9627 169.375 27.0969C169.408 27.1975 169.392 27.2814 169.325 27.3485C169.19 27.4827 168.905 27.7847 168.469 28.2544C168.066 28.7241 167.597 29.2441 167.06 29.8145C166.557 30.3513 166.087 30.8714 165.651 31.3746C165.215 31.8443 164.896 32.1966 164.695 32.4315C163.654 33.6729 162.614 35.0317 161.574 36.5079C160.568 37.9842 159.863 39.3094 159.461 40.4837C159.326 40.7857 159.259 41.0708 159.259 41.3392C159.259 41.809 159.477 42.0438 159.914 42.0438C160.383 42.0438 160.92 41.8257 161.524 41.3896C162.161 40.9534 162.765 40.4501 163.336 39.8798C163.94 39.2759 164.46 38.7223 164.896 38.219C165.366 37.6822 165.668 37.3299 165.802 37.1622C165.902 37.1622 165.953 37.2125 165.953 37.3131C165.953 37.4473 165.886 37.6319 165.751 37.8667C165.651 38.068 165.584 38.2358 165.55 38.37C165.047 38.9739 164.443 39.6449 163.738 40.383C163.034 41.0876 162.279 41.7083 161.474 42.2451C160.702 42.7484 159.93 43 159.159 43C158.32 43 157.716 42.7987 157.347 42.3961C157.011 41.9599 156.844 41.4231 156.844 40.7857C156.844 40.4166 156.894 40.0308 156.995 39.6281C157.196 38.6216 157.699 37.5648 158.504 36.4576C159.31 35.3504 160.266 34.2432 161.373 33.136C162.48 32.0289 163.604 31.0223 164.745 30.1165C165.919 29.2106 166.959 28.4557 167.865 27.8518C167.697 27.8853 167.462 27.9189 167.161 27.9524C166.859 27.9524 166.523 27.9524 166.154 27.9524C165.382 27.9524 164.544 27.9189 163.638 27.8518C162.765 27.7511 162.128 27.6169 161.725 27.4492C161.625 27.5498 161.507 27.7008 161.373 27.9021C160.668 28.8415 159.846 29.9319 158.907 31.1733C158.001 32.4147 157.045 33.6896 156.038 34.9981C155.032 36.3066 154.059 37.5144 153.119 38.6216C152.65 39.1584 152.079 39.7791 151.408 40.4837C150.737 41.1547 149.999 41.7419 149.194 42.2451C148.389 42.7484 147.55 43 146.678 43Z" fill="url(#paint1_linear_604_312)"/>
<path d="M172.046 57.1921C168.489 57.1921 165.939 56.3365 164.396 54.6254C162.819 52.9143 162.131 50.7335 162.333 48.083C162.534 45.6338 163.138 43.2517 164.144 40.9366C165.151 38.5881 166.426 36.3402 167.969 34.1929C169.513 32.0121 171.207 29.9319 173.052 27.9524C174.898 25.9729 176.726 24.1276 178.538 22.4165C178.102 22.383 177.615 22.3662 177.078 22.3662C176.575 22.3326 176.055 22.3159 175.518 22.3159C174.378 22.3159 173.237 22.3997 172.096 22.5675C170.989 22.7352 170.15 23.1043 169.58 23.6747C169.278 23.6747 169.127 23.5237 169.127 23.2217C169.127 22.5843 169.664 22.1481 170.737 21.9132C171.844 21.6448 173.22 21.5106 174.864 21.5106C175.535 21.5106 176.24 21.5274 176.978 21.561C177.716 21.5945 178.471 21.6448 179.242 21.7119C179.746 21.2422 180.249 20.8228 180.752 20.4538C181.255 20.0847 181.708 19.7828 182.111 19.5479C183.118 18.944 183.973 18.491 184.678 18.1891C185.382 17.8871 186.003 17.7362 186.54 17.7362C185.802 18.1723 184.946 18.7427 183.973 19.4473C183.034 20.1518 182.061 20.9906 181.054 21.9636C182.732 22.0978 184.493 22.2655 186.338 22.4668C188.184 22.6346 190.012 22.7185 191.824 22.7185C193.233 22.7185 194.642 22.6178 196.051 22.4165C197.494 22.1817 198.803 21.8294 199.977 21.3597C201.185 20.8899 202.141 20.2692 202.846 19.4976C203.55 18.7259 203.902 17.7865 203.902 16.6793C203.902 16.0083 203.751 15.4211 203.449 14.9179C203.147 14.4146 202.812 14.163 202.443 14.163C202.577 14.0288 202.762 13.9617 202.996 13.9617C203.768 13.9617 204.372 14.314 204.808 15.0185C205.278 15.7231 205.513 16.4109 205.513 17.0819C205.513 18.3904 205.161 19.464 204.456 20.3028C203.785 21.1416 202.879 21.7958 201.738 22.2655C200.631 22.7352 199.423 23.0708 198.115 23.2721C196.806 23.4734 195.531 23.574 194.29 23.574C191.874 23.574 189.526 23.4398 187.244 23.1714C184.996 22.903 182.715 22.6849 180.4 22.5172C178.588 24.2618 176.726 26.2413 174.814 28.4557C172.901 30.67 171.207 33.0018 169.731 35.4511C168.993 36.6253 168.254 38.0177 167.516 39.6281C166.778 41.2386 166.158 42.8994 165.654 44.6105C165.151 46.3216 164.899 47.9488 164.899 49.4921C164.899 50.8006 165.134 51.9749 165.604 53.015C166.107 54.0886 166.912 54.9274 168.02 55.5313C169.16 56.1688 170.687 56.4875 172.599 56.4875C174.21 56.4875 175.871 56.0513 177.582 55.179C179.326 54.3402 181.004 53.0989 182.614 51.4549C184.258 49.8109 185.701 47.8146 186.942 45.466C187.211 44.9292 187.513 44.2246 187.848 43.3523C188.217 42.5135 188.536 41.6244 188.804 40.685C189.073 39.712 189.207 38.8062 189.207 37.9674C189.207 37.0951 188.989 36.3569 188.553 35.753C188.15 35.1491 187.395 34.8471 186.288 34.8471C184.98 34.8471 183.772 35.233 182.665 36.0046C181.557 36.7763 180.568 37.7325 179.695 38.8733C178.857 40.014 178.118 41.1547 177.481 42.2955C176.877 43.4362 176.424 44.3924 176.122 45.1641C175.82 45.9357 175.686 46.3216 175.72 46.3216C175.686 46.3216 175.636 46.1874 175.569 45.919C175.535 45.6505 175.518 45.3989 175.518 45.1641C175.518 44.9963 175.535 44.8789 175.569 44.8118C175.636 44.4763 175.82 43.8891 176.122 43.0503C176.458 42.2451 176.911 41.3392 177.481 40.3327C178.051 39.3262 178.756 38.3532 179.595 37.4138C180.467 36.4408 181.457 35.6524 182.564 35.0484C183.705 34.411 184.98 34.0922 186.389 34.0922C187.999 34.0922 189.106 34.5955 189.71 35.602C190.348 36.575 190.667 37.699 190.667 38.9739C190.667 40.1146 190.482 41.3057 190.113 42.5471C189.777 43.7885 189.375 44.8118 188.905 45.617C186.791 49.5425 184.225 52.4446 181.205 54.3235C178.219 56.2359 175.166 57.1921 172.046 57.1921Z" fill="url(#paint2_linear_604_312)"/>
<path d="M136.534 23.725C136.299 23.725 136.064 23.6747 135.83 23.574C135.628 23.4398 135.461 23.3056 135.326 23.1714C134.991 22.8023 134.739 22.383 134.571 21.9132C134.404 21.41 134.32 20.9235 134.32 20.4538C134.32 19.5144 134.538 18.7259 134.974 18.0884C135.947 16.8135 137.155 15.8741 138.598 15.2702C140.074 14.6662 141.919 14.3643 144.133 14.3643C144.402 14.3643 144.67 14.3643 144.939 14.3643C145.241 14.3643 145.526 14.3811 145.794 14.4146C148.311 14.5488 150.777 14.8004 153.192 15.1695C155.608 15.5386 158.175 15.7231 160.892 15.7231C162.368 15.7231 163.694 15.656 164.868 15.5218C166.076 15.354 166.864 15.0689 167.233 14.6662H167.334C167.737 14.6662 167.938 14.8843 167.938 15.3205C167.904 15.958 167.535 16.3773 166.831 16.5786C166.16 16.7464 165.438 16.8303 164.667 16.8303C164.13 16.8303 163.61 16.8135 163.106 16.7799C162.603 16.7464 162.201 16.7128 161.899 16.6793C159.953 16.5115 157.705 16.2767 155.155 15.9747C152.639 15.6392 150.156 15.4715 147.707 15.4715C145.358 15.4715 143.194 15.7231 141.215 16.2264C139.269 16.7296 137.759 17.7194 136.685 19.1956C136.383 19.6318 136.165 20.0512 136.031 20.4538C135.897 20.8564 135.83 21.2422 135.83 21.6113C135.83 22.081 135.93 22.5004 136.132 22.8694C136.266 23.0037 136.417 23.1546 136.584 23.3224C136.752 23.4566 136.903 23.5237 137.037 23.5237C136.903 23.6579 136.735 23.725 136.534 23.725ZM113.434 51.3542C113.166 51.3542 112.881 51.3374 112.579 51.3039C112.277 51.3039 111.992 51.2871 111.723 51.2536C110.247 51.0522 108.855 50.6496 107.546 50.0457C106.238 49.4418 105.181 48.603 104.376 47.5294C103.57 46.4558 103.168 45.1305 103.168 43.5536C103.168 43.0168 103.218 42.4464 103.319 41.8425C103.554 40.7689 103.939 39.8127 104.476 38.9739C104.979 38.1351 105.516 37.4809 106.087 37.0112C106.657 36.5415 107.11 36.3066 107.445 36.3066C107.58 36.3066 107.714 36.3737 107.848 36.5079C107.11 36.9776 106.523 37.8667 106.087 39.1752C105.617 40.4501 105.382 41.7251 105.382 43C105.382 43.7046 105.449 44.3085 105.583 44.8118C105.986 46.3551 106.892 47.6804 108.301 48.7876C109.71 49.9283 111.539 50.4987 113.787 50.4987C116.303 50.4987 118.92 49.8109 121.638 48.4353C124.355 47.0597 127.073 45.2983 129.79 43.151C131.971 41.4399 134.169 39.4436 136.383 37.1622C138.631 34.8471 140.929 32.4147 143.278 29.8648H130.696L131.25 29.1603H143.882C143.949 29.0931 144.016 29.0428 144.083 29.0093C144.15 28.9422 144.201 28.8751 144.234 28.808C145.341 27.6337 146.583 26.3084 147.958 24.8322C149.334 23.3559 150.877 21.9468 152.588 20.6048C154.333 19.2292 156.229 18.1723 158.275 17.4342C159.483 17.0316 160.238 16.8303 160.54 16.8303C160.808 16.8303 160.942 16.8974 160.942 17.0316C160.942 17.1322 160.909 17.2664 160.842 17.4342C160.137 17.4342 159.315 17.6355 158.376 18.0381C157.47 18.4072 156.581 18.8769 155.709 19.4473C154.836 19.9841 154.081 20.5209 153.444 21.0577C152.504 21.8965 151.599 22.7856 150.726 23.725C149.887 24.6309 149.065 25.5703 148.26 26.5433L146.096 29.1603H150.626C151.766 27.7847 152.924 26.4594 154.098 25.1845C155.272 23.876 156.43 22.6681 157.571 21.561C158.309 20.8228 159.114 20.1183 159.986 19.4473C160.859 18.7762 161.714 18.2226 162.553 17.7865C163.392 17.3168 164.13 17.0819 164.767 17.0819C164.331 17.4174 163.66 18.0381 162.754 18.944C161.848 19.8163 161.01 20.6719 160.238 21.5106C159.198 22.6178 158.007 23.9599 156.665 25.5367C155.323 27.1136 153.997 28.7409 152.689 30.4184C151.38 32.096 150.206 33.6729 149.166 35.1491C148.126 36.5918 147.371 37.7661 146.901 38.6719C146.667 39.0746 146.465 39.4939 146.297 39.9301C146.13 40.3663 146.046 40.7689 146.046 41.1379C146.046 41.7754 146.331 42.0941 146.901 42.0941C147.304 42.0941 147.908 41.8928 148.713 41.4902C149.552 41.0205 150.34 40.4166 151.078 39.6785C151.817 38.9068 152.588 38.0513 153.394 37.1118C153.494 37.1118 153.544 37.1622 153.544 37.2628C153.544 37.397 153.477 37.5815 153.343 37.8164C153.243 38.0513 153.175 38.2358 153.142 38.37C151.8 39.9133 150.542 41.0708 149.367 41.8425C148.193 42.6142 146.985 43 145.744 43C144.972 43 144.419 42.8323 144.083 42.4968C143.748 42.1277 143.58 41.6748 143.58 41.1379C143.58 40.5676 143.697 39.9469 143.932 39.2759C144.201 38.6048 144.536 37.9338 144.939 37.2628C145.576 36.1221 146.331 34.931 147.203 33.6896C148.109 32.4147 149.065 31.1398 150.072 29.8648H145.492C143.177 32.616 140.728 35.3001 138.145 37.917C135.595 40.5005 132.676 42.9329 129.388 45.2144C126.804 47.0261 124.137 48.5024 121.386 49.6431C118.668 50.7838 116.018 51.3542 113.434 51.3542Z" stroke="#F4FF3A" strokeWidth="0.441429" mask="url(#path-2-outside-1_604_312)"/>
<path d="M146.678 43C146.611 43 146.577 42.9832 146.577 42.9497C146.577 42.9497 146.627 42.9161 146.728 42.849C146.829 42.7819 146.98 42.6981 147.181 42.5974C148.355 42.027 149.429 41.2889 150.402 40.383C151.341 39.4436 152.247 38.4539 153.119 37.4138C153.723 36.6421 154.478 35.6691 155.384 34.4949C156.324 33.287 157.297 32.0121 158.303 30.67C159.343 29.2945 160.333 27.986 161.272 26.7446C162.212 25.5032 163.017 24.4463 163.688 23.574C164.527 22.5675 165.382 21.6281 166.255 20.7557C167.161 19.8499 168.033 19.1285 168.872 18.5917C169.71 18.0213 170.432 17.7362 171.036 17.7362C171.472 17.7362 171.807 17.8704 172.042 18.1388C172.277 18.3736 172.394 18.642 172.394 18.944C172.394 19.4473 172.143 19.8331 171.64 20.1015C170.465 20.1015 169.325 20.437 168.217 21.108C167.11 21.7455 166.053 22.5843 165.047 23.6243C164.04 24.6309 163.118 25.671 162.279 26.7446C162.95 26.8788 163.638 26.9794 164.342 27.0465C165.08 27.0801 165.768 27.0969 166.406 27.0969C166.942 27.0969 167.429 27.0801 167.865 27.0465C168.335 27.013 168.687 26.9627 168.922 26.8956C169.224 26.8956 169.375 26.9627 169.375 27.0969C169.408 27.1975 169.392 27.2814 169.325 27.3485C169.19 27.4827 168.905 27.7847 168.469 28.2544C168.066 28.7241 167.597 29.2441 167.06 29.8145C166.557 30.3513 166.087 30.8714 165.651 31.3746C165.215 31.8443 164.896 32.1966 164.695 32.4315C163.654 33.6729 162.614 35.0317 161.574 36.5079C160.568 37.9842 159.863 39.3094 159.461 40.4837C159.326 40.7857 159.259 41.0708 159.259 41.3392C159.259 41.809 159.477 42.0438 159.914 42.0438C160.383 42.0438 160.92 41.8257 161.524 41.3896C162.161 40.9534 162.765 40.4501 163.336 39.8798C163.94 39.2759 164.46 38.7223 164.896 38.219C165.366 37.6822 165.668 37.3299 165.802 37.1622C165.902 37.1622 165.953 37.2125 165.953 37.3131C165.953 37.4473 165.886 37.6319 165.751 37.8667C165.651 38.068 165.584 38.2358 165.55 38.37C165.047 38.9739 164.443 39.6449 163.738 40.383C163.034 41.0876 162.279 41.7083 161.474 42.2451C160.702 42.7484 159.93 43 159.159 43C158.32 43 157.716 42.7987 157.347 42.3961C157.011 41.9599 156.844 41.4231 156.844 40.7857C156.844 40.4166 156.894 40.0308 156.995 39.6281C157.196 38.6216 157.699 37.5648 158.504 36.4576C159.31 35.3504 160.266 34.2432 161.373 33.136C162.48 32.0289 163.604 31.0223 164.745 30.1165C165.919 29.2106 166.959 28.4557 167.865 27.8518C167.697 27.8853 167.462 27.9189 167.161 27.9524C166.859 27.9524 166.523 27.9524 166.154 27.9524C165.382 27.9524 164.544 27.9189 163.638 27.8518C162.765 27.7511 162.128 27.6169 161.725 27.4492C161.625 27.5498 161.507 27.7008 161.373 27.9021C160.668 28.8415 159.846 29.9319 158.907 31.1733C158.001 32.4147 157.045 33.6896 156.038 34.9981C155.032 36.3066 154.059 37.5144 153.119 38.6216C152.65 39.1584 152.079 39.7791 151.408 40.4837C150.737 41.1547 149.999 41.7419 149.194 42.2451C148.389 42.7484 147.55 43 146.678 43Z" stroke="#F4FF3A" strokeWidth="0.441429" mask="url(#path-2-outside-1_604_312)"/>
<path d="M172.046 57.1921C168.489 57.1921 165.939 56.3365 164.396 54.6254C162.819 52.9143 162.131 50.7335 162.333 48.083C162.534 45.6338 163.138 43.2517 164.144 40.9366C165.151 38.5881 166.426 36.3402 167.969 34.1929C169.513 32.0121 171.207 29.9319 173.052 27.9524C174.898 25.9729 176.726 24.1276 178.538 22.4165C178.102 22.383 177.615 22.3662 177.078 22.3662C176.575 22.3326 176.055 22.3159 175.518 22.3159C174.378 22.3159 173.237 22.3997 172.096 22.5675C170.989 22.7352 170.15 23.1043 169.58 23.6747C169.278 23.6747 169.127 23.5237 169.127 23.2217C169.127 22.5843 169.664 22.1481 170.737 21.9132C171.844 21.6448 173.22 21.5106 174.864 21.5106C175.535 21.5106 176.24 21.5274 176.978 21.561C177.716 21.5945 178.471 21.6448 179.242 21.7119C179.746 21.2422 180.249 20.8228 180.752 20.4538C181.255 20.0847 181.708 19.7828 182.111 19.5479C183.118 18.944 183.973 18.491 184.678 18.1891C185.382 17.8871 186.003 17.7362 186.54 17.7362C185.802 18.1723 184.946 18.7427 183.973 19.4473C183.034 20.1518 182.061 20.9906 181.054 21.9636C182.732 22.0978 184.493 22.2655 186.338 22.4668C188.184 22.6346 190.012 22.7185 191.824 22.7185C193.233 22.7185 194.642 22.6178 196.051 22.4165C197.494 22.1817 198.803 21.8294 199.977 21.3597C201.185 20.8899 202.141 20.2692 202.846 19.4976C203.55 18.7259 203.902 17.7865 203.902 16.6793C203.902 16.0083 203.751 15.4211 203.449 14.9179C203.147 14.4146 202.812 14.163 202.443 14.163C202.577 14.0288 202.762 13.9617 202.996 13.9617C203.768 13.9617 204.372 14.314 204.808 15.0185C205.278 15.7231 205.513 16.4109 205.513 17.0819C205.513 18.3904 205.161 19.464 204.456 20.3028C203.785 21.1416 202.879 21.7958 201.738 22.2655C200.631 22.7352 199.423 23.0708 198.115 23.2721C196.806 23.4734 195.531 23.574 194.29 23.574C191.874 23.574 189.526 23.4398 187.244 23.1714C184.996 22.903 182.715 22.6849 180.4 22.5172C178.588 24.2618 176.726 26.2413 174.814 28.4557C172.901 30.67 171.207 33.0018 169.731 35.4511C168.993 36.6253 168.254 38.0177 167.516 39.6281C166.778 41.2386 166.158 42.8994 165.654 44.6105C165.151 46.3216 164.899 47.9488 164.899 49.4921C164.899 50.8006 165.134 51.9749 165.604 53.015C166.107 54.0886 166.912 54.9274 168.02 55.5313C169.16 56.1688 170.687 56.4875 172.599 56.4875C174.21 56.4875 175.871 56.0513 177.582 55.179C179.326 54.3402 181.004 53.0989 182.614 51.4549C184.258 49.8109 185.701 47.8146 186.942 45.466C187.211 44.9292 187.513 44.2246 187.848 43.3523C188.217 42.5135 188.536 41.6244 188.804 40.685C189.073 39.712 189.207 38.8062 189.207 37.9674C189.207 37.0951 188.989 36.3569 188.553 35.753C188.15 35.1491 187.395 34.8471 186.288 34.8471C184.98 34.8471 183.772 35.233 182.665 36.0046C181.557 36.7763 180.568 37.7325 179.695 38.8733C178.857 40.014 178.118 41.1547 177.481 42.2955C176.877 43.4362 176.424 44.3924 176.122 45.1641C175.82 45.9357 175.686 46.3216 175.72 46.3216C175.686 46.3216 175.636 46.1874 175.569 45.919C175.535 45.6505 175.518 45.3989 175.518 45.1641C175.518 44.9963 175.535 44.8789 175.569 44.8118C175.636 44.4763 175.82 43.8891 176.122 43.0503C176.458 42.2451 176.911 41.3392 177.481 40.3327C178.051 39.3262 178.756 38.3532 179.595 37.4138C180.467 36.4408 181.457 35.6524 182.564 35.0484C183.705 34.411 184.98 34.0922 186.389 34.0922C187.999 34.0922 189.106 34.5955 189.71 35.602C190.348 36.575 190.667 37.699 190.667 38.9739C190.667 40.1146 190.482 41.3057 190.113 42.5471C189.777 43.7885 189.375 44.8118 188.905 45.617C186.791 49.5425 184.225 52.4446 181.205 54.3235C178.219 56.2359 175.166 57.1921 172.046 57.1921Z" stroke="#F4FF3A" strokeWidth="0.441429" mask="url(#path-2-outside-1_604_312)"/>
</g>
</g>
<defs>
<linearGradient id="paint0_linear_604_312" x1="108.15" y1="29.9998" x2="206" y2="29.9998" gradientUnits="userSpaceOnUse">
<stop stop-color="#24FE41"/>
<stop offset="1" stop-color="#FDFC47"/>
</linearGradient>
<linearGradient id="paint1_linear_604_312" x1="108.15" y1="29.9998" x2="206" y2="29.9998" gradientUnits="userSpaceOnUse">
<stop stop-color="#24FE41"/>
<stop offset="1" stop-color="#FDFC47"/>
</linearGradient>
<linearGradient id="paint2_linear_604_312" x1="108.15" y1="29.9998" x2="206" y2="29.9998" gradientUnits="userSpaceOnUse">
<stop stop-color="#24FE41"/>
<stop offset="1" stop-color="#FDFC47"/>
</linearGradient>
</defs>
</svg>
