<svg width="20" height="21" viewBox="0 0 20 21" fill="none" xmlns="http://www.w3.org/2000/svg">
<g id="Outline / Essentional, UI / Magic Stick 3">
<g id="Vector">
<path fill-rule="evenodd" clip-rule="evenodd" d="M13.0289 2.27027C13.3015 1.57658 14.2814 1.57657 14.554 2.27027L14.9107 3.17795L15.8145 3.53575C16.5057 3.80934 16.5057 4.78928 15.8145 5.06287L14.9107 5.42067L14.554 6.32835C14.2814 7.02204 13.3015 7.02205 13.0289 6.32835L12.6722 5.42067L11.7684 5.06287C11.0772 4.78928 11.0772 3.80934 11.7684 3.53575L12.6722 3.17795L13.0289 2.27027ZM13.7915 2.60824L14.1371 3.48778C14.2201 3.69909 14.387 3.86689 14.5985 3.95061L15.4793 4.29931L14.5985 4.64801C14.387 4.73173 14.2201 4.89953 14.1371 5.11084L13.7915 5.99038L13.4458 5.11084C13.3628 4.89953 13.1959 4.73173 12.9844 4.64801L12.1036 4.29931L12.9844 3.95061C13.1959 3.86689 13.3628 3.69909 13.4458 3.48778L13.7915 2.60824Z" fill="white"/>
<path fill-rule="evenodd" clip-rule="evenodd" d="M2.76183 3.26183C3.94427 2.07939 5.86139 2.07939 7.04383 3.26183L17.2382 13.4562C18.4206 14.6386 18.4206 16.5557 17.2382 17.7382C16.0557 18.9206 14.1386 18.9206 12.9562 17.7382L2.76183 7.54383C1.57939 6.36139 1.57939 4.44427 2.76183 3.26183ZM6.15994 4.14571C5.46566 3.45143 4.34 3.45143 3.64571 4.14571C2.95143 4.84 2.95143 5.96566 3.64571 6.65994L4.96761 7.98184L7.48184 5.46761L6.15994 4.14571ZM13.8401 16.8543L5.8515 8.86573L8.36573 6.3515L16.3543 14.3401C17.0486 15.0343 17.0486 16.16 16.3543 16.8543C15.66 17.5486 14.5343 17.5486 13.8401 16.8543Z" fill="white"/>
<path fill-rule="evenodd" clip-rule="evenodd" d="M17.7766 7.9555C17.504 7.2618 16.5241 7.2618 16.2515 7.9555L16.1227 8.28322L15.7967 8.4123C15.1055 8.68588 15.1055 9.66582 15.7967 9.93941L16.1227 10.0685L16.2515 10.3962C16.5241 11.0899 17.504 11.0899 17.7766 10.3962L17.9054 10.0685L18.2315 9.93941C18.9226 9.66582 18.9226 8.68588 18.2315 8.4123L17.9054 8.28322L17.7766 7.9555ZM17.0141 8.29346L16.8964 8.59305C16.8133 8.80437 16.6464 8.97216 16.435 9.05588L16.1319 9.17585L16.435 9.29583C16.6464 9.37955 16.8133 9.54734 16.8964 9.75866L17.0141 10.0582L17.1318 9.75866C17.2148 9.54734 17.3817 9.37955 17.5932 9.29583L17.8963 9.17585L17.5932 9.05588C17.3817 8.97216 17.2148 8.80437 17.1318 8.59305L17.0141 8.29346Z" fill="white"/>
<path fill-rule="evenodd" clip-rule="evenodd" d="M3.88986 13.1036C4.16245 12.4099 5.1424 12.4099 5.41498 13.1036L5.54376 13.4313L5.86982 13.5604C6.56096 13.834 6.56096 14.8139 5.86982 15.0875L5.54376 15.2166L5.41498 15.5443C5.1424 16.238 4.16245 16.238 3.88986 15.5443L3.76109 15.2166L3.43502 15.0875C2.74388 14.8139 2.74388 13.834 3.43502 13.5604L3.76109 13.4313L3.88986 13.1036ZM4.5347 13.7412L4.65242 13.4416L4.77014 13.7412C4.85318 13.9525 5.02005 14.1203 5.23154 14.204L5.53462 14.324L5.23154 14.4439C5.02005 14.5277 4.85318 14.6955 4.77014 14.9068L4.65242 15.2064L4.5347 14.9068C4.45167 14.6955 4.28479 14.5277 4.0733 14.4439L3.77022 14.324L4.0733 14.204C4.28479 14.1203 4.45167 13.9525 4.5347 13.7412Z" fill="white"/>
</g>
</g>
</svg>
