<svg width="21" height="20" viewBox="0 0 21 20" fill="none" xmlns="http://www.w3.org/2000/svg">
<g id="mastercard-alt.svg" clip-path="url(#clip0_945_19008)">
<path id="Vector" d="M13.1851 5.32031H7.77832V15.0378H13.1851V5.32031Z" fill="#FF5F00"/>
<path id="Vector_2" d="M8.1348 10.1797C8.13395 9.24388 8.34607 8.32005 8.75508 7.47827C9.16412 6.6365 9.75929 5.89883 10.4956 5.32112C9.58395 4.60459 8.48909 4.159 7.33618 4.03528C6.18326 3.91156 5.01879 4.1147 3.97587 4.62149C2.93295 5.12828 2.05365 5.91827 1.43848 6.90117C0.823303 7.88406 0.49707 9.02022 0.49707 10.1797C0.49707 11.3393 0.823303 12.4754 1.43848 13.4583C2.05365 14.4412 2.93295 15.2312 3.97587 15.738C5.01879 16.2448 6.18326 16.448 7.33618 16.3242C8.48909 16.2005 9.58395 15.7549 10.4956 15.0384C9.75929 14.4606 9.16412 13.723 8.75509 12.8812C8.34608 12.0395 8.13396 11.1156 8.1348 10.1797Z" fill="#EB001B"/>
<path id="Vector_3" d="M19.9052 14.0093V13.8104H19.9854V13.7699H19.7812V13.8104H19.8615V14.0093H19.9052ZM20.3018 14.0093V13.7695H20.2392L20.1672 13.9345L20.0952 13.7695H20.0326V14.0093H20.0767V13.8284L20.1442 13.9844H20.1902L20.2577 13.828V14.0093H20.3018Z" fill="#F79E1B"/>
<path id="Vector_4" d="M14.3152 4.00001C12.9297 3.99786 11.5841 4.46335 10.4961 5.32113C11.2318 5.89942 11.8265 6.6372 12.2354 7.47884C12.6444 8.32048 12.8569 9.24405 12.8569 10.1797C12.8569 11.1155 12.6444 12.039 12.2354 12.8806C11.8265 13.7223 11.2318 14.46 10.4961 15.0384C11.2706 15.6471 12.1794 16.062 13.1468 16.2482C14.1141 16.4345 15.112 16.3867 16.0572 16.109C17.0023 15.8314 17.8674 15.3317 18.5803 14.6518C19.2932 13.9719 19.8332 13.1314 20.1553 12.2005C20.4773 11.2695 20.5723 10.275 20.4319 9.29988C20.2917 8.3248 19.9203 7.39737 19.3488 6.59494C18.7774 5.79252 18.0224 5.13833 17.1468 4.68693C16.2712 4.23554 15.3003 4.00002 14.3152 4.00001Z" fill="#F79E1B"/>
</g>
<defs>
<clipPath id="clip0_945_19008">
<rect width="20" height="20" fill="white" transform="translate(0.495117)"/>
</clipPath>
</defs>
</svg>
