<svg width="24" height="24" viewBox="0 0 24 24" fill="none" xmlns="http://www.w3.org/2000/svg">
<g id="fi_732072" clip-path="url(#clip0_164_64802)">
<g id="Group">
<g id="Group_2">
<path id="Vector" d="M23.25 5.25101H13.5V1.50101C13.5 1.27751 13.401 1.06601 13.2285 0.923511C13.0575 0.781011 12.828 0.719511 12.612 0.764511L0.612 3.01451C0.2565 3.08051 0 3.38951 0 3.75101V20.251C0 20.611 0.2565 20.9215 0.612 20.9875L12.612 23.2375C12.657 23.2465 12.7035 23.251 12.75 23.251C12.924 23.251 13.0935 23.191 13.2285 23.0785C13.401 22.936 13.5 22.723 13.5 22.501V18.751H23.25C23.664 18.751 24 18.415 24 18.001V6.00101C24 5.58701 23.664 5.25101 23.25 5.25101ZM6.75 17.251C4.683 17.251 3 15.232 3 12.751C3 10.27 4.683 8.25101 6.75 8.25101C8.817 8.25101 10.5 10.27 10.5 12.751C10.5 15.232 8.817 17.251 6.75 17.251ZM13.5 6.75101H21.0645L16.4565 10.3345L13.5 8.45501V6.75101ZM22.5 17.251H13.5V10.2325L16.0965 11.884C16.2195 11.962 16.3605 12.001 16.5 12.001C16.662 12.001 16.8255 11.9485 16.9605 11.8435L22.5 7.53401V17.251Z" fill="white"/>
</g>
</g>
<g id="Group_3">
<g id="Group_4">
<path id="Vector_2" d="M6.75 15.752C7.99264 15.752 9 14.4088 9 12.752C9 11.0951 7.99264 9.75195 6.75 9.75195C5.50736 9.75195 4.5 11.0951 4.5 12.752C4.5 14.4088 5.50736 15.752 6.75 15.752Z" fill="white"/>
</g>
</g>
</g>
<defs>
<clipPath id="clip0_164_64802">
<rect width="24" height="24" fill="white"/>
</clipPath>
</defs>
</svg>
