<svg width="45" height="45" viewBox="0 0 45 45" fill="none" xmlns="http://www.w3.org/2000/svg">
<g id="fi_145808" clip-path="url(#clip0_637_90)">
<g id="Group">
<path id="Vector" d="M22.4996 44.9992C34.9258 44.9992 44.9992 34.9258 44.9992 22.4996C44.9992 10.0734 34.9258 0 22.4996 0C10.0734 0 0 10.0734 0 22.4996C0 34.9258 10.0734 44.9992 22.4996 44.9992Z" fill="#1D1D1D"/>
<g id="Group_2">
<path id="Vector_2" d="M24.0868 29.3361C22.6002 29.2211 21.9755 28.4839 20.8095 27.7762C20.1687 31.1383 19.3856 34.3612 17.066 36.0449C16.3491 30.9634 18.117 27.1466 18.938 23.0953C17.5386 20.7396 19.1062 15.998 22.0579 17.1664C25.6906 18.603 18.9127 25.9256 23.4629 26.8402C28.2132 27.7951 30.1524 18.5977 27.2064 15.6061C22.95 11.287 14.8169 15.5079 15.817 21.6909C16.0606 23.2025 17.6227 23.6614 16.441 25.7472C13.7169 25.1439 12.9043 22.9953 13.0087 20.131C13.1774 15.4424 17.2217 12.1595 21.2782 11.7052C26.4085 11.131 31.2237 13.589 31.8883 18.4147C32.6361 23.8612 29.5723 29.7596 24.0868 29.3361Z" fill="#CB2027"/>
</g>
</g>
</g>
<defs>
<clipPath id="clip0_637_90">
<rect width="45" height="45" fill="white"/>
</clipPath>
</defs>
</svg>
