<svg width="18" height="18" viewBox="0 0 18 18" fill="none" xmlns="http://www.w3.org/2000/svg">
<g id="High panel" clip-path="url(#clip0_792_1612)">
<path id="Vector" d="M14.9625 18L11.7562 18C11.1349 18 10.6312 17.4963 10.6312 16.875L10.6312 13.6688C10.6312 13.0475 11.1349 12.5438 11.7562 12.5438C12.3776 12.5438 12.8812 13.0475 12.8812 13.6688L12.8812 14.5284C14.6617 13.2861 15.75 11.2502 15.75 9C15.75 6.20019 14.0656 3.73191 11.4587 2.71174C10.8801 2.48527 10.5947 1.83262 10.8211 1.25409C11.0475 0.675492 11.7001 0.390023 12.2787 0.616465C13.9459 1.26893 15.3692 2.39351 16.3946 3.86863C17.4448 5.37954 18 7.15391 18 9C18 10.8461 17.4448 12.6205 16.3946 14.1314C15.9773 14.7317 15.494 15.274 14.9553 15.75L14.9624 15.75C15.5837 15.75 16.0874 16.2537 16.0874 16.875C16.0874 17.4963 15.5838 18 14.9625 18ZM7.17887 16.7459C7.40535 16.1673 7.11981 15.5147 6.54124 15.2883C3.93441 14.2681 2.25 11.7998 2.25 9C2.25 6.79757 3.29252 4.80044 5.00625 3.55184L5.00625 4.33121C5.00625 4.95253 5.50993 5.45621 6.13125 5.45621C6.75257 5.45621 7.25625 4.95253 7.25625 4.33121L7.25625 1.125C7.25625 0.503683 6.75257 -4.91641e-07 6.13125 -5.188e-07L2.925 -6.58949e-07C2.30368 -6.86108e-07 1.8 0.503683 1.8 1.125C1.8 1.74632 2.30368 2.25 2.925 2.25L3.04467 2.25C2.50594 2.72601 2.02272 3.2683 1.60541 3.86863C0.555153 5.37954 -3.12707e-07 7.15391 -3.93403e-07 9C-4.74098e-07 10.8461 0.555152 12.6205 1.60541 14.1314C2.63081 15.6065 4.05404 16.7311 5.72126 17.3835C6.29982 17.61 6.95243 17.3245 7.17887 16.7459Z" fill="#A5A5A5"/>
</g>
<defs>
<clipPath id="clip0_792_1612">
<rect width="18" height="18" fill="white"/>
</clipPath>
</defs>
</svg>
