<svg width="20" height="20" viewBox="0 0 20 20" fill="none" xmlns="http://www.w3.org/2000/svg">
<g id="fi_3877811">
<path id="Vector" fill-rule="evenodd" clip-rule="evenodd" d="M11.1286 14.1768V15.5639H12.0502C12.6737 15.5639 13.1794 16.0695 13.1794 16.693C13.1794 17.3165 12.6737 17.8222 12.0502 17.8222H11.1286V18.8708C11.1286 19.4943 10.623 20 9.99945 20C9.37594 20 8.87031 19.4944 8.87031 18.8708V17.8222H7.94832C7.325 17.8222 6.81918 17.3164 6.81918 16.693C6.81918 16.0696 7.325 15.5639 7.94832 15.5639H8.87031V14.1768C5.44457 13.6307 2.86621 10.6537 2.86621 7.13324C2.86621 3.19969 6.06586 0 9.99945 0C13.933 0 17.1329 3.19965 17.1329 7.13324C17.1329 10.6537 14.5545 13.6307 11.1286 14.1768ZM5.12434 7.13324C5.12434 9.82094 7.3118 12.0082 9.99941 12.0082C12.6871 12.0082 14.8745 9.82102 14.8745 7.13324C14.8745 4.44547 12.6871 2.25832 9.99941 2.25832C7.31184 2.25832 5.12434 4.44555 5.12434 7.13324Z" fill="white"/>
</g>
</svg>
