<svg width="20" height="20" viewBox="0 0 20 20" fill="none" xmlns="http://www.w3.org/2000/svg">
<g id="fi_3877812" clip-path="url(#clip0_160_40975)">
<path id="Vector" fill-rule="evenodd" clip-rule="evenodd" d="M17.647 4.01672L14.5678 7.09582C15.6075 8.48805 16.1632 10.1663 16.1632 11.9185C16.1632 14.0758 15.3216 16.1075 13.7961 17.6329C12.2705 19.1582 10.239 20 8.08168 20C5.92434 20 3.89262 19.1583 2.36715 17.6329C0.84168 16.1074 0 14.0758 0 11.9185C0 9.76109 0.841601 7.72941 2.36711 6.20395C3.89254 4.67852 5.92438 3.8368 8.08164 3.8368C9.83383 3.8368 11.5118 4.39262 12.9042 5.43211L15.9832 2.35297H14.7617C14.1121 2.35297 13.5852 1.82602 13.5852 1.17648C13.5852 0.526953 14.1122 0 14.7618 0H18.8235C19.4731 0 20 0.526953 20 1.17648V5.23824C20 5.88777 19.4731 6.41473 18.8235 6.41473C18.1739 6.41473 17.647 5.88777 17.647 5.23824V4.01672ZM12.1323 15.9694C13.2152 14.8866 13.8102 13.4498 13.8102 11.9185C13.8102 10.3873 13.2151 8.95047 12.1323 7.86781C11.0496 6.78527 9.61277 6.1898 8.08168 6.1898C6.55027 6.1898 5.11348 6.78496 4.03055 7.86777C2.94785 8.95039 2.35293 10.3874 2.35293 11.9185C2.35293 13.4497 2.94777 14.8866 4.03055 15.9694C5.11336 17.0522 6.55031 17.6472 8.08164 17.6472C9.6127 17.6472 11.0496 17.052 12.1323 15.9694Z" fill="#A5A5A5"/>
</g>
<defs>
<clipPath id="clip0_160_40975">
<rect width="20" height="20" fill="white"/>
</clipPath>
</defs>
</svg>
