<svg xmlns="http://www.w3.org/2000/svg" width="100" height="100" viewBox="0 0 100 100" fill="none">
  <path d="M49.9994 95.8332C24.5827 95.8332 4.16602 75.4165 4.16602 49.9998C4.16602 47.4998 5.83268 45.8332 8.33268 45.8332C10.8327 45.8332 12.4993 47.4998 12.4993 49.9998C12.4993 70.8332 29.166 87.4998 49.9994 87.4998C70.8327 87.4998 87.4994 70.8332 87.4994 49.9998C87.4994 29.1665 70.8327 12.4998 49.9994 12.4998C47.4994 12.4998 45.8327 10.8332 45.8327 8.33317C45.8327 5.83317 47.4994 4.1665 49.9994 4.1665C75.416 4.1665 95.8327 24.5832 95.8327 49.9998C95.8327 75.4165 75.416 95.8332 49.9994 95.8332Z" fill="#0F0F0F"/>
  <path d="M49.9994 95.8332C24.5827 95.8332 4.16602 75.4165 4.16602 49.9998C4.16602 47.4998 5.83268 45.8332 8.33268 45.8332C10.8327 45.8332 12.4993 47.4998 12.4993 49.9998C12.4993 70.8332 29.166 87.4998 49.9994 87.4998C70.8327 87.4998 87.4994 70.8332 87.4994 49.9998C87.4994 29.1665 70.8327 12.4998 49.9994 12.4998C47.4994 12.4998 45.8327 10.8332 45.8327 8.33317C45.8327 5.83317 47.4994 4.1665 49.9994 4.1665C75.416 4.1665 95.8327 24.5832 95.8327 49.9998C95.8327 75.4165 75.416 95.8332 49.9994 95.8332Z" fill="url(#paint0_linear_160_39575)"/>
  <defs>
    <linearGradient id="paint0_linear_160_39575" x1="95.8327" y1="-1.56267" x2="4.16602" y2="95.8332" gradientUnits="userSpaceOnUse">
      <stop stop-color="#4E9F0D"/>
      <stop offset="1" stop-color="#0BBC87"/>
    </linearGradient>
  </defs>
</svg>