<svg width="44" height="44" viewBox="0 0 44 44" fill="none" xmlns="http://www.w3.org/2000/svg">
<g id="fi_5531120">
<g id="Vector" filter="url(#filter0_i_78_14219)">
<path d="M3.50598 17.8147C3.32585 17.8147 3.1526 17.8424 2.98631 17.884V6.69349C2.98631 6.40938 3.21499 6.17383 3.50598 6.17383H6.54782C6.82497 6.17383 7.05365 6.39555 7.06748 6.67278L7.56635 19.8657L4.46212 18.078C4.17122 17.9048 3.83855 17.8147 3.50598 17.8147ZM40.4865 17.8147C40.6666 17.8147 40.8469 17.8424 41.0131 17.8909V6.69349C41.0131 6.40938 40.7776 6.17383 40.4935 6.17383H37.4516C37.1675 6.17383 36.9389 6.39555 36.932 6.67278L36.4331 19.8657L39.5373 18.0711C39.8352 17.9048 40.1609 17.8147 40.4865 17.8147ZM10.83 37.826C8.99377 37.826 7.12988 37.3617 5.4253 36.3778C0.242414 33.3844 -1.53838 26.7325 1.45499 21.5565C1.91227 20.7665 2.47352 20.0251 3.13877 19.353C3.29809 19.1867 3.56141 19.152 3.76233 19.2698L20.9466 29.1923H23.046L40.2302 19.2698C40.438 19.152 40.6945 19.1867 40.8608 19.3599C41.519 20.0251 42.0872 20.7665 42.5445 21.5564C43.9927 24.0647 44.3738 26.9888 43.6255 29.7882C42.8771 32.5875 41.0825 34.9226 38.5673 36.3777C36.8627 37.3617 35.0057 37.8259 33.1626 37.8259C29.414 37.8259 25.7554 35.8788 23.7529 32.4004C23.358 31.7213 23.0392 30.9938 22.8037 30.2316H21.1892C20.9535 30.9939 20.6417 31.7214 20.2469 32.4004C18.2372 35.8789 14.5856 37.826 10.83 37.826ZM25.4232 30.681C27.3644 32.6324 30.7407 31.5307 31.133 28.7832C33.1407 29.5973 35.4129 28.2934 35.7137 26.1375C38.2733 27.1716 40.9371 24.8127 40.2146 22.1414C40.1392 21.864 39.8529 21.7002 39.5772 21.7753C39.3001 21.8504 39.1363 22.1356 39.2111 22.4127C39.7929 24.5631 37.2753 26.2306 35.5175 24.8301C35.35 24.6961 35.1189 24.6788 34.9336 24.7861C34.7482 24.893 34.6477 25.1024 34.6795 25.3139C34.9977 27.4113 32.5761 28.7793 30.9405 27.4789C30.7737 27.346 30.5426 27.3287 30.3582 27.4349C30.1734 27.5408 30.0723 27.749 30.1028 27.9597C30.4243 30.1928 27.7263 31.5214 26.1601 29.9481C25.9575 29.7441 25.6279 29.7441 25.4253 29.946C25.2215 30.1488 25.2209 30.4776 25.4232 30.681ZM18.5733 30.681C18.7756 30.4776 18.7749 30.1484 18.5713 29.9461C18.3686 29.7442 18.039 29.7442 17.8364 29.9482C16.2711 31.5206 13.5721 30.194 13.8938 27.9598C13.9242 27.749 13.8227 27.5409 13.638 27.435C13.4543 27.3291 13.2235 27.3467 13.056 27.479C11.4131 28.7841 9.00065 27.4053 9.31707 25.314C9.34887 25.1025 9.24806 24.8931 9.06295 24.7862C8.87759 24.6789 8.64581 24.6962 8.47901 24.8302C6.72305 26.2304 4.20293 24.5639 4.78576 22.4131C4.86052 22.136 4.69681 21.8505 4.42001 21.7754C4.14329 21.7016 3.85737 21.864 3.78227 22.1411C3.05945 24.8113 5.72016 27.1731 8.28281 26.1372C8.58394 28.2916 10.8554 29.5988 12.8635 28.7833C13.2558 31.5323 16.6314 32.634 18.5733 30.681ZM15.213 18.366C14.926 18.366 14.6933 18.5988 14.6933 18.8856C14.6933 19.1725 14.9261 19.4053 15.213 19.4053C18.6667 19.4053 21.4765 22.2152 21.4765 25.6688C21.4765 25.9558 21.7093 26.1885 21.9962 26.1885C22.2831 26.1885 22.5159 25.9557 22.5159 25.6688C22.5159 22.2151 25.3277 19.4053 28.7839 19.4053C29.0708 19.4053 29.3036 19.1725 29.3036 18.8856C29.3036 18.5988 29.0707 18.366 28.7839 18.366C25.7054 18.366 23.0709 20.2811 21.9964 22.9797C20.9226 20.2811 18.2896 18.366 15.213 18.366Z" fill="#4B6742"/>
</g>
</g>
<defs>
<filter id="filter0_i_78_14219" x="0.00195312" y="6.17383" width="43.9978" height="31.6521" filterUnits="userSpaceOnUse" color-interpolation-filters="sRGB">
<feFlood flood-opacity="0" result="BackgroundImageFix"/>
<feBlend mode="normal" in="SourceGraphic" in2="BackgroundImageFix" result="shape"/>
<feColorMatrix in="SourceAlpha" type="matrix" values="0 0 0 0 0 0 0 0 0 0 0 0 0 0 0 0 0 0 127 0" result="hardAlpha"/>
<feOffset/>
<feGaussianBlur stdDeviation="3"/>
<feComposite in2="hardAlpha" operator="arithmetic" k2="-1" k3="1"/>
<feColorMatrix type="matrix" values="0 0 0 0 1 0 0 0 0 1 0 0 0 0 1 0 0 0 1 0"/>
<feBlend mode="normal" in2="shape" result="effect1_innerShadow_78_14219"/>
</filter>
</defs>
</svg>
