<svg width="16" height="18" viewBox="0 0 16 18" fill="none" xmlns="http://www.w3.org/2000/svg">
<g id="_x39_4.Trash">
<path id="Union" fill-rule="evenodd" clip-rule="evenodd" d="M11.0837 1.31055L15.2036 1.31055C15.507 1.31055 15.7529 1.55651 15.7529 1.85987V2.9585C15.7529 3.26187 15.507 3.50782 15.2036 3.50782L0.921387 3.50782C0.618023 3.50782 0.37207 3.26187 0.37207 2.9585L0.37207 1.85987C0.37207 1.55651 0.618023 1.31055 0.921387 1.31055L5.04128 1.31055L5.36401 0.66853C5.50112 0.388088 5.78652 0.210725 6.09871 0.21192L10.0228 0.21192C10.3356 0.211674 10.6216 0.38858 10.761 0.66853L11.0837 1.31055ZM3.84207 17.79C2.97202 17.7899 2.25195 17.1135 2.19757 16.2451L1.46973 4.60645L14.6533 4.60645L13.9255 16.2451C13.8711 17.1135 13.151 17.7899 12.281 17.79L3.84207 17.79Z" fill="#A5A5A5"/>
<path id="Vector" fill-rule="evenodd" clip-rule="evenodd" d="M6.11485 8.49864C6.30314 8.31035 6.60841 8.31035 6.7967 8.49864L8.06293 9.76486L9.32913 8.49865C9.51742 8.31036 9.8227 8.31036 10.011 8.49865C10.1993 8.68694 10.1993 8.99222 10.011 9.1805L8.74478 10.4467L10.011 11.7129C10.1993 11.9012 10.1993 12.2065 10.011 12.3948C9.82269 12.5831 9.51741 12.5831 9.32912 12.3948L8.06293 11.1286L6.79672 12.3948C6.60843 12.5831 6.30315 12.5831 6.11486 12.3948C5.92657 12.2065 5.92657 11.9012 6.11486 11.7129L7.38107 10.4467L6.11485 9.18049C5.92656 8.9922 5.92656 8.68693 6.11485 8.49864Z" fill="#1F1F1F"/>
</g>
</svg>
