<svg width="21" height="20" viewBox="0 0 21 20" fill="none" xmlns="http://www.w3.org/2000/svg">
<g id="visa.svg" clip-path="url(#clip0_945_18977)">
<path id="Vector" d="M20.4951 10C20.4951 4.47715 16.018 0 10.4951 0C4.97227 0 0.495117 4.47715 0.495117 10C0.495117 15.5228 4.97227 20 10.4951 20C16.018 20 20.4951 15.5228 20.4951 10Z" fill="#1A1F71"/>
<path id="Vector_2" fill-rule="evenodd" clip-rule="evenodd" d="M14.5789 7.46598C14.2887 7.35648 13.8364 7.24023 13.2739 7.24023C11.8339 7.24023 10.8176 7.96624 10.8101 9.00649C10.8011 9.7715 11.5331 10.202 12.0859 10.4585C12.6537 10.721 12.8434 10.886 12.8419 11.1222C12.8382 11.48 12.3882 11.642 11.9704 11.642C11.3959 11.642 11.0809 11.5617 10.5971 11.3607L10.4179 11.2775L10.2147 12.476C10.5641 12.6223 11.1941 12.7475 11.8459 12.7573C13.3767 12.7573 14.3772 12.0365 14.3892 10.928C14.4012 10.3182 14.0067 9.8555 13.1734 9.4745C12.6679 9.227 12.3529 9.06124 12.3529 8.80999C12.3529 8.58799 12.6222 8.35099 13.1847 8.35099C13.6684 8.34349 14.0067 8.44774 14.2759 8.55574L14.4109 8.61649L14.6142 7.45848L14.5789 7.46598ZM18.3162 7.33877H17.1912C16.8409 7.33877 16.5792 7.43403 16.4254 7.78203L14.2617 12.6825H15.7924L16.0984 11.88L17.9659 11.8815C18.0117 12.069 18.1459 12.6825 18.1459 12.6825H19.4952L18.3162 7.33877ZM10.1974 7.29367H8.74019V7.29217L7.82818 12.6404H9.28619L10.1974 7.29367ZM5.0359 10.2403L5.1874 10.9828L6.61316 7.33853H8.15742L5.86165 12.6748H4.32114L3.06113 8.15529C3.03488 8.07804 3.00263 8.02554 2.92613 7.97753C2.50013 7.75478 2.02387 7.57328 1.49512 7.44728L1.51387 7.33478H3.86214C4.18014 7.34678 4.43664 7.44728 4.52439 7.78778L5.0359 10.2425V10.2403ZM16.5175 10.7841H17.7282L17.3915 9.24135L17.2917 8.78009C17.2474 8.90137 17.1834 9.06743 17.1412 9.17678C17.1135 9.24867 17.0952 9.29605 17.0982 9.2901L16.5175 10.7841Z" fill="white"/>
</g>
<defs>
<clipPath id="clip0_945_18977">
<rect width="20" height="20" fill="white" transform="translate(0.495117)"/>
</clipPath>
</defs>
</svg>
