<svg width="70" height="76" viewBox="0 0 70 76" fill="none" xmlns="http://www.w3.org/2000/svg">
<g id="Icon" filter="url(#filter0_d_276_30360)">
<rect x="5" width="60" height="60" rx="17.1429" fill="url(#paint0_radial_276_30360)" shape-rendering="crispEdges"/>
<g id="Group" filter="url(#filter1_i_276_30360)">
<g id="Group_2">
<g id="Vector">
<path d="M48.9315 37.2733L38.6496 18.3724C36.9976 15.5913 32.9706 15.5876 31.3164 18.3724L21.035 37.2733C19.3462 40.1151 21.3908 43.7137 24.7007 43.7137H45.265C48.5721 43.7137 50.6203 40.118 48.9315 37.2733ZM34.983 40.3028C34.0428 40.3028 33.2775 39.5375 33.2775 38.5973C33.2775 37.6572 34.0428 36.8919 34.983 36.8919C35.9232 36.8919 36.6885 37.6572 36.6885 38.5973C36.6885 39.5375 35.9232 40.3028 34.983 40.3028ZM36.6885 33.4809C36.6885 34.4211 35.9232 35.1864 34.983 35.1864C34.0428 35.1864 33.2775 34.4211 33.2775 33.4809V24.9536C33.2775 24.0134 34.0428 23.2481 34.983 23.2481C35.9232 23.2481 36.6885 24.0134 36.6885 24.9536V33.4809Z" fill="black"/>
<path d="M48.9315 37.2733L38.6496 18.3724C36.9976 15.5913 32.9706 15.5876 31.3164 18.3724L21.035 37.2733C19.3462 40.1151 21.3908 43.7137 24.7007 43.7137H45.265C48.5721 43.7137 50.6203 40.118 48.9315 37.2733ZM34.983 40.3028C34.0428 40.3028 33.2775 39.5375 33.2775 38.5973C33.2775 37.6572 34.0428 36.8919 34.983 36.8919C35.9232 36.8919 36.6885 37.6572 36.6885 38.5973C36.6885 39.5375 35.9232 40.3028 34.983 40.3028ZM36.6885 33.4809C36.6885 34.4211 35.9232 35.1864 34.983 35.1864C34.0428 35.1864 33.2775 34.4211 33.2775 33.4809V24.9536C33.2775 24.0134 34.0428 23.2481 34.983 23.2481C35.9232 23.2481 36.6885 24.0134 36.6885 24.9536V33.4809Z" fill="#4B6742" fill-opacity="0.94"/>
</g>
</g>
</g>
</g>
<defs>
<filter id="filter0_d_276_30360" x="0.142857" y="0" width="69.7143" height="76" filterUnits="userSpaceOnUse" color-interpolation-filters="sRGB">
<feFlood flood-opacity="0" result="BackgroundImageFix"/>
<feColorMatrix in="SourceAlpha" type="matrix" values="0 0 0 0 0 0 0 0 0 0 0 0 0 0 0 0 0 0 127 0" result="hardAlpha"/>
<feMorphology radius="5.14286" operator="erode" in="SourceAlpha" result="effect1_dropShadow_276_30360"/>
<feOffset dy="11.1429"/>
<feGaussianBlur stdDeviation="5"/>
<feComposite in2="hardAlpha" operator="out"/>
<feColorMatrix type="matrix" values="0 0 0 0 0 0 0 0 0 0 0 0 0 0 0 0 0 0 0.25 0"/>
<feBlend mode="normal" in2="BackgroundImageFix" result="effect1_dropShadow_276_30360"/>
<feBlend mode="normal" in="SourceGraphic" in2="effect1_dropShadow_276_30360" result="shape"/>
</filter>
<filter id="filter1_i_276_30360" x="20.4297" y="16.2852" width="29.1064" height="27.4277" filterUnits="userSpaceOnUse" color-interpolation-filters="sRGB">
<feFlood flood-opacity="0" result="BackgroundImageFix"/>
<feBlend mode="normal" in="SourceGraphic" in2="BackgroundImageFix" result="shape"/>
<feColorMatrix in="SourceAlpha" type="matrix" values="0 0 0 0 0 0 0 0 0 0 0 0 0 0 0 0 0 0 127 0" result="hardAlpha"/>
<feOffset/>
<feGaussianBlur stdDeviation="1.24743"/>
<feComposite in2="hardAlpha" operator="arithmetic" k2="-1" k3="1"/>
<feColorMatrix type="matrix" values="0 0 0 0 1 0 0 0 0 1 0 0 0 0 1 0 0 0 1 0"/>
<feBlend mode="normal" in2="shape" result="effect1_innerShadow_276_30360"/>
</filter>
<radialGradient id="paint0_radial_276_30360" cx="0" cy="0" r="1" gradientUnits="userSpaceOnUse" gradientTransform="translate(35 88.2857) rotate(-90) scale(88.2857)">
<stop stop-color="#61FD42"/>
<stop offset="0.548774" stop-color="#141414"/>
<stop offset="1" stop-color="#283926"/>
</radialGradient>
</defs>
</svg>
