<svg width="45" height="45" viewBox="0 0 45 45" fill="none" xmlns="http://www.w3.org/2000/svg">
<g id="fi_5969020" clip-path="url(#clip0_637_110)">
<g id="Group">
<path id="Vector" d="M22.5 0C10.074 0 0 10.074 0 22.5C0 34.926 10.074 45 22.5 45C34.926 45 45 34.926 45 22.5C45 10.074 34.926 0 22.5 0Z" fill="#1D1D1D"/>
<path id="Vector_2" d="M24.3076 21.9686L31.3808 13.5H29.7046L23.563 20.8532L18.6577 13.5H13L20.4178 24.6193L13 33.5H14.6762L21.162 25.7348L26.3423 33.5H32L24.3071 21.9686H24.3076ZM15.2802 14.7997H17.8547L29.7054 32.2594H27.1308L15.2802 14.7997Z" fill="white"/>
</g>
</g>
<defs>
<clipPath id="clip0_637_110">
<rect width="45" height="45" fill="white"/>
</clipPath>
</defs>
</svg>
