<svg width="24" height="24" viewBox="0 0 24 24" fill="none" xmlns="http://www.w3.org/2000/svg">
<g id="fi_3669386" clip-path="url(#clip0_164_64811)">
<g id="Layer 2">
<g id="Color Icon">
<g id="80.Yahoo">
<path id="Background" d="M22.1053 0H1.89474C0.848303 0 0 0.848303 0 1.89474V22.1053C0 23.1517 0.848303 24 1.89474 24H22.1053C23.1517 24 24 23.1517 24 22.1053V1.89474C24 0.848303 23.1517 0 22.1053 0Z" fill="#6001D1"/>
<g id="Icon">
<path id="Vector" d="M10.6204 7.26445L8.27943 13.0739L6.01286 7.26213C5.98025 7.17883 5.92336 7.10726 5.84958 7.05669C5.77579 7.00612 5.68851 6.97888 5.59906 6.97852H2.44911C2.3763 6.97848 2.30461 6.99635 2.24034 7.03055C2.17606 7.06474 2.12119 7.11422 2.08054 7.17462C2.03989 7.23502 2.01471 7.30449 2.00723 7.37691C1.99975 7.44933 2.01019 7.52248 2.03764 7.58991L6.27787 17.9975L5.19457 20.6802C5.16563 20.748 5.15401 20.8219 5.16077 20.8953C5.16752 20.9687 5.19243 21.0392 5.23326 21.1006C5.27408 21.1619 5.32953 21.2121 5.39461 21.2467C5.45969 21.2813 5.53235 21.2991 5.60604 21.2986H8.64906C8.73745 21.299 8.82391 21.2728 8.89727 21.2235C8.97062 21.1741 9.0275 21.104 9.06053 21.022L14.4887 7.59921C14.5157 7.53286 14.5263 7.46095 14.5195 7.38962C14.5127 7.31829 14.4888 7.24966 14.4498 7.18959C14.4107 7.12952 14.3577 7.07979 14.2952 7.04465C14.2328 7.00952 14.1628 6.99002 14.0912 6.98781H11.0295C10.9415 6.98792 10.8556 7.01431 10.7827 7.0636C10.7098 7.11289 10.6533 7.18283 10.6204 7.26445Z" fill="white"/>
<path id="Vector_2" d="M18.0891 2.97787C18.1228 2.89495 18.1809 2.82416 18.2555 2.7748C18.3302 2.72543 18.418 2.69979 18.5076 2.70123H21.5552C21.6279 2.70078 21.6996 2.71829 21.764 2.75221C21.8283 2.78613 21.8832 2.8354 21.9239 2.89565C21.9647 2.95591 21.9899 3.02528 21.9973 3.09762C22.0048 3.16995 21.9942 3.24301 21.9667 3.3103L18.74 11.2421C18.7071 11.3244 18.6503 11.3949 18.577 11.4446C18.5037 11.4943 18.4171 11.521 18.3286 11.5211H15.2855C15.2127 11.5211 15.141 11.5033 15.0768 11.4691C15.0125 11.4349 14.9576 11.3854 14.917 11.325C14.8763 11.2646 14.8511 11.1951 14.8437 11.1227C14.8362 11.0503 14.8466 10.9771 14.8741 10.9097L18.0891 2.97787Z" fill="white"/>
<path id="Vector_3" d="M15.5278 17.7967C16.8874 17.7967 17.9896 16.6945 17.9896 15.3349C17.9896 13.9753 16.8874 12.873 15.5278 12.873C14.1681 12.873 13.0659 13.9753 13.0659 15.3349C13.0659 16.6945 14.1681 17.7967 15.5278 17.7967Z" fill="white"/>
</g>
</g>
</g>
</g>
</g>
<defs>
<clipPath id="clip0_164_64811">
<rect width="24" height="24" fill="white"/>
</clipPath>
</defs>
</svg>
