<svg width="45" height="45" viewBox="0 0 45 45" fill="none" xmlns="http://www.w3.org/2000/svg">
<g id="fi_3670147" clip-path="url(#clip0_637_125)">
<g id="Layer 2">
<g id="Color">
<g id="02.YouTube">
<path id="Background" d="M22.5 45C34.9264 45 45 34.9264 45 22.5C45 10.0736 34.9264 0 22.5 0C10.0736 0 0 10.0736 0 22.5C0 34.9264 10.0736 45 22.5 45Z" fill="#1D1D1D"/>
<path id="Icon" d="M29.8612 14.0352H15.1355C14.5471 14.0352 13.9643 14.1511 13.4207 14.3764C12.8771 14.6017 12.3831 14.9319 11.9672 15.3482C11.5512 15.7644 11.2213 16.2585 10.9964 16.8023C10.7714 17.3461 10.6559 17.9289 10.6563 18.5174V26.4812C10.6559 27.0697 10.7714 27.6525 10.9964 28.1963C11.2213 28.7401 11.5512 29.2342 11.9672 29.6504C12.3831 30.0667 12.8771 30.3969 13.4207 30.6222C13.9643 30.8475 14.5471 30.9634 15.1355 30.9634H29.8612C30.4497 30.9634 31.0324 30.8475 31.576 30.6222C32.1197 30.3969 32.6136 30.0667 33.0296 29.6504C33.4455 29.2342 33.7754 28.7401 34.0003 28.1963C34.2253 27.6525 34.3408 27.0697 34.3405 26.4812V18.5174C34.3408 17.9289 34.2253 17.3461 34.0003 16.8023C33.7754 16.2585 33.4455 15.7644 33.0296 15.3482C32.6136 14.9319 32.1197 14.6017 31.576 14.3764C31.0324 14.1511 30.4497 14.0352 29.8612 14.0352ZM19.378 26.1289V18.8697L25.6188 22.4993L19.378 26.1289Z" fill="#FF0000"/>
</g>
</g>
</g>
</g>
<defs>
<clipPath id="clip0_637_125">
<rect width="45" height="45" fill="white"/>
</clipPath>
</defs>
</svg>
